%FSLAX45Y45*%
G04 Gerber Fmt 4.5, Leading zero omitted, Abs format (unit mm)*
G04 Created by KiCad (PCBNEW (6.0.4)) date 2023-01-26 18:29:06*
%MOMM*%
%LPD*%
G01*
G04 APERTURE LIST*
%TA.AperFunction,Profile*%
%ADD10C,0.100000*%
%TD*%
%ADD11C,0.200000*%
%ADD12C,0.065000*%
G04 APERTURE END LIST*
D10*
X15859000Y-7870000D02*
X15859000Y-11620000D01*
X14109000Y-7620000D02*
G75*
G03*
X13859000Y-7870000I0J-250000D01*
G01*
X14109000Y-7620000D02*
X15609000Y-7620000D01*
X15859000Y-7870000D02*
G75*
G03*
X15609000Y-7620000I-250000J0D01*
G01*
X15609000Y-11870000D02*
G75*
G03*
X15859000Y-11620000I0J250000D01*
G01*
X14109000Y-11870000D02*
X15609000Y-11870000D01*
X13859000Y-11615000D02*
X13859000Y-7870000D01*
X13859000Y-11615000D02*
G75*
G03*
X14109000Y-11870000I252500J-2500D01*
G01*
D11*
D12*
X14537500Y-11362500D02*
X14602500Y-11427500D01*
X14602500Y-11362500D02*
X14537500Y-11427500D01*
X15115500Y-11362500D02*
X15180500Y-11427500D01*
X15180500Y-11362500D02*
X15115500Y-11427500D01*
D11*
X14111607Y-12185476D02*
X14111607Y-11985476D01*
X14159226Y-11985476D01*
X14187797Y-11995000D01*
X14206845Y-12014048D01*
X14216368Y-12033095D01*
X14225892Y-12071190D01*
X14225892Y-12099762D01*
X14216368Y-12137857D01*
X14206845Y-12156905D01*
X14187797Y-12175952D01*
X14159226Y-12185476D01*
X14111607Y-12185476D01*
X14311607Y-12185476D02*
X14311607Y-12052143D01*
X14311607Y-12090238D02*
X14321130Y-12071190D01*
X14330654Y-12061667D01*
X14349702Y-12052143D01*
X14368749Y-12052143D01*
X14435416Y-12185476D02*
X14435416Y-12052143D01*
X14435416Y-11985476D02*
X14425892Y-11995000D01*
X14435416Y-12004524D01*
X14444940Y-11995000D01*
X14435416Y-11985476D01*
X14435416Y-12004524D01*
X14559226Y-12185476D02*
X14540178Y-12175952D01*
X14530654Y-12156905D01*
X14530654Y-11985476D01*
X14663988Y-12185476D02*
X14644940Y-12175952D01*
X14635416Y-12156905D01*
X14635416Y-11985476D01*
X14892559Y-12185476D02*
X14892559Y-11985476D01*
X14959226Y-12128333D01*
X15025892Y-11985476D01*
X15025892Y-12185476D01*
X15206845Y-12185476D02*
X15206845Y-12080714D01*
X15197321Y-12061667D01*
X15178273Y-12052143D01*
X15140178Y-12052143D01*
X15121130Y-12061667D01*
X15206845Y-12175952D02*
X15187797Y-12185476D01*
X15140178Y-12185476D01*
X15121130Y-12175952D01*
X15111607Y-12156905D01*
X15111607Y-12137857D01*
X15121130Y-12118809D01*
X15140178Y-12109286D01*
X15187797Y-12109286D01*
X15206845Y-12099762D01*
X15302083Y-12052143D02*
X15302083Y-12252143D01*
X15302083Y-12061667D02*
X15321130Y-12052143D01*
X15359226Y-12052143D01*
X15378273Y-12061667D01*
X15387797Y-12071190D01*
X15397321Y-12090238D01*
X15397321Y-12147381D01*
X15387797Y-12166428D01*
X15378273Y-12175952D01*
X15359226Y-12185476D01*
X15321130Y-12185476D01*
X15302083Y-12175952D01*
X15483035Y-12166428D02*
X15492559Y-12175952D01*
X15483035Y-12185476D01*
X15473511Y-12175952D01*
X15483035Y-12166428D01*
X15483035Y-12185476D01*
X15483035Y-12061667D02*
X15492559Y-12071190D01*
X15483035Y-12080714D01*
X15473511Y-12071190D01*
X15483035Y-12061667D01*
X15483035Y-12080714D01*
D12*
X13788988Y-12482500D02*
X13853988Y-12547500D01*
X13853988Y-12482500D02*
X13788988Y-12547500D01*
D11*
X14149702Y-12405476D02*
X14168749Y-12405476D01*
X14187797Y-12415000D01*
X14197321Y-12424524D01*
X14206845Y-12443571D01*
X14216368Y-12481667D01*
X14216368Y-12529286D01*
X14206845Y-12567381D01*
X14197321Y-12586428D01*
X14187797Y-12595952D01*
X14168749Y-12605476D01*
X14149702Y-12605476D01*
X14130654Y-12595952D01*
X14121130Y-12586428D01*
X14111607Y-12567381D01*
X14102083Y-12529286D01*
X14102083Y-12481667D01*
X14111607Y-12443571D01*
X14121130Y-12424524D01*
X14130654Y-12415000D01*
X14149702Y-12405476D01*
X14302083Y-12586428D02*
X14311607Y-12595952D01*
X14302083Y-12605476D01*
X14292559Y-12595952D01*
X14302083Y-12586428D01*
X14302083Y-12605476D01*
X14483035Y-12405476D02*
X14444940Y-12405476D01*
X14425892Y-12415000D01*
X14416368Y-12424524D01*
X14397321Y-12453095D01*
X14387797Y-12491190D01*
X14387797Y-12567381D01*
X14397321Y-12586428D01*
X14406845Y-12595952D01*
X14425892Y-12605476D01*
X14463988Y-12605476D01*
X14483035Y-12595952D01*
X14492559Y-12586428D01*
X14502083Y-12567381D01*
X14502083Y-12519762D01*
X14492559Y-12500714D01*
X14483035Y-12491190D01*
X14463988Y-12481667D01*
X14425892Y-12481667D01*
X14406845Y-12491190D01*
X14397321Y-12500714D01*
X14387797Y-12519762D01*
X14683035Y-12405476D02*
X14587797Y-12405476D01*
X14578273Y-12500714D01*
X14587797Y-12491190D01*
X14606845Y-12481667D01*
X14654464Y-12481667D01*
X14673511Y-12491190D01*
X14683035Y-12500714D01*
X14692559Y-12519762D01*
X14692559Y-12567381D01*
X14683035Y-12586428D01*
X14673511Y-12595952D01*
X14654464Y-12605476D01*
X14606845Y-12605476D01*
X14587797Y-12595952D01*
X14578273Y-12586428D01*
X14816368Y-12405476D02*
X14835416Y-12405476D01*
X14854464Y-12415000D01*
X14863988Y-12424524D01*
X14873511Y-12443571D01*
X14883035Y-12481667D01*
X14883035Y-12529286D01*
X14873511Y-12567381D01*
X14863988Y-12586428D01*
X14854464Y-12595952D01*
X14835416Y-12605476D01*
X14816368Y-12605476D01*
X14797321Y-12595952D01*
X14787797Y-12586428D01*
X14778273Y-12567381D01*
X14768749Y-12529286D01*
X14768749Y-12481667D01*
X14778273Y-12443571D01*
X14787797Y-12424524D01*
X14797321Y-12415000D01*
X14816368Y-12405476D01*
X14968749Y-12605476D02*
X14968749Y-12472143D01*
X14968749Y-12491190D02*
X14978273Y-12481667D01*
X14997321Y-12472143D01*
X15025892Y-12472143D01*
X15044940Y-12481667D01*
X15054464Y-12500714D01*
X15054464Y-12605476D01*
X15054464Y-12500714D02*
X15063988Y-12481667D01*
X15083035Y-12472143D01*
X15111607Y-12472143D01*
X15130654Y-12481667D01*
X15140178Y-12500714D01*
X15140178Y-12605476D01*
X15235416Y-12605476D02*
X15235416Y-12472143D01*
X15235416Y-12491190D02*
X15244940Y-12481667D01*
X15263988Y-12472143D01*
X15292559Y-12472143D01*
X15311607Y-12481667D01*
X15321130Y-12500714D01*
X15321130Y-12605476D01*
X15321130Y-12500714D02*
X15330654Y-12481667D01*
X15349702Y-12472143D01*
X15378273Y-12472143D01*
X15397321Y-12481667D01*
X15406845Y-12500714D01*
X15406845Y-12605476D01*
X15797321Y-12395952D02*
X15625892Y-12653095D01*
X16054464Y-12405476D02*
X16073511Y-12405476D01*
X16092559Y-12415000D01*
X16102083Y-12424524D01*
X16111607Y-12443571D01*
X16121130Y-12481667D01*
X16121130Y-12529286D01*
X16111607Y-12567381D01*
X16102083Y-12586428D01*
X16092559Y-12595952D01*
X16073511Y-12605476D01*
X16054464Y-12605476D01*
X16035416Y-12595952D01*
X16025892Y-12586428D01*
X16016368Y-12567381D01*
X16006845Y-12529286D01*
X16006845Y-12481667D01*
X16016368Y-12443571D01*
X16025892Y-12424524D01*
X16035416Y-12415000D01*
X16054464Y-12405476D01*
X16206845Y-12586428D02*
X16216368Y-12595952D01*
X16206845Y-12605476D01*
X16197321Y-12595952D01*
X16206845Y-12586428D01*
X16206845Y-12605476D01*
X16340178Y-12405476D02*
X16359226Y-12405476D01*
X16378273Y-12415000D01*
X16387797Y-12424524D01*
X16397321Y-12443571D01*
X16406845Y-12481667D01*
X16406845Y-12529286D01*
X16397321Y-12567381D01*
X16387797Y-12586428D01*
X16378273Y-12595952D01*
X16359226Y-12605476D01*
X16340178Y-12605476D01*
X16321130Y-12595952D01*
X16311607Y-12586428D01*
X16302083Y-12567381D01*
X16292559Y-12529286D01*
X16292559Y-12481667D01*
X16302083Y-12443571D01*
X16311607Y-12424524D01*
X16321130Y-12415000D01*
X16340178Y-12405476D01*
X16483035Y-12424524D02*
X16492559Y-12415000D01*
X16511607Y-12405476D01*
X16559226Y-12405476D01*
X16578273Y-12415000D01*
X16587797Y-12424524D01*
X16597321Y-12443571D01*
X16597321Y-12462619D01*
X16587797Y-12491190D01*
X16473511Y-12605476D01*
X16597321Y-12605476D01*
X16778273Y-12405476D02*
X16683035Y-12405476D01*
X16673511Y-12500714D01*
X16683035Y-12491190D01*
X16702083Y-12481667D01*
X16749702Y-12481667D01*
X16768749Y-12491190D01*
X16778273Y-12500714D01*
X16787797Y-12519762D01*
X16787797Y-12567381D01*
X16778273Y-12586428D01*
X16768749Y-12595952D01*
X16749702Y-12605476D01*
X16702083Y-12605476D01*
X16683035Y-12595952D01*
X16673511Y-12586428D01*
X16959226Y-12405476D02*
X16921130Y-12405476D01*
X16902083Y-12415000D01*
X16892559Y-12424524D01*
X16873511Y-12453095D01*
X16863988Y-12491190D01*
X16863988Y-12567381D01*
X16873511Y-12586428D01*
X16883035Y-12595952D01*
X16902083Y-12605476D01*
X16940178Y-12605476D01*
X16959226Y-12595952D01*
X16968750Y-12586428D01*
X16978273Y-12567381D01*
X16978273Y-12519762D01*
X16968750Y-12500714D01*
X16959226Y-12491190D01*
X16940178Y-12481667D01*
X16902083Y-12481667D01*
X16883035Y-12491190D01*
X16873511Y-12500714D01*
X16863988Y-12519762D01*
X17054464Y-12405476D02*
X17054464Y-12443571D01*
X17130654Y-12405476D02*
X17130654Y-12443571D01*
X17425892Y-12681667D02*
X17416369Y-12672143D01*
X17397321Y-12643571D01*
X17387797Y-12624524D01*
X17378273Y-12595952D01*
X17368750Y-12548333D01*
X17368750Y-12510238D01*
X17378273Y-12462619D01*
X17387797Y-12434048D01*
X17397321Y-12415000D01*
X17416369Y-12386428D01*
X17425892Y-12376905D01*
X17492559Y-12424524D02*
X17502083Y-12415000D01*
X17521130Y-12405476D01*
X17568750Y-12405476D01*
X17587797Y-12415000D01*
X17597321Y-12424524D01*
X17606845Y-12443571D01*
X17606845Y-12462619D01*
X17597321Y-12491190D01*
X17483035Y-12605476D01*
X17606845Y-12605476D01*
X17844940Y-12605476D02*
X17844940Y-12405476D01*
X17930654Y-12605476D02*
X17930654Y-12500714D01*
X17921130Y-12481667D01*
X17902083Y-12472143D01*
X17873511Y-12472143D01*
X17854464Y-12481667D01*
X17844940Y-12491190D01*
X18054464Y-12605476D02*
X18035416Y-12595952D01*
X18025892Y-12586428D01*
X18016369Y-12567381D01*
X18016369Y-12510238D01*
X18025892Y-12491190D01*
X18035416Y-12481667D01*
X18054464Y-12472143D01*
X18083035Y-12472143D01*
X18102083Y-12481667D01*
X18111607Y-12491190D01*
X18121130Y-12510238D01*
X18121130Y-12567381D01*
X18111607Y-12586428D01*
X18102083Y-12595952D01*
X18083035Y-12605476D01*
X18054464Y-12605476D01*
X18235416Y-12605476D02*
X18216369Y-12595952D01*
X18206845Y-12576905D01*
X18206845Y-12405476D01*
X18387797Y-12595952D02*
X18368750Y-12605476D01*
X18330654Y-12605476D01*
X18311607Y-12595952D01*
X18302083Y-12576905D01*
X18302083Y-12500714D01*
X18311607Y-12481667D01*
X18330654Y-12472143D01*
X18368750Y-12472143D01*
X18387797Y-12481667D01*
X18397321Y-12500714D01*
X18397321Y-12519762D01*
X18302083Y-12538809D01*
X18473511Y-12595952D02*
X18492559Y-12605476D01*
X18530654Y-12605476D01*
X18549702Y-12595952D01*
X18559226Y-12576905D01*
X18559226Y-12567381D01*
X18549702Y-12548333D01*
X18530654Y-12538809D01*
X18502083Y-12538809D01*
X18483035Y-12529286D01*
X18473511Y-12510238D01*
X18473511Y-12500714D01*
X18483035Y-12481667D01*
X18502083Y-12472143D01*
X18530654Y-12472143D01*
X18549702Y-12481667D01*
X18625892Y-12681667D02*
X18635416Y-12672143D01*
X18654464Y-12643571D01*
X18663988Y-12624524D01*
X18673511Y-12595952D01*
X18683035Y-12548333D01*
X18683035Y-12510238D01*
X18673511Y-12462619D01*
X18663988Y-12434048D01*
X18654464Y-12415000D01*
X18635416Y-12386428D01*
X18625892Y-12376905D01*
X18987797Y-12681667D02*
X18978273Y-12672143D01*
X18959226Y-12643571D01*
X18949702Y-12624524D01*
X18940178Y-12595952D01*
X18930654Y-12548333D01*
X18930654Y-12510238D01*
X18940178Y-12462619D01*
X18949702Y-12434048D01*
X18959226Y-12415000D01*
X18978273Y-12386428D01*
X18987797Y-12376905D01*
X19063988Y-12472143D02*
X19063988Y-12605476D01*
X19063988Y-12491190D02*
X19073511Y-12481667D01*
X19092559Y-12472143D01*
X19121130Y-12472143D01*
X19140178Y-12481667D01*
X19149702Y-12500714D01*
X19149702Y-12605476D01*
X19273511Y-12605476D02*
X19254464Y-12595952D01*
X19244940Y-12586428D01*
X19235416Y-12567381D01*
X19235416Y-12510238D01*
X19244940Y-12491190D01*
X19254464Y-12481667D01*
X19273511Y-12472143D01*
X19302083Y-12472143D01*
X19321130Y-12481667D01*
X19330654Y-12491190D01*
X19340178Y-12510238D01*
X19340178Y-12567381D01*
X19330654Y-12586428D01*
X19321130Y-12595952D01*
X19302083Y-12605476D01*
X19273511Y-12605476D01*
X19397321Y-12472143D02*
X19473511Y-12472143D01*
X19425892Y-12405476D02*
X19425892Y-12576905D01*
X19435416Y-12595952D01*
X19454464Y-12605476D01*
X19473511Y-12605476D01*
X19692559Y-12472143D02*
X19692559Y-12672143D01*
X19692559Y-12481667D02*
X19711607Y-12472143D01*
X19749702Y-12472143D01*
X19768750Y-12481667D01*
X19778273Y-12491190D01*
X19787797Y-12510238D01*
X19787797Y-12567381D01*
X19778273Y-12586428D01*
X19768750Y-12595952D01*
X19749702Y-12605476D01*
X19711607Y-12605476D01*
X19692559Y-12595952D01*
X19902083Y-12605476D02*
X19883035Y-12595952D01*
X19873511Y-12576905D01*
X19873511Y-12405476D01*
X20063988Y-12605476D02*
X20063988Y-12500714D01*
X20054464Y-12481667D01*
X20035416Y-12472143D01*
X19997321Y-12472143D01*
X19978273Y-12481667D01*
X20063988Y-12595952D02*
X20044940Y-12605476D01*
X19997321Y-12605476D01*
X19978273Y-12595952D01*
X19968750Y-12576905D01*
X19968750Y-12557857D01*
X19978273Y-12538809D01*
X19997321Y-12529286D01*
X20044940Y-12529286D01*
X20063988Y-12519762D01*
X20130654Y-12472143D02*
X20206845Y-12472143D01*
X20159226Y-12405476D02*
X20159226Y-12576905D01*
X20168750Y-12595952D01*
X20187797Y-12605476D01*
X20206845Y-12605476D01*
X20349702Y-12595952D02*
X20330654Y-12605476D01*
X20292559Y-12605476D01*
X20273511Y-12595952D01*
X20263988Y-12576905D01*
X20263988Y-12500714D01*
X20273511Y-12481667D01*
X20292559Y-12472143D01*
X20330654Y-12472143D01*
X20349702Y-12481667D01*
X20359226Y-12500714D01*
X20359226Y-12519762D01*
X20263988Y-12538809D01*
X20530654Y-12605476D02*
X20530654Y-12405476D01*
X20530654Y-12595952D02*
X20511607Y-12605476D01*
X20473511Y-12605476D01*
X20454464Y-12595952D01*
X20444940Y-12586428D01*
X20435416Y-12567381D01*
X20435416Y-12510238D01*
X20444940Y-12491190D01*
X20454464Y-12481667D01*
X20473511Y-12472143D01*
X20511607Y-12472143D01*
X20530654Y-12481667D01*
X20606845Y-12681667D02*
X20616369Y-12672143D01*
X20635416Y-12643571D01*
X20644940Y-12624524D01*
X20654464Y-12595952D01*
X20663988Y-12548333D01*
X20663988Y-12510238D01*
X20654464Y-12462619D01*
X20644940Y-12434048D01*
X20635416Y-12415000D01*
X20616369Y-12386428D01*
X20606845Y-12376905D01*
M02*
