%FSLAX45Y45*%
G04 Gerber Fmt 4.5, Leading zero omitted, Abs format (unit mm)*
G04 Created by KiCad (PCBNEW (6.0.4)) date 2023-01-26 18:29:06*
%MOMM*%
%LPD*%
G01*
G04 APERTURE LIST*
%TA.AperFunction,Profile*%
%ADD10C,0.100000*%
%TD*%
%ADD11C,0.200000*%
%ADD12C,0.030000*%
%ADD13C,0.060000*%
G04 APERTURE END LIST*
D10*
X15859000Y-7870000D02*
X15859000Y-11620000D01*
X14109000Y-7620000D02*
G75*
G03*
X13859000Y-7870000I0J-250000D01*
G01*
X14109000Y-7620000D02*
X15609000Y-7620000D01*
X15859000Y-7870000D02*
G75*
G03*
X15609000Y-7620000I-250000J0D01*
G01*
X15609000Y-11870000D02*
G75*
G03*
X15859000Y-11620000I0J250000D01*
G01*
X14109000Y-11870000D02*
X15609000Y-11870000D01*
X13859000Y-11615000D02*
X13859000Y-7870000D01*
X13859000Y-11615000D02*
G75*
G03*
X14109000Y-11870000I252500J-2500D01*
G01*
D11*
D12*
X14145500Y-9840200D02*
X14175500Y-9870200D01*
X14175500Y-9840200D02*
X14145500Y-9870200D01*
X14170900Y-9497300D02*
X14200900Y-9527300D01*
X14200900Y-9497300D02*
X14170900Y-9527300D01*
X14297900Y-8671800D02*
X14327900Y-8701800D01*
X14327900Y-8671800D02*
X14297900Y-8701800D01*
X14336000Y-8405100D02*
X14366000Y-8435100D01*
X14366000Y-8405100D02*
X14336000Y-8435100D01*
X14361400Y-11122900D02*
X14391400Y-11152900D01*
X14391400Y-11122900D02*
X14361400Y-11152900D01*
X14412200Y-8328900D02*
X14442200Y-8358900D01*
X14442200Y-8328900D02*
X14412200Y-8358900D01*
X14422360Y-10205960D02*
X14452360Y-10235960D01*
X14452360Y-10205960D02*
X14422360Y-10235960D01*
X14424900Y-11122900D02*
X14454900Y-11152900D01*
X14454900Y-11122900D02*
X14424900Y-11152900D01*
X14437600Y-10957800D02*
X14467600Y-10987800D01*
X14467600Y-10957800D02*
X14437600Y-10987800D01*
X14539200Y-9611600D02*
X14569200Y-9641600D01*
X14569200Y-9611600D02*
X14539200Y-9641600D01*
X14564600Y-10716500D02*
X14594600Y-10746500D01*
X14594600Y-10716500D02*
X14564600Y-10746500D01*
X14590000Y-8875000D02*
X14620000Y-8905000D01*
X14620000Y-8875000D02*
X14590000Y-8905000D01*
X14653500Y-10195800D02*
X14683500Y-10225800D01*
X14683500Y-10195800D02*
X14653500Y-10225800D01*
X14722080Y-11059400D02*
X14752080Y-11089400D01*
X14752080Y-11059400D02*
X14722080Y-11089400D01*
X14742400Y-10678400D02*
X14772400Y-10708400D01*
X14772400Y-10678400D02*
X14742400Y-10708400D01*
X14780500Y-10322800D02*
X14810500Y-10352800D01*
X14810500Y-10322800D02*
X14780500Y-10352800D01*
X14780500Y-10449800D02*
X14810500Y-10479800D01*
X14810500Y-10449800D02*
X14780500Y-10479800D01*
X14803360Y-11059400D02*
X14833360Y-11089400D01*
X14833360Y-11059400D02*
X14803360Y-11089400D01*
X14818600Y-9598900D02*
X14848600Y-9628900D01*
X14848600Y-9598900D02*
X14818600Y-9628900D01*
X14818600Y-10056100D02*
X14848600Y-10086100D01*
X14848600Y-10056100D02*
X14818600Y-10086100D01*
X14884640Y-11059400D02*
X14914640Y-11089400D01*
X14914640Y-11059400D02*
X14884640Y-11089400D01*
X14907500Y-10322800D02*
X14937500Y-10352800D01*
X14937500Y-10322800D02*
X14907500Y-10352800D01*
X14907500Y-10449800D02*
X14937500Y-10479800D01*
X14937500Y-10449800D02*
X14907500Y-10479800D01*
X14965920Y-11059400D02*
X14995920Y-11089400D01*
X14995920Y-11059400D02*
X14965920Y-11089400D01*
X15123400Y-10716500D02*
X15153400Y-10746500D01*
X15153400Y-10716500D02*
X15123400Y-10746500D01*
X15199600Y-10818100D02*
X15229600Y-10848100D01*
X15229600Y-10818100D02*
X15199600Y-10848100D01*
X15263100Y-11122900D02*
X15293100Y-11152900D01*
X15293100Y-11122900D02*
X15263100Y-11152900D01*
X15313900Y-8367000D02*
X15343900Y-8397000D01*
X15343900Y-8367000D02*
X15313900Y-8397000D01*
X15326600Y-10678400D02*
X15356600Y-10708400D01*
X15356600Y-10678400D02*
X15326600Y-10708400D01*
X15326600Y-11122900D02*
X15356600Y-11152900D01*
X15356600Y-11122900D02*
X15326600Y-11152900D01*
X15402800Y-9802100D02*
X15432800Y-9832100D01*
X15432800Y-9802100D02*
X15402800Y-9832100D01*
X15440900Y-10716500D02*
X15470900Y-10746500D01*
X15470900Y-10716500D02*
X15440900Y-10746500D01*
X15517100Y-10132300D02*
X15547100Y-10162300D01*
X15547100Y-10132300D02*
X15517100Y-10162300D01*
X15517100Y-10322800D02*
X15547100Y-10352800D01*
X15547100Y-10322800D02*
X15517100Y-10352800D01*
X15542500Y-9154400D02*
X15572500Y-9184400D01*
X15572500Y-9154400D02*
X15542500Y-9184400D01*
X15542500Y-10729200D02*
X15572500Y-10759200D01*
X15572500Y-10729200D02*
X15542500Y-10759200D01*
X15542500Y-11249900D02*
X15572500Y-11279900D01*
X15572500Y-11249900D02*
X15542500Y-11279900D01*
X15567900Y-9484600D02*
X15597900Y-9514600D01*
X15597900Y-9484600D02*
X15567900Y-9514600D01*
X15720300Y-9383000D02*
X15750300Y-9413000D01*
X15750300Y-9383000D02*
X15720300Y-9413000D01*
X15720300Y-9700500D02*
X15750300Y-9730500D01*
X15750300Y-9700500D02*
X15720300Y-9730500D01*
D13*
X14457000Y-11342000D02*
G75*
G03*
X14457000Y-11342000I-30000J0D01*
G01*
D11*
X14407000Y-11287000D02*
X14407000Y-11397000D01*
X14447000Y-11287000D02*
X14447000Y-11397000D01*
X14407000Y-11397000D02*
G75*
G03*
X14447000Y-11397000I20000J0D01*
G01*
X14447000Y-11287000D02*
G75*
G03*
X14407000Y-11287000I-20000J0D01*
G01*
D13*
X14457000Y-11760000D02*
G75*
G03*
X14457000Y-11760000I-30000J0D01*
G01*
D11*
X14407000Y-11730000D02*
X14407000Y-11790000D01*
X14447000Y-11730000D02*
X14447000Y-11790000D01*
X14407000Y-11790000D02*
G75*
G03*
X14447000Y-11790000I20000J0D01*
G01*
X14447000Y-11730000D02*
G75*
G03*
X14407000Y-11730000I-20000J0D01*
G01*
D13*
X15321000Y-11342000D02*
G75*
G03*
X15321000Y-11342000I-30000J0D01*
G01*
D11*
X15271000Y-11287000D02*
X15271000Y-11397000D01*
X15311000Y-11287000D02*
X15311000Y-11397000D01*
X15271000Y-11397000D02*
G75*
G03*
X15311000Y-11397000I20000J0D01*
G01*
X15311000Y-11287000D02*
G75*
G03*
X15271000Y-11287000I-20000J0D01*
G01*
D13*
X15321000Y-11760000D02*
G75*
G03*
X15321000Y-11760000I-30000J0D01*
G01*
D11*
X15271000Y-11730000D02*
X15271000Y-11790000D01*
X15311000Y-11730000D02*
X15311000Y-11790000D01*
X15271000Y-11790000D02*
G75*
G03*
X15311000Y-11790000I20000J0D01*
G01*
X15311000Y-11730000D02*
G75*
G03*
X15271000Y-11730000I-20000J0D01*
G01*
X14111607Y-12185476D02*
X14111607Y-11985476D01*
X14159226Y-11985476D01*
X14187797Y-11995000D01*
X14206845Y-12014048D01*
X14216368Y-12033095D01*
X14225892Y-12071190D01*
X14225892Y-12099762D01*
X14216368Y-12137857D01*
X14206845Y-12156905D01*
X14187797Y-12175952D01*
X14159226Y-12185476D01*
X14111607Y-12185476D01*
X14311607Y-12185476D02*
X14311607Y-12052143D01*
X14311607Y-12090238D02*
X14321130Y-12071190D01*
X14330654Y-12061667D01*
X14349702Y-12052143D01*
X14368749Y-12052143D01*
X14435416Y-12185476D02*
X14435416Y-12052143D01*
X14435416Y-11985476D02*
X14425892Y-11995000D01*
X14435416Y-12004524D01*
X14444940Y-11995000D01*
X14435416Y-11985476D01*
X14435416Y-12004524D01*
X14559226Y-12185476D02*
X14540178Y-12175952D01*
X14530654Y-12156905D01*
X14530654Y-11985476D01*
X14663988Y-12185476D02*
X14644940Y-12175952D01*
X14635416Y-12156905D01*
X14635416Y-11985476D01*
X14892559Y-12185476D02*
X14892559Y-11985476D01*
X14959226Y-12128333D01*
X15025892Y-11985476D01*
X15025892Y-12185476D01*
X15206845Y-12185476D02*
X15206845Y-12080714D01*
X15197321Y-12061667D01*
X15178273Y-12052143D01*
X15140178Y-12052143D01*
X15121130Y-12061667D01*
X15206845Y-12175952D02*
X15187797Y-12185476D01*
X15140178Y-12185476D01*
X15121130Y-12175952D01*
X15111607Y-12156905D01*
X15111607Y-12137857D01*
X15121130Y-12118809D01*
X15140178Y-12109286D01*
X15187797Y-12109286D01*
X15206845Y-12099762D01*
X15302083Y-12052143D02*
X15302083Y-12252143D01*
X15302083Y-12061667D02*
X15321130Y-12052143D01*
X15359226Y-12052143D01*
X15378273Y-12061667D01*
X15387797Y-12071190D01*
X15397321Y-12090238D01*
X15397321Y-12147381D01*
X15387797Y-12166428D01*
X15378273Y-12175952D01*
X15359226Y-12185476D01*
X15321130Y-12185476D01*
X15302083Y-12175952D01*
X15483035Y-12166428D02*
X15492559Y-12175952D01*
X15483035Y-12185476D01*
X15473511Y-12175952D01*
X15483035Y-12166428D01*
X15483035Y-12185476D01*
X15483035Y-12061667D02*
X15492559Y-12071190D01*
X15483035Y-12080714D01*
X15473511Y-12071190D01*
X15483035Y-12061667D01*
X15483035Y-12080714D01*
D12*
X13823988Y-12500000D02*
X13853988Y-12530000D01*
X13853988Y-12500000D02*
X13823988Y-12530000D01*
D11*
X14149702Y-12405476D02*
X14168749Y-12405476D01*
X14187797Y-12415000D01*
X14197321Y-12424524D01*
X14206845Y-12443571D01*
X14216368Y-12481667D01*
X14216368Y-12529286D01*
X14206845Y-12567381D01*
X14197321Y-12586428D01*
X14187797Y-12595952D01*
X14168749Y-12605476D01*
X14149702Y-12605476D01*
X14130654Y-12595952D01*
X14121130Y-12586428D01*
X14111607Y-12567381D01*
X14102083Y-12529286D01*
X14102083Y-12481667D01*
X14111607Y-12443571D01*
X14121130Y-12424524D01*
X14130654Y-12415000D01*
X14149702Y-12405476D01*
X14302083Y-12586428D02*
X14311607Y-12595952D01*
X14302083Y-12605476D01*
X14292559Y-12595952D01*
X14302083Y-12586428D01*
X14302083Y-12605476D01*
X14378273Y-12405476D02*
X14502083Y-12405476D01*
X14435416Y-12481667D01*
X14463988Y-12481667D01*
X14483035Y-12491190D01*
X14492559Y-12500714D01*
X14502083Y-12519762D01*
X14502083Y-12567381D01*
X14492559Y-12586428D01*
X14483035Y-12595952D01*
X14463988Y-12605476D01*
X14406845Y-12605476D01*
X14387797Y-12595952D01*
X14378273Y-12586428D01*
X14625892Y-12405476D02*
X14644940Y-12405476D01*
X14663988Y-12415000D01*
X14673511Y-12424524D01*
X14683035Y-12443571D01*
X14692559Y-12481667D01*
X14692559Y-12529286D01*
X14683035Y-12567381D01*
X14673511Y-12586428D01*
X14663988Y-12595952D01*
X14644940Y-12605476D01*
X14625892Y-12605476D01*
X14606845Y-12595952D01*
X14597321Y-12586428D01*
X14587797Y-12567381D01*
X14578273Y-12529286D01*
X14578273Y-12481667D01*
X14587797Y-12443571D01*
X14597321Y-12424524D01*
X14606845Y-12415000D01*
X14625892Y-12405476D01*
X14816368Y-12405476D02*
X14835416Y-12405476D01*
X14854464Y-12415000D01*
X14863988Y-12424524D01*
X14873511Y-12443571D01*
X14883035Y-12481667D01*
X14883035Y-12529286D01*
X14873511Y-12567381D01*
X14863988Y-12586428D01*
X14854464Y-12595952D01*
X14835416Y-12605476D01*
X14816368Y-12605476D01*
X14797321Y-12595952D01*
X14787797Y-12586428D01*
X14778273Y-12567381D01*
X14768749Y-12529286D01*
X14768749Y-12481667D01*
X14778273Y-12443571D01*
X14787797Y-12424524D01*
X14797321Y-12415000D01*
X14816368Y-12405476D01*
X14968749Y-12605476D02*
X14968749Y-12472143D01*
X14968749Y-12491190D02*
X14978273Y-12481667D01*
X14997321Y-12472143D01*
X15025892Y-12472143D01*
X15044940Y-12481667D01*
X15054464Y-12500714D01*
X15054464Y-12605476D01*
X15054464Y-12500714D02*
X15063988Y-12481667D01*
X15083035Y-12472143D01*
X15111607Y-12472143D01*
X15130654Y-12481667D01*
X15140178Y-12500714D01*
X15140178Y-12605476D01*
X15235416Y-12605476D02*
X15235416Y-12472143D01*
X15235416Y-12491190D02*
X15244940Y-12481667D01*
X15263988Y-12472143D01*
X15292559Y-12472143D01*
X15311607Y-12481667D01*
X15321130Y-12500714D01*
X15321130Y-12605476D01*
X15321130Y-12500714D02*
X15330654Y-12481667D01*
X15349702Y-12472143D01*
X15378273Y-12472143D01*
X15397321Y-12481667D01*
X15406845Y-12500714D01*
X15406845Y-12605476D01*
X15797321Y-12395952D02*
X15625892Y-12653095D01*
X16054464Y-12405476D02*
X16073511Y-12405476D01*
X16092559Y-12415000D01*
X16102083Y-12424524D01*
X16111607Y-12443571D01*
X16121130Y-12481667D01*
X16121130Y-12529286D01*
X16111607Y-12567381D01*
X16102083Y-12586428D01*
X16092559Y-12595952D01*
X16073511Y-12605476D01*
X16054464Y-12605476D01*
X16035416Y-12595952D01*
X16025892Y-12586428D01*
X16016368Y-12567381D01*
X16006845Y-12529286D01*
X16006845Y-12481667D01*
X16016368Y-12443571D01*
X16025892Y-12424524D01*
X16035416Y-12415000D01*
X16054464Y-12405476D01*
X16206845Y-12586428D02*
X16216368Y-12595952D01*
X16206845Y-12605476D01*
X16197321Y-12595952D01*
X16206845Y-12586428D01*
X16206845Y-12605476D01*
X16340178Y-12405476D02*
X16359226Y-12405476D01*
X16378273Y-12415000D01*
X16387797Y-12424524D01*
X16397321Y-12443571D01*
X16406845Y-12481667D01*
X16406845Y-12529286D01*
X16397321Y-12567381D01*
X16387797Y-12586428D01*
X16378273Y-12595952D01*
X16359226Y-12605476D01*
X16340178Y-12605476D01*
X16321130Y-12595952D01*
X16311607Y-12586428D01*
X16302083Y-12567381D01*
X16292559Y-12529286D01*
X16292559Y-12481667D01*
X16302083Y-12443571D01*
X16311607Y-12424524D01*
X16321130Y-12415000D01*
X16340178Y-12405476D01*
X16597321Y-12605476D02*
X16483035Y-12605476D01*
X16540178Y-12605476D02*
X16540178Y-12405476D01*
X16521130Y-12434048D01*
X16502083Y-12453095D01*
X16483035Y-12462619D01*
X16787797Y-12605476D02*
X16673511Y-12605476D01*
X16730654Y-12605476D02*
X16730654Y-12405476D01*
X16711607Y-12434048D01*
X16692559Y-12453095D01*
X16673511Y-12462619D01*
X16902083Y-12491190D02*
X16883035Y-12481667D01*
X16873511Y-12472143D01*
X16863988Y-12453095D01*
X16863988Y-12443571D01*
X16873511Y-12424524D01*
X16883035Y-12415000D01*
X16902083Y-12405476D01*
X16940178Y-12405476D01*
X16959226Y-12415000D01*
X16968750Y-12424524D01*
X16978273Y-12443571D01*
X16978273Y-12453095D01*
X16968750Y-12472143D01*
X16959226Y-12481667D01*
X16940178Y-12491190D01*
X16902083Y-12491190D01*
X16883035Y-12500714D01*
X16873511Y-12510238D01*
X16863988Y-12529286D01*
X16863988Y-12567381D01*
X16873511Y-12586428D01*
X16883035Y-12595952D01*
X16902083Y-12605476D01*
X16940178Y-12605476D01*
X16959226Y-12595952D01*
X16968750Y-12586428D01*
X16978273Y-12567381D01*
X16978273Y-12529286D01*
X16968750Y-12510238D01*
X16959226Y-12500714D01*
X16940178Y-12491190D01*
X17054464Y-12405476D02*
X17054464Y-12443571D01*
X17130654Y-12405476D02*
X17130654Y-12443571D01*
X17425892Y-12681667D02*
X17416369Y-12672143D01*
X17397321Y-12643571D01*
X17387797Y-12624524D01*
X17378273Y-12595952D01*
X17368750Y-12548333D01*
X17368750Y-12510238D01*
X17378273Y-12462619D01*
X17387797Y-12434048D01*
X17397321Y-12415000D01*
X17416369Y-12386428D01*
X17425892Y-12376905D01*
X17587797Y-12472143D02*
X17587797Y-12605476D01*
X17540178Y-12395952D02*
X17492559Y-12538809D01*
X17616369Y-12538809D01*
X17730654Y-12405476D02*
X17749702Y-12405476D01*
X17768750Y-12415000D01*
X17778273Y-12424524D01*
X17787797Y-12443571D01*
X17797321Y-12481667D01*
X17797321Y-12529286D01*
X17787797Y-12567381D01*
X17778273Y-12586428D01*
X17768750Y-12595952D01*
X17749702Y-12605476D01*
X17730654Y-12605476D01*
X17711607Y-12595952D01*
X17702083Y-12586428D01*
X17692559Y-12567381D01*
X17683035Y-12529286D01*
X17683035Y-12481667D01*
X17692559Y-12443571D01*
X17702083Y-12424524D01*
X17711607Y-12415000D01*
X17730654Y-12405476D01*
X18035416Y-12605476D02*
X18035416Y-12405476D01*
X18121130Y-12605476D02*
X18121130Y-12500714D01*
X18111607Y-12481667D01*
X18092559Y-12472143D01*
X18063988Y-12472143D01*
X18044940Y-12481667D01*
X18035416Y-12491190D01*
X18244940Y-12605476D02*
X18225892Y-12595952D01*
X18216369Y-12586428D01*
X18206845Y-12567381D01*
X18206845Y-12510238D01*
X18216369Y-12491190D01*
X18225892Y-12481667D01*
X18244940Y-12472143D01*
X18273511Y-12472143D01*
X18292559Y-12481667D01*
X18302083Y-12491190D01*
X18311607Y-12510238D01*
X18311607Y-12567381D01*
X18302083Y-12586428D01*
X18292559Y-12595952D01*
X18273511Y-12605476D01*
X18244940Y-12605476D01*
X18425892Y-12605476D02*
X18406845Y-12595952D01*
X18397321Y-12576905D01*
X18397321Y-12405476D01*
X18578273Y-12595952D02*
X18559226Y-12605476D01*
X18521130Y-12605476D01*
X18502083Y-12595952D01*
X18492559Y-12576905D01*
X18492559Y-12500714D01*
X18502083Y-12481667D01*
X18521130Y-12472143D01*
X18559226Y-12472143D01*
X18578273Y-12481667D01*
X18587797Y-12500714D01*
X18587797Y-12519762D01*
X18492559Y-12538809D01*
X18663988Y-12595952D02*
X18683035Y-12605476D01*
X18721130Y-12605476D01*
X18740178Y-12595952D01*
X18749702Y-12576905D01*
X18749702Y-12567381D01*
X18740178Y-12548333D01*
X18721130Y-12538809D01*
X18692559Y-12538809D01*
X18673511Y-12529286D01*
X18663988Y-12510238D01*
X18663988Y-12500714D01*
X18673511Y-12481667D01*
X18692559Y-12472143D01*
X18721130Y-12472143D01*
X18740178Y-12481667D01*
X18816369Y-12681667D02*
X18825892Y-12672143D01*
X18844940Y-12643571D01*
X18854464Y-12624524D01*
X18863988Y-12595952D01*
X18873511Y-12548333D01*
X18873511Y-12510238D01*
X18863988Y-12462619D01*
X18854464Y-12434048D01*
X18844940Y-12415000D01*
X18825892Y-12386428D01*
X18816369Y-12376905D01*
D13*
X13853988Y-12779000D02*
G75*
G03*
X13853988Y-12779000I-30000J0D01*
G01*
D11*
X14149702Y-12669476D02*
X14168749Y-12669476D01*
X14187797Y-12679000D01*
X14197321Y-12688524D01*
X14206845Y-12707571D01*
X14216368Y-12745667D01*
X14216368Y-12793286D01*
X14206845Y-12831381D01*
X14197321Y-12850428D01*
X14187797Y-12859952D01*
X14168749Y-12869476D01*
X14149702Y-12869476D01*
X14130654Y-12859952D01*
X14121130Y-12850428D01*
X14111607Y-12831381D01*
X14102083Y-12793286D01*
X14102083Y-12745667D01*
X14111607Y-12707571D01*
X14121130Y-12688524D01*
X14130654Y-12679000D01*
X14149702Y-12669476D01*
X14302083Y-12850428D02*
X14311607Y-12859952D01*
X14302083Y-12869476D01*
X14292559Y-12859952D01*
X14302083Y-12850428D01*
X14302083Y-12869476D01*
X14483035Y-12669476D02*
X14444940Y-12669476D01*
X14425892Y-12679000D01*
X14416368Y-12688524D01*
X14397321Y-12717095D01*
X14387797Y-12755190D01*
X14387797Y-12831381D01*
X14397321Y-12850428D01*
X14406845Y-12859952D01*
X14425892Y-12869476D01*
X14463988Y-12869476D01*
X14483035Y-12859952D01*
X14492559Y-12850428D01*
X14502083Y-12831381D01*
X14502083Y-12783762D01*
X14492559Y-12764714D01*
X14483035Y-12755190D01*
X14463988Y-12745667D01*
X14425892Y-12745667D01*
X14406845Y-12755190D01*
X14397321Y-12764714D01*
X14387797Y-12783762D01*
X14625892Y-12669476D02*
X14644940Y-12669476D01*
X14663988Y-12679000D01*
X14673511Y-12688524D01*
X14683035Y-12707571D01*
X14692559Y-12745667D01*
X14692559Y-12793286D01*
X14683035Y-12831381D01*
X14673511Y-12850428D01*
X14663988Y-12859952D01*
X14644940Y-12869476D01*
X14625892Y-12869476D01*
X14606845Y-12859952D01*
X14597321Y-12850428D01*
X14587797Y-12831381D01*
X14578273Y-12793286D01*
X14578273Y-12745667D01*
X14587797Y-12707571D01*
X14597321Y-12688524D01*
X14606845Y-12679000D01*
X14625892Y-12669476D01*
X14816368Y-12669476D02*
X14835416Y-12669476D01*
X14854464Y-12679000D01*
X14863988Y-12688524D01*
X14873511Y-12707571D01*
X14883035Y-12745667D01*
X14883035Y-12793286D01*
X14873511Y-12831381D01*
X14863988Y-12850428D01*
X14854464Y-12859952D01*
X14835416Y-12869476D01*
X14816368Y-12869476D01*
X14797321Y-12859952D01*
X14787797Y-12850428D01*
X14778273Y-12831381D01*
X14768749Y-12793286D01*
X14768749Y-12745667D01*
X14778273Y-12707571D01*
X14787797Y-12688524D01*
X14797321Y-12679000D01*
X14816368Y-12669476D01*
X14968749Y-12869476D02*
X14968749Y-12736143D01*
X14968749Y-12755190D02*
X14978273Y-12745667D01*
X14997321Y-12736143D01*
X15025892Y-12736143D01*
X15044940Y-12745667D01*
X15054464Y-12764714D01*
X15054464Y-12869476D01*
X15054464Y-12764714D02*
X15063988Y-12745667D01*
X15083035Y-12736143D01*
X15111607Y-12736143D01*
X15130654Y-12745667D01*
X15140178Y-12764714D01*
X15140178Y-12869476D01*
X15235416Y-12869476D02*
X15235416Y-12736143D01*
X15235416Y-12755190D02*
X15244940Y-12745667D01*
X15263988Y-12736143D01*
X15292559Y-12736143D01*
X15311607Y-12745667D01*
X15321130Y-12764714D01*
X15321130Y-12869476D01*
X15321130Y-12764714D02*
X15330654Y-12745667D01*
X15349702Y-12736143D01*
X15378273Y-12736143D01*
X15397321Y-12745667D01*
X15406845Y-12764714D01*
X15406845Y-12869476D01*
X15797321Y-12659952D02*
X15625892Y-12917095D01*
X16054464Y-12669476D02*
X16073511Y-12669476D01*
X16092559Y-12679000D01*
X16102083Y-12688524D01*
X16111607Y-12707571D01*
X16121130Y-12745667D01*
X16121130Y-12793286D01*
X16111607Y-12831381D01*
X16102083Y-12850428D01*
X16092559Y-12859952D01*
X16073511Y-12869476D01*
X16054464Y-12869476D01*
X16035416Y-12859952D01*
X16025892Y-12850428D01*
X16016368Y-12831381D01*
X16006845Y-12793286D01*
X16006845Y-12745667D01*
X16016368Y-12707571D01*
X16025892Y-12688524D01*
X16035416Y-12679000D01*
X16054464Y-12669476D01*
X16206845Y-12850428D02*
X16216368Y-12859952D01*
X16206845Y-12869476D01*
X16197321Y-12859952D01*
X16206845Y-12850428D01*
X16206845Y-12869476D01*
X16340178Y-12669476D02*
X16359226Y-12669476D01*
X16378273Y-12679000D01*
X16387797Y-12688524D01*
X16397321Y-12707571D01*
X16406845Y-12745667D01*
X16406845Y-12793286D01*
X16397321Y-12831381D01*
X16387797Y-12850428D01*
X16378273Y-12859952D01*
X16359226Y-12869476D01*
X16340178Y-12869476D01*
X16321130Y-12859952D01*
X16311607Y-12850428D01*
X16302083Y-12831381D01*
X16292559Y-12793286D01*
X16292559Y-12745667D01*
X16302083Y-12707571D01*
X16311607Y-12688524D01*
X16321130Y-12679000D01*
X16340178Y-12669476D01*
X16483035Y-12688524D02*
X16492559Y-12679000D01*
X16511607Y-12669476D01*
X16559226Y-12669476D01*
X16578273Y-12679000D01*
X16587797Y-12688524D01*
X16597321Y-12707571D01*
X16597321Y-12726619D01*
X16587797Y-12755190D01*
X16473511Y-12869476D01*
X16597321Y-12869476D01*
X16663988Y-12669476D02*
X16787797Y-12669476D01*
X16721130Y-12745667D01*
X16749702Y-12745667D01*
X16768749Y-12755190D01*
X16778273Y-12764714D01*
X16787797Y-12783762D01*
X16787797Y-12831381D01*
X16778273Y-12850428D01*
X16768749Y-12859952D01*
X16749702Y-12869476D01*
X16692559Y-12869476D01*
X16673511Y-12859952D01*
X16663988Y-12850428D01*
X16959226Y-12669476D02*
X16921130Y-12669476D01*
X16902083Y-12679000D01*
X16892559Y-12688524D01*
X16873511Y-12717095D01*
X16863988Y-12755190D01*
X16863988Y-12831381D01*
X16873511Y-12850428D01*
X16883035Y-12859952D01*
X16902083Y-12869476D01*
X16940178Y-12869476D01*
X16959226Y-12859952D01*
X16968750Y-12850428D01*
X16978273Y-12831381D01*
X16978273Y-12783762D01*
X16968750Y-12764714D01*
X16959226Y-12755190D01*
X16940178Y-12745667D01*
X16902083Y-12745667D01*
X16883035Y-12755190D01*
X16873511Y-12764714D01*
X16863988Y-12783762D01*
X17054464Y-12669476D02*
X17054464Y-12707571D01*
X17130654Y-12669476D02*
X17130654Y-12707571D01*
X17425892Y-12945667D02*
X17416369Y-12936143D01*
X17397321Y-12907571D01*
X17387797Y-12888524D01*
X17378273Y-12859952D01*
X17368750Y-12812333D01*
X17368750Y-12774238D01*
X17378273Y-12726619D01*
X17387797Y-12698048D01*
X17397321Y-12679000D01*
X17416369Y-12650428D01*
X17425892Y-12640905D01*
X17540178Y-12669476D02*
X17559226Y-12669476D01*
X17578273Y-12679000D01*
X17587797Y-12688524D01*
X17597321Y-12707571D01*
X17606845Y-12745667D01*
X17606845Y-12793286D01*
X17597321Y-12831381D01*
X17587797Y-12850428D01*
X17578273Y-12859952D01*
X17559226Y-12869476D01*
X17540178Y-12869476D01*
X17521130Y-12859952D01*
X17511607Y-12850428D01*
X17502083Y-12831381D01*
X17492559Y-12793286D01*
X17492559Y-12745667D01*
X17502083Y-12707571D01*
X17511607Y-12688524D01*
X17521130Y-12679000D01*
X17540178Y-12669476D01*
X17844940Y-12869476D02*
X17844940Y-12669476D01*
X17930654Y-12869476D02*
X17930654Y-12764714D01*
X17921130Y-12745667D01*
X17902083Y-12736143D01*
X17873511Y-12736143D01*
X17854464Y-12745667D01*
X17844940Y-12755190D01*
X18054464Y-12869476D02*
X18035416Y-12859952D01*
X18025892Y-12850428D01*
X18016369Y-12831381D01*
X18016369Y-12774238D01*
X18025892Y-12755190D01*
X18035416Y-12745667D01*
X18054464Y-12736143D01*
X18083035Y-12736143D01*
X18102083Y-12745667D01*
X18111607Y-12755190D01*
X18121130Y-12774238D01*
X18121130Y-12831381D01*
X18111607Y-12850428D01*
X18102083Y-12859952D01*
X18083035Y-12869476D01*
X18054464Y-12869476D01*
X18235416Y-12869476D02*
X18216369Y-12859952D01*
X18206845Y-12840905D01*
X18206845Y-12669476D01*
X18387797Y-12859952D02*
X18368750Y-12869476D01*
X18330654Y-12869476D01*
X18311607Y-12859952D01*
X18302083Y-12840905D01*
X18302083Y-12764714D01*
X18311607Y-12745667D01*
X18330654Y-12736143D01*
X18368750Y-12736143D01*
X18387797Y-12745667D01*
X18397321Y-12764714D01*
X18397321Y-12783762D01*
X18302083Y-12802809D01*
X18473511Y-12859952D02*
X18492559Y-12869476D01*
X18530654Y-12869476D01*
X18549702Y-12859952D01*
X18559226Y-12840905D01*
X18559226Y-12831381D01*
X18549702Y-12812333D01*
X18530654Y-12802809D01*
X18502083Y-12802809D01*
X18483035Y-12793286D01*
X18473511Y-12774238D01*
X18473511Y-12764714D01*
X18483035Y-12745667D01*
X18502083Y-12736143D01*
X18530654Y-12736143D01*
X18549702Y-12745667D01*
X18797321Y-12793286D02*
X18949702Y-12793286D01*
X18873511Y-12869476D02*
X18873511Y-12717095D01*
X19283035Y-12736143D02*
X19283035Y-12869476D01*
X19235416Y-12659952D02*
X19187797Y-12802809D01*
X19311607Y-12802809D01*
X19530654Y-12859952D02*
X19549702Y-12869476D01*
X19587797Y-12869476D01*
X19606845Y-12859952D01*
X19616369Y-12840905D01*
X19616369Y-12831381D01*
X19606845Y-12812333D01*
X19587797Y-12802809D01*
X19559226Y-12802809D01*
X19540178Y-12793286D01*
X19530654Y-12774238D01*
X19530654Y-12764714D01*
X19540178Y-12745667D01*
X19559226Y-12736143D01*
X19587797Y-12736143D01*
X19606845Y-12745667D01*
X19730654Y-12869476D02*
X19711607Y-12859952D01*
X19702083Y-12840905D01*
X19702083Y-12669476D01*
X19835416Y-12869476D02*
X19816369Y-12859952D01*
X19806845Y-12850428D01*
X19797321Y-12831381D01*
X19797321Y-12774238D01*
X19806845Y-12755190D01*
X19816369Y-12745667D01*
X19835416Y-12736143D01*
X19863988Y-12736143D01*
X19883035Y-12745667D01*
X19892559Y-12755190D01*
X19902083Y-12774238D01*
X19902083Y-12831381D01*
X19892559Y-12850428D01*
X19883035Y-12859952D01*
X19863988Y-12869476D01*
X19835416Y-12869476D01*
X19959226Y-12736143D02*
X20035416Y-12736143D01*
X19987797Y-12669476D02*
X19987797Y-12840905D01*
X19997321Y-12859952D01*
X20016369Y-12869476D01*
X20035416Y-12869476D01*
X20092559Y-12859952D02*
X20111607Y-12869476D01*
X20149702Y-12869476D01*
X20168750Y-12859952D01*
X20178273Y-12840905D01*
X20178273Y-12831381D01*
X20168750Y-12812333D01*
X20149702Y-12802809D01*
X20121130Y-12802809D01*
X20102083Y-12793286D01*
X20092559Y-12774238D01*
X20092559Y-12764714D01*
X20102083Y-12745667D01*
X20121130Y-12736143D01*
X20149702Y-12736143D01*
X20168750Y-12745667D01*
X20244940Y-12945667D02*
X20254464Y-12936143D01*
X20273511Y-12907571D01*
X20283035Y-12888524D01*
X20292559Y-12859952D01*
X20302083Y-12812333D01*
X20302083Y-12774238D01*
X20292559Y-12726619D01*
X20283035Y-12698048D01*
X20273511Y-12679000D01*
X20254464Y-12650428D01*
X20244940Y-12640905D01*
M02*
