M48
; DRILL file {KiCad (6.0.4)} date Thu Jan 26 18:29:05 2023
; FORMAT={-:-/ absolute / metric / decimal}
; #@! TF.CreationDate,2023-01-26T18:29:05+01:00
; #@! TF.GenerationSoftware,Kicad,Pcbnew,(6.0.4)
; #@! TF.FileFunction,Plated,1,2,PTH
FMAT,2
METRIC
; #@! TA.AperFunction,Plated,PTH,ViaDrill
T1C0.300
; #@! TA.AperFunction,Plated,PTH,ComponentDrill
T2C0.600
%
G90
G05
T1
X141.605Y-98.552
X141.859Y-95.123
X143.129Y-86.868
X143.51Y-84.201
X143.764Y-111.379
X144.272Y-83.439
X144.374Y-102.21
X144.399Y-111.379
X144.526Y-109.728
X145.542Y-96.266
X145.796Y-107.315
X146.05Y-88.9
X146.685Y-102.108
X147.371Y-110.744
X147.574Y-106.934
X147.955Y-103.378
X147.955Y-104.648
X148.184Y-110.744
X148.336Y-96.139
X148.336Y-100.711
X148.996Y-110.744
X149.225Y-103.378
X149.225Y-104.648
X149.809Y-110.744
X151.384Y-107.315
X152.146Y-108.331
X152.781Y-111.379
X153.289Y-83.82
X153.416Y-106.934
X153.416Y-111.379
X154.178Y-98.171
X154.559Y-107.315
X155.321Y-101.473
X155.321Y-103.378
X155.575Y-91.694
X155.575Y-107.442
X155.575Y-112.649
X155.829Y-94.996
X157.353Y-93.98
X157.353Y-97.155
T2
X144.27Y-112.87G85X144.27Y-113.97
G05
X144.27Y-117.3G85X144.27Y-117.9
G05
X152.91Y-112.87G85X152.91Y-113.97
G05
X152.91Y-117.3G85X152.91Y-117.9
G05
T0
M30
