%TF.GenerationSoftware,KiCad,Pcbnew,(6.0.4)*%
%TF.CreationDate,2023-01-26T18:28:49+01:00*%
%TF.ProjectId,hair-01,68616972-2d30-4312-9e6b-696361645f70,rev?*%
%TF.SameCoordinates,Original*%
%TF.FileFunction,Legend,Top*%
%TF.FilePolarity,Positive*%
%FSLAX46Y46*%
G04 Gerber Fmt 4.6, Leading zero omitted, Abs format (unit mm)*
G04 Created by KiCad (PCBNEW (6.0.4)) date 2023-01-26 18:28:49*
%MOMM*%
%LPD*%
G01*
G04 APERTURE LIST*
G04 Aperture macros list*
%AMRoundRect*
0 Rectangle with rounded corners*
0 $1 Rounding radius*
0 $2 $3 $4 $5 $6 $7 $8 $9 X,Y pos of 4 corners*
0 Add a 4 corners polygon primitive as box body*
4,1,4,$2,$3,$4,$5,$6,$7,$8,$9,$2,$3,0*
0 Add four circle primitives for the rounded corners*
1,1,$1+$1,$2,$3*
1,1,$1+$1,$4,$5*
1,1,$1+$1,$6,$7*
1,1,$1+$1,$8,$9*
0 Add four rect primitives between the rounded corners*
20,1,$1+$1,$2,$3,$4,$5,0*
20,1,$1+$1,$4,$5,$6,$7,0*
20,1,$1+$1,$6,$7,$8,$9,0*
20,1,$1+$1,$8,$9,$2,$3,0*%
G04 Aperture macros list end*
%ADD10C,0.120000*%
%ADD11RoundRect,0.375000X0.925000X-0.375000X0.925000X0.375000X-0.925000X0.375000X-0.925000X-0.375000X0*%
%ADD12RoundRect,0.200000X-0.200000X-0.275000X0.200000X-0.275000X0.200000X0.275000X-0.200000X0.275000X0*%
%ADD13RoundRect,0.200000X0.200000X0.275000X-0.200000X0.275000X-0.200000X-0.275000X0.200000X-0.275000X0*%
%ADD14RoundRect,0.218750X0.256250X-0.218750X0.256250X0.218750X-0.256250X0.218750X-0.256250X-0.218750X0*%
%ADD15RoundRect,0.425000X-0.425000X-2.625000X0.425000X-2.625000X0.425000X2.625000X-0.425000X2.625000X0*%
%ADD16RoundRect,0.150000X0.150000X-0.587500X0.150000X0.587500X-0.150000X0.587500X-0.150000X-0.587500X0*%
%ADD17RoundRect,0.200000X-0.275000X0.200000X-0.275000X-0.200000X0.275000X-0.200000X0.275000X0.200000X0*%
%ADD18C,0.650000*%
%ADD19R,0.600000X1.450000*%
%ADD20R,0.300000X1.450000*%
%ADD21O,1.000000X1.600000*%
%ADD22O,1.000000X2.100000*%
%ADD23RoundRect,0.250000X-0.650000X0.325000X-0.650000X-0.325000X0.650000X-0.325000X0.650000X0.325000X0*%
%ADD24RoundRect,0.150000X-0.150000X0.587500X-0.150000X-0.587500X0.150000X-0.587500X0.150000X0.587500X0*%
%ADD25RoundRect,0.250000X-0.325000X-0.650000X0.325000X-0.650000X0.325000X0.650000X-0.325000X0.650000X0*%
%ADD26RoundRect,0.150000X0.150000X-0.512500X0.150000X0.512500X-0.150000X0.512500X-0.150000X-0.512500X0*%
%ADD27RoundRect,0.225000X-0.250000X0.225000X-0.250000X-0.225000X0.250000X-0.225000X0.250000X0.225000X0*%
%ADD28RoundRect,0.218750X-0.218750X-0.256250X0.218750X-0.256250X0.218750X0.256250X-0.218750X0.256250X0*%
%ADD29RoundRect,0.218750X0.218750X0.256250X-0.218750X0.256250X-0.218750X-0.256250X0.218750X-0.256250X0*%
%ADD30RoundRect,0.225000X-0.225000X-0.250000X0.225000X-0.250000X0.225000X0.250000X-0.225000X0.250000X0*%
%ADD31RoundRect,0.200000X0.800000X-0.200000X0.800000X0.200000X-0.800000X0.200000X-0.800000X-0.200000X0*%
%ADD32RoundRect,0.250000X-0.312500X-0.625000X0.312500X-0.625000X0.312500X0.625000X-0.312500X0.625000X0*%
%ADD33RoundRect,0.250000X0.325000X0.650000X-0.325000X0.650000X-0.325000X-0.650000X0.325000X-0.650000X0*%
%ADD34RoundRect,0.062500X0.062500X-0.350000X0.062500X0.350000X-0.062500X0.350000X-0.062500X-0.350000X0*%
%ADD35RoundRect,0.062500X0.350000X-0.062500X0.350000X0.062500X-0.350000X0.062500X-0.350000X-0.062500X0*%
%ADD36R,2.600000X2.600000*%
%ADD37RoundRect,0.375000X-0.925000X0.375000X-0.925000X-0.375000X0.925000X-0.375000X0.925000X0.375000X0*%
%ADD38RoundRect,0.200000X0.275000X-0.200000X0.275000X0.200000X-0.275000X0.200000X-0.275000X-0.200000X0*%
G04 APERTURE END LIST*
D10*
X157140000Y-86700000D02*
X157140000Y-82600000D01*
X154040000Y-86700000D02*
X154040000Y-82600000D01*
X154040000Y-86700000D02*
X157140000Y-86700000D01*
X141621742Y-96886500D02*
X142096258Y-96886500D01*
X141621742Y-97931500D02*
X142096258Y-97931500D01*
X150257742Y-109205500D02*
X150732258Y-109205500D01*
X150257742Y-110250500D02*
X150732258Y-110250500D01*
X150859258Y-97648500D02*
X150384742Y-97648500D01*
X150859258Y-98693500D02*
X150384742Y-98693500D01*
X152046000Y-108928000D02*
X152046000Y-111213000D01*
X152046000Y-111213000D02*
X153516000Y-111213000D01*
X153516000Y-111213000D02*
X153516000Y-108928000D01*
X145590000Y-80475000D02*
X145590000Y-88175000D01*
X144900000Y-88175000D02*
X144900000Y-91525000D01*
X145590000Y-88175000D02*
X144900000Y-88175000D01*
X151590000Y-80475000D02*
X151590000Y-88175000D01*
X157150000Y-91186000D02*
X157150000Y-90536000D01*
X157150000Y-91186000D02*
X157150000Y-91836000D01*
X154030000Y-91186000D02*
X154030000Y-90536000D01*
X154030000Y-91186000D02*
X154030000Y-92861000D01*
X143876500Y-103521742D02*
X143876500Y-103996258D01*
X144921500Y-103521742D02*
X144921500Y-103996258D01*
X143890000Y-114650000D02*
X143890000Y-116650000D01*
X143890000Y-120450000D02*
X153290000Y-120450000D01*
X153290000Y-118550000D02*
X153290000Y-120450000D01*
X153290000Y-114650000D02*
X153290000Y-116650000D01*
X143890000Y-118550000D02*
X143890000Y-120450000D01*
X156485000Y-111429748D02*
X156485000Y-112852252D01*
X154665000Y-111429748D02*
X154665000Y-112852252D01*
X141823000Y-107315000D02*
X141823000Y-107965000D01*
X141823000Y-107315000D02*
X141823000Y-106665000D01*
X144943000Y-107315000D02*
X144943000Y-105640000D01*
X144943000Y-107315000D02*
X144943000Y-107965000D01*
X154101748Y-104796000D02*
X155524252Y-104796000D01*
X154101748Y-102976000D02*
X155524252Y-102976000D01*
X146922258Y-110250500D02*
X146447742Y-110250500D01*
X146922258Y-109205500D02*
X146447742Y-109205500D01*
X157135000Y-107442000D02*
X157135000Y-108242000D01*
X154015000Y-107442000D02*
X154015000Y-109242000D01*
X157135000Y-107442000D02*
X157135000Y-106642000D01*
X154015000Y-107442000D02*
X154015000Y-106642000D01*
X141621742Y-95362500D02*
X142096258Y-95362500D01*
X141621742Y-96407500D02*
X142096258Y-96407500D01*
X153291000Y-106539420D02*
X153291000Y-106820580D01*
X152271000Y-106539420D02*
X152271000Y-106820580D01*
X141823000Y-100203000D02*
X141823000Y-101878000D01*
X141823000Y-100203000D02*
X141823000Y-99553000D01*
X144943000Y-100203000D02*
X144943000Y-99553000D01*
X144943000Y-100203000D02*
X144943000Y-100853000D01*
X150914000Y-107469000D02*
X148629000Y-107469000D01*
X148629000Y-108939000D02*
X150914000Y-108939000D01*
X148629000Y-107469000D02*
X148629000Y-108939000D01*
X146266000Y-108939000D02*
X148551000Y-108939000D01*
X148551000Y-108939000D02*
X148551000Y-107469000D01*
X148551000Y-107469000D02*
X146266000Y-107469000D01*
X147336742Y-100344500D02*
X147811258Y-100344500D01*
X147336742Y-99299500D02*
X147811258Y-99299500D01*
X156069420Y-95629000D02*
X156350580Y-95629000D01*
X156069420Y-96649000D02*
X156350580Y-96649000D01*
X140020000Y-94270000D02*
X140020000Y-90130000D01*
X140020000Y-90130000D02*
X140320000Y-90130000D01*
X142860000Y-90130000D02*
X143160000Y-90130000D01*
X143160000Y-90130000D02*
X143160000Y-94270000D01*
X140320000Y-94270000D02*
X140020000Y-94270000D01*
X143160000Y-94270000D02*
X142860000Y-94270000D01*
X147862936Y-77830000D02*
X149317064Y-77830000D01*
X147862936Y-79650000D02*
X149317064Y-79650000D01*
X153399258Y-96661500D02*
X152924742Y-96661500D01*
X153399258Y-95616500D02*
X152924742Y-95616500D01*
X155397252Y-97261000D02*
X153974748Y-97261000D01*
X155397252Y-99081000D02*
X153974748Y-99081000D01*
X146480000Y-101903000D02*
X146955000Y-101903000D01*
X146480000Y-102378000D02*
X146480000Y-101903000D01*
X150700000Y-101903000D02*
X150225000Y-101903000D01*
X150700000Y-105648000D02*
X150700000Y-106123000D01*
X146480000Y-105648000D02*
X146480000Y-106123000D01*
X150700000Y-106123000D02*
X150225000Y-106123000D01*
X150700000Y-102378000D02*
X150700000Y-101903000D01*
X155337742Y-114793500D02*
X155812258Y-114793500D01*
X155337742Y-115838500D02*
X155812258Y-115838500D01*
X150859258Y-100344500D02*
X150384742Y-100344500D01*
X150859258Y-99299500D02*
X150384742Y-99299500D01*
X147811258Y-97648500D02*
X147336742Y-97648500D01*
X147811258Y-98693500D02*
X147336742Y-98693500D01*
X154101748Y-102383000D02*
X155524252Y-102383000D01*
X154101748Y-100563000D02*
X155524252Y-100563000D01*
X155337742Y-94502500D02*
X155812258Y-94502500D01*
X155337742Y-93457500D02*
X155812258Y-93457500D01*
X140040000Y-81700000D02*
X140040000Y-85800000D01*
X143140000Y-81700000D02*
X143140000Y-85800000D01*
X143140000Y-81700000D02*
X140040000Y-81700000D01*
X142098500Y-103996258D02*
X142098500Y-103521742D01*
X143143500Y-103996258D02*
X143143500Y-103521742D01*
X149555252Y-95229000D02*
X148132748Y-95229000D01*
X149555252Y-97049000D02*
X148132748Y-97049000D01*
%LPC*%
D11*
X155590000Y-85700000D03*
X155590000Y-82700000D03*
D12*
X141034000Y-97409000D03*
X142684000Y-97409000D03*
X149670000Y-109728000D03*
X151320000Y-109728000D03*
D13*
X151447000Y-98171000D03*
X149797000Y-98171000D03*
D14*
X152781000Y-110515500D03*
X152781000Y-108940500D03*
D15*
X146050000Y-91525000D03*
X148590000Y-91525000D03*
X151130000Y-91525000D03*
D16*
X154640000Y-92123500D03*
X156540000Y-92123500D03*
X155590000Y-90248500D03*
D17*
X144399000Y-102934000D03*
X144399000Y-104584000D03*
D18*
X151480000Y-113950000D03*
X145700000Y-113950000D03*
D19*
X145340000Y-112505000D03*
X146140000Y-112505000D03*
D20*
X147340000Y-112505000D03*
X148340000Y-112505000D03*
X148840000Y-112505000D03*
X149840000Y-112505000D03*
D19*
X151040000Y-112505000D03*
X151840000Y-112505000D03*
X151840000Y-112505000D03*
X151040000Y-112505000D03*
D20*
X150340000Y-112505000D03*
X149340000Y-112505000D03*
X147840000Y-112505000D03*
X146840000Y-112505000D03*
D19*
X146140000Y-112505000D03*
X145340000Y-112505000D03*
D21*
X152910000Y-117600000D03*
X144270000Y-117600000D03*
D22*
X144270000Y-113420000D03*
X152910000Y-113420000D03*
D23*
X155575000Y-110666000D03*
X155575000Y-113616000D03*
D24*
X144333000Y-106377500D03*
X142433000Y-106377500D03*
X143383000Y-108252500D03*
D25*
X153338000Y-103886000D03*
X156288000Y-103886000D03*
D13*
X147510000Y-109728000D03*
X145860000Y-109728000D03*
D26*
X154625000Y-108579500D03*
X155575000Y-108579500D03*
X156525000Y-108579500D03*
X156525000Y-106304500D03*
X154625000Y-106304500D03*
D12*
X141034000Y-95885000D03*
X142684000Y-95885000D03*
D27*
X152781000Y-105905000D03*
X152781000Y-107455000D03*
D16*
X142433000Y-101140500D03*
X144333000Y-101140500D03*
X143383000Y-99265500D03*
D28*
X149326500Y-108204000D03*
X150901500Y-108204000D03*
D29*
X147853500Y-108204000D03*
X146278500Y-108204000D03*
D12*
X146749000Y-99822000D03*
X148399000Y-99822000D03*
D30*
X155435000Y-96139000D03*
X156985000Y-96139000D03*
D31*
X141590000Y-94300000D03*
X141590000Y-90100000D03*
D32*
X147127500Y-78740000D03*
X150052500Y-78740000D03*
D13*
X153987000Y-96139000D03*
X152337000Y-96139000D03*
D33*
X156161000Y-98171000D03*
X153211000Y-98171000D03*
D34*
X147340000Y-105950500D03*
X147840000Y-105950500D03*
X148340000Y-105950500D03*
X148840000Y-105950500D03*
X149340000Y-105950500D03*
X149840000Y-105950500D03*
D35*
X150527500Y-105263000D03*
X150527500Y-104763000D03*
X150527500Y-104263000D03*
X150527500Y-103763000D03*
X150527500Y-103263000D03*
X150527500Y-102763000D03*
D34*
X149840000Y-102075500D03*
X149340000Y-102075500D03*
X148840000Y-102075500D03*
X148340000Y-102075500D03*
X147840000Y-102075500D03*
X147340000Y-102075500D03*
D35*
X146652500Y-102763000D03*
X146652500Y-103263000D03*
X146652500Y-103763000D03*
X146652500Y-104263000D03*
X146652500Y-104763000D03*
X146652500Y-105263000D03*
D36*
X148590000Y-104013000D03*
D12*
X154750000Y-115316000D03*
X156400000Y-115316000D03*
D13*
X151447000Y-99822000D03*
X149797000Y-99822000D03*
X148399000Y-98171000D03*
X146749000Y-98171000D03*
D25*
X153338000Y-101473000D03*
X156288000Y-101473000D03*
D12*
X154750000Y-93980000D03*
X156400000Y-93980000D03*
D37*
X141590000Y-82700000D03*
X141590000Y-85700000D03*
D38*
X142621000Y-104584000D03*
X142621000Y-102934000D03*
D33*
X150319000Y-96139000D03*
X147369000Y-96139000D03*
M02*
