%TF.GenerationSoftware,KiCad,Pcbnew,(6.0.4)*%
%TF.CreationDate,2023-01-26T18:28:49+01:00*%
%TF.ProjectId,hair-01,68616972-2d30-4312-9e6b-696361645f70,rev?*%
%TF.SameCoordinates,Original*%
%TF.FileFunction,Legend,Bot*%
%TF.FilePolarity,Positive*%
%FSLAX46Y46*%
G04 Gerber Fmt 4.6, Leading zero omitted, Abs format (unit mm)*
G04 Created by KiCad (PCBNEW (6.0.4)) date 2023-01-26 18:28:49*
%MOMM*%
%LPD*%
G01*
G04 APERTURE LIST*
%ADD10C,0.150000*%
%ADD11C,0.120000*%
%ADD12C,0.650000*%
%ADD13O,1.000000X1.600000*%
%ADD14O,1.000000X2.100000*%
%ADD15R,2.500000X1.000000*%
%ADD16R,1.000000X1.800000*%
G04 APERTURE END LIST*
D10*
X146295714Y-104422380D02*
X146295714Y-103422380D01*
X145867142Y-104422380D02*
X145867142Y-103898571D01*
X145914761Y-103803333D01*
X146010000Y-103755714D01*
X146152857Y-103755714D01*
X146248095Y-103803333D01*
X146295714Y-103850952D01*
X144962380Y-104422380D02*
X144962380Y-103898571D01*
X145010000Y-103803333D01*
X145105238Y-103755714D01*
X145295714Y-103755714D01*
X145390952Y-103803333D01*
X144962380Y-104374761D02*
X145057619Y-104422380D01*
X145295714Y-104422380D01*
X145390952Y-104374761D01*
X145438571Y-104279523D01*
X145438571Y-104184285D01*
X145390952Y-104089047D01*
X145295714Y-104041428D01*
X145057619Y-104041428D01*
X144962380Y-103993809D01*
X144486190Y-104422380D02*
X144486190Y-103755714D01*
X144486190Y-103422380D02*
X144533809Y-103470000D01*
X144486190Y-103517619D01*
X144438571Y-103470000D01*
X144486190Y-103422380D01*
X144486190Y-103517619D01*
X144010000Y-104422380D02*
X144010000Y-103755714D01*
X144010000Y-103946190D02*
X143962380Y-103850952D01*
X143914761Y-103803333D01*
X143819523Y-103755714D01*
X143724285Y-103755714D01*
X143390952Y-104041428D02*
X142629047Y-104041428D01*
X141962380Y-103422380D02*
X141867142Y-103422380D01*
X141771904Y-103470000D01*
X141724285Y-103517619D01*
X141676666Y-103612857D01*
X141629047Y-103803333D01*
X141629047Y-104041428D01*
X141676666Y-104231904D01*
X141724285Y-104327142D01*
X141771904Y-104374761D01*
X141867142Y-104422380D01*
X141962380Y-104422380D01*
X142057619Y-104374761D01*
X142105238Y-104327142D01*
X142152857Y-104231904D01*
X142200476Y-104041428D01*
X142200476Y-103803333D01*
X142152857Y-103612857D01*
X142105238Y-103517619D01*
X142057619Y-103470000D01*
X141962380Y-103422380D01*
X140676666Y-104422380D02*
X141248095Y-104422380D01*
X140962380Y-104422380D02*
X140962380Y-103422380D01*
X141057619Y-103565238D01*
X141152857Y-103660476D01*
X141248095Y-103708095D01*
X146343333Y-106032380D02*
X146343333Y-105365714D01*
X146343333Y-105032380D02*
X146390952Y-105080000D01*
X146343333Y-105127619D01*
X146295714Y-105080000D01*
X146343333Y-105032380D01*
X146343333Y-105127619D01*
X145438571Y-105984761D02*
X145533809Y-106032380D01*
X145724285Y-106032380D01*
X145819523Y-105984761D01*
X145867142Y-105937142D01*
X145914761Y-105841904D01*
X145914761Y-105556190D01*
X145867142Y-105460952D01*
X145819523Y-105413333D01*
X145724285Y-105365714D01*
X145533809Y-105365714D01*
X145438571Y-105413333D01*
X145010000Y-106032380D02*
X145010000Y-105032380D01*
X144914761Y-105651428D02*
X144629047Y-106032380D01*
X144629047Y-105365714D02*
X145010000Y-105746666D01*
X143819523Y-105984761D02*
X143914761Y-106032380D01*
X144105238Y-106032380D01*
X144200476Y-105984761D01*
X144248095Y-105889523D01*
X144248095Y-105508571D01*
X144200476Y-105413333D01*
X144105238Y-105365714D01*
X143914761Y-105365714D01*
X143819523Y-105413333D01*
X143771904Y-105508571D01*
X143771904Y-105603809D01*
X144248095Y-105699047D01*
X143343333Y-105365714D02*
X143343333Y-106032380D01*
X143343333Y-105460952D02*
X143295714Y-105413333D01*
X143200476Y-105365714D01*
X143057619Y-105365714D01*
X142962380Y-105413333D01*
X142914761Y-105508571D01*
X142914761Y-106032380D01*
X142438571Y-105937142D02*
X142390952Y-105984761D01*
X142438571Y-106032380D01*
X142486190Y-105984761D01*
X142438571Y-105937142D01*
X142438571Y-106032380D01*
X141533809Y-105984761D02*
X141629047Y-106032380D01*
X141819523Y-106032380D01*
X141914761Y-105984761D01*
X141962380Y-105937142D01*
X142010000Y-105841904D01*
X142010000Y-105556190D01*
X141962380Y-105460952D01*
X141914761Y-105413333D01*
X141819523Y-105365714D01*
X141629047Y-105365714D01*
X141533809Y-105413333D01*
X141105238Y-106032380D02*
X141105238Y-105032380D01*
X140676666Y-106032380D02*
X140676666Y-105508571D01*
X140724285Y-105413333D01*
X140819523Y-105365714D01*
X140962380Y-105365714D01*
X141057619Y-105413333D01*
X141105238Y-105460952D01*
D11*
X156710000Y-94320000D02*
X156710000Y-93700000D01*
X156710000Y-77700000D02*
X157320000Y-77700000D01*
X154590000Y-94320000D02*
X156710000Y-94320000D01*
X156710000Y-77700000D02*
X156710000Y-70080000D01*
X140470000Y-93700000D02*
X140470000Y-94320000D01*
X140470000Y-70080000D02*
X140470000Y-77700000D01*
X140470000Y-94320000D02*
X142590000Y-94320000D01*
X156710000Y-70080000D02*
X140470000Y-70080000D01*
G36*
X153257835Y-101982548D02*
G01*
X153360251Y-101982556D01*
X153364268Y-101982556D01*
X153464785Y-101982560D01*
X153555811Y-101982578D01*
X153637839Y-101982614D01*
X153711362Y-101982674D01*
X153776871Y-101982765D01*
X153834860Y-101982892D01*
X153885821Y-101983061D01*
X153930247Y-101983278D01*
X153968630Y-101983549D01*
X154001464Y-101983879D01*
X154029239Y-101984275D01*
X154052450Y-101984742D01*
X154071588Y-101985286D01*
X154087146Y-101985914D01*
X154099617Y-101986630D01*
X154109493Y-101987441D01*
X154117268Y-101988353D01*
X154123432Y-101989371D01*
X154128480Y-101990502D01*
X154132903Y-101991751D01*
X154177761Y-102009428D01*
X154222801Y-102036627D01*
X154261588Y-102070855D01*
X154293371Y-102111301D01*
X154317399Y-102157153D01*
X154332920Y-102207600D01*
X154337478Y-102232544D01*
X154339829Y-102259802D01*
X154338309Y-102286537D01*
X154332920Y-102317622D01*
X154318717Y-102364668D01*
X154295236Y-102410795D01*
X154264022Y-102451672D01*
X154225927Y-102486383D01*
X154181801Y-102514010D01*
X154132495Y-102533636D01*
X154131542Y-102533914D01*
X154126339Y-102535229D01*
X154120080Y-102536407D01*
X154112204Y-102537457D01*
X154102153Y-102538387D01*
X154089367Y-102539209D01*
X154073287Y-102539931D01*
X154053355Y-102540562D01*
X154029011Y-102541112D01*
X153999697Y-102541591D01*
X153964853Y-102542007D01*
X153923920Y-102542371D01*
X153876340Y-102542691D01*
X153821552Y-102542977D01*
X153758999Y-102543239D01*
X153688121Y-102543485D01*
X153608359Y-102543726D01*
X153519155Y-102543971D01*
X152935412Y-102545520D01*
X152934010Y-103506782D01*
X152933858Y-103609816D01*
X152933691Y-103716666D01*
X152933526Y-103814322D01*
X152933357Y-103903211D01*
X152933181Y-103983762D01*
X152932992Y-104056403D01*
X152932785Y-104121562D01*
X152932557Y-104179665D01*
X152932303Y-104231141D01*
X152932018Y-104276418D01*
X152931697Y-104315924D01*
X152931336Y-104350086D01*
X152930930Y-104379333D01*
X152930476Y-104404092D01*
X152929967Y-104424790D01*
X152929400Y-104441856D01*
X152928770Y-104455718D01*
X152928072Y-104466803D01*
X152927302Y-104475539D01*
X152926455Y-104482354D01*
X152925527Y-104487675D01*
X152924513Y-104491932D01*
X152923409Y-104495550D01*
X152907069Y-104535496D01*
X152879582Y-104581299D01*
X152845368Y-104620646D01*
X152805204Y-104652821D01*
X152759864Y-104677107D01*
X152710123Y-104692789D01*
X152699810Y-104694887D01*
X152665616Y-104699363D01*
X152633296Y-104698751D01*
X152597600Y-104693067D01*
X152597047Y-104692951D01*
X152546889Y-104677377D01*
X152501159Y-104653320D01*
X152460800Y-104621667D01*
X152426755Y-104583302D01*
X152399967Y-104539113D01*
X152381380Y-104489985D01*
X152381089Y-104488902D01*
X152380124Y-104484752D01*
X152379234Y-104479718D01*
X152378417Y-104473403D01*
X152377668Y-104465410D01*
X152376987Y-104455344D01*
X152376368Y-104442807D01*
X152375809Y-104427403D01*
X152375308Y-104408737D01*
X152374860Y-104386410D01*
X152374464Y-104360028D01*
X152374115Y-104329194D01*
X152373811Y-104293511D01*
X152373549Y-104252583D01*
X152373326Y-104206013D01*
X152373139Y-104153405D01*
X152372984Y-104094364D01*
X152372859Y-104028491D01*
X152372760Y-103955391D01*
X152372685Y-103874668D01*
X152372631Y-103785924D01*
X152372593Y-103688765D01*
X152372571Y-103582792D01*
X152372559Y-103467611D01*
X152372556Y-103342824D01*
X152372562Y-103239533D01*
X152372585Y-103119454D01*
X152372628Y-103008722D01*
X152372694Y-102906975D01*
X152372785Y-102813850D01*
X152372902Y-102728983D01*
X152373048Y-102652011D01*
X152373225Y-102582572D01*
X152373435Y-102520302D01*
X152373680Y-102464838D01*
X152373963Y-102415817D01*
X152374285Y-102372876D01*
X152374649Y-102335652D01*
X152375058Y-102303782D01*
X152375512Y-102276903D01*
X152376014Y-102254651D01*
X152376567Y-102236664D01*
X152377172Y-102222578D01*
X152377832Y-102212031D01*
X152378548Y-102204658D01*
X152379324Y-102200099D01*
X152380081Y-102197096D01*
X152396585Y-102150745D01*
X152420740Y-102107565D01*
X152451265Y-102069181D01*
X152486880Y-102037221D01*
X152526307Y-102013310D01*
X152532840Y-102010165D01*
X152540614Y-102006358D01*
X152547898Y-102002917D01*
X152555193Y-101999823D01*
X152562999Y-101997058D01*
X152571814Y-101994604D01*
X152582139Y-101992443D01*
X152594472Y-101990555D01*
X152609314Y-101988922D01*
X152627164Y-101987526D01*
X152648522Y-101986349D01*
X152673887Y-101985371D01*
X152703758Y-101984576D01*
X152738636Y-101983943D01*
X152779020Y-101983455D01*
X152825410Y-101983094D01*
X152878304Y-101982841D01*
X152938203Y-101982677D01*
X153005606Y-101982584D01*
X153081013Y-101982544D01*
X153164923Y-101982538D01*
X153257835Y-101982548D01*
G37*
G36*
X152155921Y-98702122D02*
G01*
X152276832Y-98712344D01*
X152279075Y-98712623D01*
X152397527Y-98732443D01*
X152513605Y-98761761D01*
X152626730Y-98800242D01*
X152736318Y-98847548D01*
X152841790Y-98903342D01*
X152942563Y-98967288D01*
X153038058Y-99039048D01*
X153127691Y-99118286D01*
X153210883Y-99204665D01*
X153287052Y-99297848D01*
X153312579Y-99332858D01*
X153378568Y-99434485D01*
X153435683Y-99540007D01*
X153483861Y-99648875D01*
X153523040Y-99760539D01*
X153553154Y-99874451D01*
X153574142Y-99990062D01*
X153585941Y-100106822D01*
X153588486Y-100224183D01*
X153581715Y-100341596D01*
X153565564Y-100458511D01*
X153539970Y-100574380D01*
X153504870Y-100688655D01*
X153460201Y-100800785D01*
X153436341Y-100854257D01*
X153769619Y-100856045D01*
X153802547Y-100856226D01*
X153864834Y-100856604D01*
X153918246Y-100856995D01*
X153963548Y-100857421D01*
X154001506Y-100857905D01*
X154032883Y-100858469D01*
X154058444Y-100859134D01*
X154078954Y-100859923D01*
X154095178Y-100860857D01*
X154107879Y-100861960D01*
X154117823Y-100863251D01*
X154125773Y-100864755D01*
X154132495Y-100866492D01*
X154179093Y-100884629D01*
X154223389Y-100911686D01*
X154261799Y-100945937D01*
X154293445Y-100986434D01*
X154317445Y-101032231D01*
X154332920Y-101082379D01*
X154337478Y-101107322D01*
X154339829Y-101134580D01*
X154338309Y-101161315D01*
X154332920Y-101192400D01*
X154319354Y-101237941D01*
X154296840Y-101283322D01*
X154267181Y-101323469D01*
X154231338Y-101357483D01*
X154190269Y-101384467D01*
X154144935Y-101403524D01*
X154096295Y-101413755D01*
X154094566Y-101413898D01*
X154082406Y-101414362D01*
X154061122Y-101414783D01*
X154031392Y-101415161D01*
X153993895Y-101415491D01*
X153949311Y-101415771D01*
X153898317Y-101415999D01*
X153841595Y-101416171D01*
X153779822Y-101416285D01*
X153713677Y-101416339D01*
X153643840Y-101416330D01*
X153570990Y-101416254D01*
X153495805Y-101416110D01*
X153409640Y-101415892D01*
X153328750Y-101415648D01*
X153256803Y-101415381D01*
X153193257Y-101415081D01*
X153137571Y-101414743D01*
X153089204Y-101414358D01*
X153047613Y-101413919D01*
X153012257Y-101413417D01*
X152982594Y-101412845D01*
X152958084Y-101412195D01*
X152938185Y-101411460D01*
X152922354Y-101410631D01*
X152910051Y-101409701D01*
X152900734Y-101408663D01*
X152893862Y-101407508D01*
X152864218Y-101399606D01*
X152816523Y-101379187D01*
X152773070Y-101350945D01*
X152734680Y-101315974D01*
X152702171Y-101275368D01*
X152676365Y-101230221D01*
X152658079Y-101181627D01*
X152648135Y-101130680D01*
X152647352Y-101078475D01*
X152650463Y-101051405D01*
X152662881Y-100999616D01*
X152683877Y-100951171D01*
X152713921Y-100905100D01*
X152753487Y-100860435D01*
X152757637Y-100856276D01*
X152821187Y-100785305D01*
X152876491Y-100709214D01*
X152923418Y-100628694D01*
X152961841Y-100544438D01*
X152991631Y-100457138D01*
X153012658Y-100367486D01*
X153024794Y-100276172D01*
X153027909Y-100183890D01*
X153021875Y-100091331D01*
X153006564Y-99999186D01*
X152981845Y-99908147D01*
X152947590Y-99818907D01*
X152938756Y-99799596D01*
X152893935Y-99716070D01*
X152840976Y-99637795D01*
X152780508Y-99565341D01*
X152713159Y-99499279D01*
X152639557Y-99440177D01*
X152560329Y-99388608D01*
X152476103Y-99345140D01*
X152387508Y-99310344D01*
X152332714Y-99293870D01*
X152239640Y-99273939D01*
X152145632Y-99263537D01*
X152051468Y-99262576D01*
X151957925Y-99270972D01*
X151865780Y-99288639D01*
X151775811Y-99315491D01*
X151688795Y-99351444D01*
X151605508Y-99396411D01*
X151591194Y-99405307D01*
X151513115Y-99460469D01*
X151441305Y-99522773D01*
X151376312Y-99591526D01*
X151318682Y-99666034D01*
X151268961Y-99745603D01*
X151227695Y-99829539D01*
X151195430Y-99917149D01*
X151177566Y-99982835D01*
X151160157Y-100077861D01*
X151152480Y-100172764D01*
X151154393Y-100266972D01*
X151165759Y-100359914D01*
X151186437Y-100451017D01*
X151216289Y-100539709D01*
X151255175Y-100625419D01*
X151302957Y-100707574D01*
X151359495Y-100785604D01*
X151424649Y-100858935D01*
X151458435Y-100896166D01*
X151485890Y-100933669D01*
X151506204Y-100971579D01*
X151520483Y-101011984D01*
X151529838Y-101056970D01*
X151532067Y-101075379D01*
X151532103Y-101129292D01*
X151522458Y-101181598D01*
X151503348Y-101231671D01*
X151474992Y-101278883D01*
X151437606Y-101322608D01*
X151406352Y-101351139D01*
X151372987Y-101374707D01*
X151337518Y-101392104D01*
X151297073Y-101405012D01*
X151296153Y-101405246D01*
X151290061Y-101406708D01*
X151283603Y-101408014D01*
X151276211Y-101409173D01*
X151267318Y-101410194D01*
X151256358Y-101411085D01*
X151242764Y-101411855D01*
X151225969Y-101412514D01*
X151205407Y-101413071D01*
X151180510Y-101413534D01*
X151150712Y-101413913D01*
X151115447Y-101414216D01*
X151074146Y-101414452D01*
X151026245Y-101414631D01*
X150971175Y-101414761D01*
X150908370Y-101414852D01*
X150837264Y-101414911D01*
X150757289Y-101414950D01*
X150667879Y-101414975D01*
X150643694Y-101414980D01*
X150555585Y-101414982D01*
X150476794Y-101414951D01*
X150406778Y-101414881D01*
X150344992Y-101414765D01*
X150290892Y-101414597D01*
X150243934Y-101414369D01*
X150203575Y-101414076D01*
X150169270Y-101413710D01*
X150140475Y-101413265D01*
X150116647Y-101412734D01*
X150097241Y-101412110D01*
X150081713Y-101411387D01*
X150069520Y-101410559D01*
X150060117Y-101409617D01*
X150052960Y-101408557D01*
X150047506Y-101407371D01*
X150041022Y-101405582D01*
X149994852Y-101387153D01*
X149952864Y-101360430D01*
X149916077Y-101326502D01*
X149885506Y-101286461D01*
X149862168Y-101241397D01*
X149847081Y-101192400D01*
X149842523Y-101167457D01*
X149840172Y-101140199D01*
X149841692Y-101113464D01*
X149847081Y-101082379D01*
X149859126Y-101040772D01*
X149881690Y-100994003D01*
X149912219Y-100952460D01*
X149950012Y-100916904D01*
X149994372Y-100888101D01*
X150044598Y-100866814D01*
X150049465Y-100865356D01*
X150056339Y-100863762D01*
X150064829Y-100862392D01*
X150075698Y-100861223D01*
X150089707Y-100860233D01*
X150107619Y-100859400D01*
X150130197Y-100858699D01*
X150158203Y-100858108D01*
X150192399Y-100857605D01*
X150233547Y-100857168D01*
X150282411Y-100856772D01*
X150339751Y-100856395D01*
X150406331Y-100856015D01*
X150428377Y-100855891D01*
X150494877Y-100855462D01*
X150552066Y-100854991D01*
X150600475Y-100854468D01*
X150640633Y-100853878D01*
X150673071Y-100853210D01*
X150698320Y-100852451D01*
X150716909Y-100851590D01*
X150729369Y-100850613D01*
X150736231Y-100849508D01*
X150738024Y-100848263D01*
X150716382Y-100796510D01*
X150684361Y-100714287D01*
X150657817Y-100637380D01*
X150636381Y-100564132D01*
X150619685Y-100492882D01*
X150607360Y-100421973D01*
X150599039Y-100349747D01*
X150594353Y-100274543D01*
X150592935Y-100194704D01*
X150593092Y-100167858D01*
X150594638Y-100108281D01*
X150598084Y-100054124D01*
X150603746Y-100002219D01*
X150611938Y-99949394D01*
X150622975Y-99892482D01*
X150625950Y-99878601D01*
X150656579Y-99761659D01*
X150696126Y-99648625D01*
X150744194Y-99539911D01*
X150800388Y-99435930D01*
X150864314Y-99337092D01*
X150935577Y-99243809D01*
X151013782Y-99156493D01*
X151098532Y-99075555D01*
X151189435Y-99001407D01*
X151286094Y-98934461D01*
X151388114Y-98875128D01*
X151495101Y-98823820D01*
X151606660Y-98780948D01*
X151722394Y-98746925D01*
X151797824Y-98729922D01*
X151917189Y-98710863D01*
X152036298Y-98701613D01*
X152155921Y-98702122D01*
G37*
G36*
X151161171Y-101982569D02*
G01*
X151230082Y-101982650D01*
X151291395Y-101982799D01*
X151345608Y-101983037D01*
X151393221Y-101983381D01*
X151434733Y-101983852D01*
X151470643Y-101984466D01*
X151501452Y-101985245D01*
X151527657Y-101986205D01*
X151549759Y-101987368D01*
X151568256Y-101988751D01*
X151583649Y-101990373D01*
X151596435Y-101992253D01*
X151607115Y-101994411D01*
X151616187Y-101996865D01*
X151624152Y-101999634D01*
X151631507Y-102002737D01*
X151638754Y-102006193D01*
X151646390Y-102010021D01*
X151654915Y-102014240D01*
X151691848Y-102036462D01*
X151728655Y-102068834D01*
X151759811Y-102107851D01*
X151784193Y-102152083D01*
X151800677Y-102200099D01*
X151801322Y-102203673D01*
X151802048Y-102210526D01*
X151802717Y-102220491D01*
X151803331Y-102233930D01*
X151803892Y-102251205D01*
X151804402Y-102272680D01*
X151804865Y-102298716D01*
X151805280Y-102329677D01*
X151805652Y-102365926D01*
X151805982Y-102407824D01*
X151806271Y-102455735D01*
X151806523Y-102510021D01*
X151806740Y-102571045D01*
X151806922Y-102639170D01*
X151807074Y-102714758D01*
X151807196Y-102798172D01*
X151807291Y-102889774D01*
X151807362Y-102989928D01*
X151807409Y-103098996D01*
X151807436Y-103217340D01*
X151807445Y-103345324D01*
X151807444Y-103442079D01*
X151807436Y-103559426D01*
X151807419Y-103667472D01*
X151807390Y-103766612D01*
X151807345Y-103857244D01*
X151807281Y-103939762D01*
X151807194Y-104014564D01*
X151807083Y-104082046D01*
X151806943Y-104142602D01*
X151806772Y-104196631D01*
X151806566Y-104244527D01*
X151806321Y-104286688D01*
X151806036Y-104323508D01*
X151805707Y-104355385D01*
X151805329Y-104382715D01*
X151804902Y-104405893D01*
X151804420Y-104425316D01*
X151803882Y-104441380D01*
X151803283Y-104454480D01*
X151802621Y-104465015D01*
X151801892Y-104473378D01*
X151801094Y-104479967D01*
X151800223Y-104485178D01*
X151799276Y-104489407D01*
X151798250Y-104493050D01*
X151780880Y-104537174D01*
X151753861Y-104582107D01*
X151719867Y-104620965D01*
X151679784Y-104652919D01*
X151634499Y-104677137D01*
X151584901Y-104692789D01*
X151574589Y-104694887D01*
X151540394Y-104699363D01*
X151508075Y-104698751D01*
X151472379Y-104693067D01*
X151425646Y-104678996D01*
X151379477Y-104655567D01*
X151338556Y-104624382D01*
X151303786Y-104586277D01*
X151276065Y-104542085D01*
X151256293Y-104492643D01*
X151255796Y-104490904D01*
X151254770Y-104486610D01*
X151253829Y-104481310D01*
X151252969Y-104474575D01*
X151252184Y-104465977D01*
X151251472Y-104455087D01*
X151250827Y-104441478D01*
X151250244Y-104424720D01*
X151249721Y-104404386D01*
X151249251Y-104380047D01*
X151248830Y-104351274D01*
X151248455Y-104317640D01*
X151248120Y-104278715D01*
X151247821Y-104234073D01*
X151247554Y-104183283D01*
X151247314Y-104125919D01*
X151247097Y-104061551D01*
X151246898Y-103989751D01*
X151246713Y-103910091D01*
X151246538Y-103822142D01*
X151246368Y-103725477D01*
X151246198Y-103619666D01*
X151246024Y-103504282D01*
X151244612Y-102545520D01*
X150660858Y-102543971D01*
X150642392Y-102543922D01*
X150555103Y-102543679D01*
X150477146Y-102543437D01*
X150407963Y-102543188D01*
X150346993Y-102542923D01*
X150293678Y-102542630D01*
X150247460Y-102542302D01*
X150207778Y-102541929D01*
X150174074Y-102541501D01*
X150145789Y-102541009D01*
X150122364Y-102540444D01*
X150103240Y-102539795D01*
X150087857Y-102539054D01*
X150075657Y-102538212D01*
X150066081Y-102537258D01*
X150058570Y-102536184D01*
X150052565Y-102534980D01*
X150047506Y-102533636D01*
X150016104Y-102522262D01*
X149971332Y-102498334D01*
X149931515Y-102467510D01*
X149898162Y-102431030D01*
X149872783Y-102390136D01*
X149861584Y-102364066D01*
X149850100Y-102328465D01*
X149842488Y-102293379D01*
X149839731Y-102262611D01*
X149841484Y-102238706D01*
X149848170Y-102204203D01*
X149858932Y-102168396D01*
X149872783Y-102135086D01*
X149886860Y-102110208D01*
X149917376Y-102071533D01*
X149955132Y-102038177D01*
X149998811Y-102011223D01*
X150047098Y-101991751D01*
X150047261Y-101991701D01*
X150051699Y-101990457D01*
X150056780Y-101989331D01*
X150062997Y-101988316D01*
X150070842Y-101987409D01*
X150080808Y-101986601D01*
X150093387Y-101985888D01*
X150109073Y-101985264D01*
X150128357Y-101984723D01*
X150151732Y-101984258D01*
X150179691Y-101983865D01*
X150212726Y-101983537D01*
X150251330Y-101983269D01*
X150295996Y-101983054D01*
X150347215Y-101982886D01*
X150405481Y-101982761D01*
X150471287Y-101982671D01*
X150545124Y-101982612D01*
X150627485Y-101982577D01*
X150718863Y-101982560D01*
X150819750Y-101982556D01*
X150903853Y-101982550D01*
X150998556Y-101982538D01*
X151084162Y-101982538D01*
X151161171Y-101982569D01*
G37*
%LPC*%
D12*
X151480000Y-113950000D03*
X145700000Y-113950000D03*
D13*
X152910000Y-117600000D03*
X144270000Y-117600000D03*
D14*
X144270000Y-113420000D03*
X152910000Y-113420000D03*
D15*
X156190000Y-78700000D03*
X156190000Y-80700000D03*
X156190000Y-82700000D03*
X156190000Y-84700000D03*
X156190000Y-86700000D03*
X156190000Y-88700000D03*
X156190000Y-90700000D03*
X156190000Y-92700000D03*
D16*
X153590000Y-94200000D03*
X151590000Y-94200000D03*
X149590000Y-94200000D03*
X147590000Y-94200000D03*
X145590000Y-94200000D03*
X143590000Y-94200000D03*
D15*
X140990000Y-92700000D03*
X140990000Y-90700000D03*
X140990000Y-88700000D03*
X140990000Y-86700000D03*
X140990000Y-84700000D03*
X140990000Y-82700000D03*
X140990000Y-80700000D03*
X140990000Y-78700000D03*
M02*
