G04 #@! TF.GenerationSoftware,KiCad,Pcbnew,(6.0.4)*
G04 #@! TF.CreationDate,2023-03-05T19:47:51+01:00*
G04 #@! TF.ProjectId,hair-02,68616972-2d30-4322-9e6b-696361645f70,rev?*
G04 #@! TF.SameCoordinates,Original*
G04 #@! TF.FileFunction,Copper,L2,Bot*
G04 #@! TF.FilePolarity,Positive*
%FSLAX46Y46*%
G04 Gerber Fmt 4.6, Leading zero omitted, Abs format (unit mm)*
G04 Created by KiCad (PCBNEW (6.0.4)) date 2023-03-05 19:47:51*
%MOMM*%
%LPD*%
G01*
G04 APERTURE LIST*
G04 Aperture macros list*
%AMRoundRect*
0 Rectangle with rounded corners*
0 $1 Rounding radius*
0 $2 $3 $4 $5 $6 $7 $8 $9 X,Y pos of 4 corners*
0 Add a 4 corners polygon primitive as box body*
4,1,4,$2,$3,$4,$5,$6,$7,$8,$9,$2,$3,0*
0 Add four circle primitives for the rounded corners*
1,1,$1+$1,$2,$3*
1,1,$1+$1,$4,$5*
1,1,$1+$1,$6,$7*
1,1,$1+$1,$8,$9*
0 Add four rect primitives between the rounded corners*
20,1,$1+$1,$2,$3,$4,$5,0*
20,1,$1+$1,$4,$5,$6,$7,0*
20,1,$1+$1,$6,$7,$8,$9,0*
20,1,$1+$1,$8,$9,$2,$3,0*%
G04 Aperture macros list end*
G04 #@! TA.AperFunction,ComponentPad*
%ADD10O,1.000000X2.100000*%
G04 #@! TD*
G04 #@! TA.AperFunction,ComponentPad*
%ADD11O,1.000000X1.600000*%
G04 #@! TD*
G04 #@! TA.AperFunction,SMDPad,CuDef*
%ADD12RoundRect,0.218750X-0.218750X-0.256250X0.218750X-0.256250X0.218750X0.256250X-0.218750X0.256250X0*%
G04 #@! TD*
G04 #@! TA.AperFunction,SMDPad,CuDef*
%ADD13R,0.900000X1.500000*%
G04 #@! TD*
G04 #@! TA.AperFunction,SMDPad,CuDef*
%ADD14R,0.700000X0.700000*%
G04 #@! TD*
G04 #@! TA.AperFunction,SMDPad,CuDef*
%ADD15RoundRect,0.218750X0.218750X0.256250X-0.218750X0.256250X-0.218750X-0.256250X0.218750X-0.256250X0*%
G04 #@! TD*
G04 #@! TA.AperFunction,SMDPad,CuDef*
%ADD16RoundRect,0.425000X-0.425000X-2.625000X0.425000X-2.625000X0.425000X2.625000X-0.425000X2.625000X0*%
G04 #@! TD*
G04 #@! TA.AperFunction,ViaPad*
%ADD17C,0.600000*%
G04 #@! TD*
G04 #@! TA.AperFunction,Conductor*
%ADD18C,0.600000*%
G04 #@! TD*
G04 #@! TA.AperFunction,Conductor*
%ADD19C,0.300000*%
G04 #@! TD*
G04 APERTURE END LIST*
D10*
X144180000Y-111720000D03*
D11*
X144180000Y-115900000D03*
D10*
X152820000Y-111720000D03*
D11*
X152820000Y-115900000D03*
D12*
X149712500Y-115900000D03*
X151287500Y-115900000D03*
D13*
X141750000Y-96550000D03*
X143250000Y-96550000D03*
X144750000Y-96550000D03*
X146250000Y-96550000D03*
X147750000Y-96550000D03*
X149250000Y-96550000D03*
X150750000Y-96550000D03*
X152250000Y-96550000D03*
X153750000Y-96550000D03*
X153750000Y-114050000D03*
X152250000Y-114050000D03*
X150750000Y-114050000D03*
X149250000Y-114050000D03*
X147750000Y-114050000D03*
X146250000Y-114050000D03*
X144750000Y-114050000D03*
X143250000Y-114050000D03*
X141750000Y-114050000D03*
D14*
X147950000Y-105160000D03*
X146850000Y-107360000D03*
X149050000Y-107360000D03*
X146850000Y-105160000D03*
X149050000Y-106260000D03*
X146850000Y-106260000D03*
X147950000Y-106260000D03*
X149050000Y-105160000D03*
X147950000Y-107360000D03*
D15*
X147287500Y-115900000D03*
X145712500Y-115900000D03*
D16*
X161540000Y-103500000D03*
X159000000Y-103500000D03*
X156460000Y-103500000D03*
D17*
X141700000Y-97600000D03*
X141050000Y-115600000D03*
X141200000Y-106200000D03*
X151250000Y-95000000D03*
X154200000Y-101600000D03*
X144500000Y-99100000D03*
X147350000Y-98650000D03*
X152550000Y-107250000D03*
X143250000Y-99200000D03*
X152300000Y-106100000D03*
X145750000Y-95000000D03*
X144500000Y-104100000D03*
X150150000Y-107350000D03*
X142450000Y-108250000D03*
X144250000Y-97800000D03*
X143250000Y-95300000D03*
X151250000Y-109200000D03*
X145750000Y-109200000D03*
X150650000Y-109200000D03*
X146350000Y-109200000D03*
X154950000Y-103750000D03*
X147300000Y-112300000D03*
X148900000Y-115900000D03*
X148900000Y-112300000D03*
X149700000Y-112300000D03*
X148100000Y-112300000D03*
X148100000Y-115900000D03*
X147750000Y-95300000D03*
X144950000Y-112950000D03*
X149250000Y-99500000D03*
X159000000Y-98550000D03*
X149250000Y-95300000D03*
X152250000Y-95300000D03*
D18*
X141700000Y-97600000D02*
X141700000Y-96600000D01*
D19*
X140900000Y-106500000D02*
X141200000Y-106200000D01*
X140900000Y-115600000D02*
X140900000Y-106500000D01*
X141050000Y-115600000D02*
X140900000Y-115600000D01*
D18*
X141700000Y-96600000D02*
X141750000Y-96550000D01*
D19*
X143250000Y-96550000D02*
X143250000Y-97500000D01*
X143250000Y-97500000D02*
X143550000Y-97800000D01*
X143550000Y-97800000D02*
X144250000Y-97800000D01*
X143250000Y-95300000D02*
X143250000Y-96550000D01*
D18*
X145750000Y-109200000D02*
X151250000Y-109200000D01*
D19*
X154950000Y-103750000D02*
X156210000Y-103750000D01*
X156210000Y-103750000D02*
X156460000Y-103500000D01*
X147830963Y-112949511D02*
X148369037Y-112949511D01*
X148900000Y-112418548D02*
X148900000Y-112300000D01*
X149250000Y-115050000D02*
X149250000Y-114050000D01*
X147300000Y-112418548D02*
X147830963Y-112949511D01*
X149500000Y-115600000D02*
X149500000Y-115300000D01*
X148369037Y-112949511D02*
X148900000Y-112418548D01*
X147300000Y-112300000D02*
X147300000Y-112418548D01*
X149712500Y-115900000D02*
X149712500Y-115812500D01*
X149712500Y-115812500D02*
X149500000Y-115600000D01*
X148900000Y-115900000D02*
X149712500Y-115900000D01*
X149500000Y-115300000D02*
X149250000Y-115050000D01*
X148100000Y-112181452D02*
X148630963Y-111650489D01*
X147287500Y-115900000D02*
X147287500Y-115812500D01*
X149169037Y-111650489D02*
X149700000Y-112181452D01*
X149700000Y-112181452D02*
X149700000Y-112300000D01*
X148100000Y-112300000D02*
X148100000Y-112181452D01*
X148630963Y-111650489D02*
X149169037Y-111650489D01*
X148100000Y-115900000D02*
X147287500Y-115900000D01*
X147287500Y-115812500D02*
X147500000Y-115600000D01*
X147750000Y-115050000D02*
X147750000Y-114050000D01*
X147500000Y-115300000D02*
X147750000Y-115050000D01*
X147500000Y-115600000D02*
X147500000Y-115300000D01*
X147750000Y-96550000D02*
X147750000Y-95300000D01*
X144950000Y-113850000D02*
X144750000Y-114050000D01*
X144950000Y-112950000D02*
X144950000Y-113850000D01*
X149700000Y-97850000D02*
X150500000Y-97850000D01*
X149250000Y-99500000D02*
X149250000Y-98300000D01*
X149250000Y-98300000D02*
X149700000Y-97850000D01*
X150750000Y-97600000D02*
X150750000Y-96550000D01*
X150500000Y-97850000D02*
X150750000Y-97600000D01*
X161540000Y-103500000D02*
X161540000Y-99540000D01*
X149250000Y-95300000D02*
X149250000Y-96550000D01*
X161540000Y-99540000D02*
X160550000Y-98550000D01*
X160550000Y-98550000D02*
X159000000Y-98550000D01*
X152250000Y-96550000D02*
X152250000Y-95300000D01*
G04 #@! TA.AperFunction,Conductor*
G36*
X142605298Y-115030291D02*
G01*
X142627287Y-115052241D01*
X142639867Y-115057803D01*
X142639869Y-115057804D01*
X142719426Y-115092976D01*
X142729673Y-115097506D01*
X142744318Y-115099213D01*
X142751070Y-115100001D01*
X142751078Y-115100001D01*
X142755354Y-115100500D01*
X143077323Y-115100500D01*
X143151823Y-115120462D01*
X143206361Y-115175000D01*
X143226323Y-115249500D01*
X143219348Y-115294553D01*
X143191462Y-115382461D01*
X143188444Y-115396657D01*
X143172464Y-115539128D01*
X143172000Y-115547416D01*
X143172000Y-115626384D01*
X143176145Y-115641855D01*
X143191616Y-115646000D01*
X145817500Y-115646000D01*
X145892000Y-115665962D01*
X145946538Y-115720500D01*
X145966500Y-115795000D01*
X145966500Y-116005000D01*
X145946538Y-116079500D01*
X145892000Y-116134038D01*
X145817500Y-116154000D01*
X143191616Y-116154000D01*
X143176145Y-116158145D01*
X143172000Y-116173616D01*
X143172000Y-116246103D01*
X143172355Y-116253358D01*
X143185702Y-116389480D01*
X143188521Y-116403719D01*
X143219835Y-116507434D01*
X143222258Y-116584524D01*
X143185812Y-116652497D01*
X143120261Y-116693140D01*
X143077195Y-116699500D01*
X140799000Y-116699500D01*
X140724500Y-116679538D01*
X140669962Y-116625000D01*
X140650000Y-116550500D01*
X140650000Y-116307286D01*
X140669962Y-116232786D01*
X140724500Y-116178248D01*
X140799000Y-116158286D01*
X140856019Y-116169628D01*
X140884213Y-116181306D01*
X140884215Y-116181307D01*
X140893238Y-116185044D01*
X140902919Y-116186319D01*
X140902921Y-116186319D01*
X141040315Y-116204407D01*
X141050000Y-116205682D01*
X141059685Y-116204407D01*
X141197079Y-116186319D01*
X141197081Y-116186319D01*
X141206762Y-116185044D01*
X141234352Y-116173616D01*
X141343817Y-116128274D01*
X141343818Y-116128274D01*
X141352841Y-116124536D01*
X141478282Y-116028282D01*
X141574536Y-115902841D01*
X141635044Y-115756762D01*
X141652209Y-115626384D01*
X141654407Y-115609685D01*
X141655682Y-115600000D01*
X141654407Y-115590315D01*
X141636319Y-115452921D01*
X141636319Y-115452919D01*
X141635044Y-115443238D01*
X141578413Y-115306518D01*
X141568346Y-115230052D01*
X141597861Y-115158795D01*
X141659051Y-115111842D01*
X141716071Y-115100500D01*
X142244646Y-115100500D01*
X142270846Y-115097382D01*
X142373153Y-115051939D01*
X142394580Y-115030474D01*
X142461339Y-114991852D01*
X142538468Y-114991784D01*
X142605298Y-115030291D01*
G37*
G04 #@! TD.AperFunction*
G04 #@! TA.AperFunction,Conductor*
G36*
X160986548Y-93302764D02*
G01*
X160987160Y-93302872D01*
X161000000Y-93305136D01*
X161012839Y-93302872D01*
X161025875Y-93302872D01*
X161025875Y-93303388D01*
X161037130Y-93302746D01*
X161256126Y-93315993D01*
X161273986Y-93318162D01*
X161395747Y-93340475D01*
X161517513Y-93362789D01*
X161534973Y-93367092D01*
X161771356Y-93440753D01*
X161788163Y-93447127D01*
X162013938Y-93548739D01*
X162029871Y-93557101D01*
X162241748Y-93685186D01*
X162256555Y-93695407D01*
X162451440Y-93848090D01*
X162464908Y-93860021D01*
X162639979Y-94035092D01*
X162651910Y-94048560D01*
X162804593Y-94243445D01*
X162814814Y-94258252D01*
X162942899Y-94470129D01*
X162951261Y-94486061D01*
X163052873Y-94711837D01*
X163059247Y-94728644D01*
X163106246Y-94879467D01*
X163132906Y-94965020D01*
X163137211Y-94982487D01*
X163159525Y-95104253D01*
X163181838Y-95226014D01*
X163184007Y-95243874D01*
X163197254Y-95462870D01*
X163196612Y-95474125D01*
X163197128Y-95474125D01*
X163197128Y-95487161D01*
X163194864Y-95500000D01*
X163197128Y-95512840D01*
X163197236Y-95513452D01*
X163199500Y-95539326D01*
X163199500Y-114460674D01*
X163197236Y-114486548D01*
X163194864Y-114500000D01*
X163197128Y-114512839D01*
X163197128Y-114525875D01*
X163196612Y-114525875D01*
X163197254Y-114537130D01*
X163184007Y-114756126D01*
X163181838Y-114773986D01*
X163168683Y-114845774D01*
X163141914Y-114991852D01*
X163137212Y-115017509D01*
X163132908Y-115034973D01*
X163059247Y-115271356D01*
X163052873Y-115288163D01*
X162987140Y-115434217D01*
X162951261Y-115513938D01*
X162942900Y-115529870D01*
X162860629Y-115665962D01*
X162814814Y-115741748D01*
X162804594Y-115756553D01*
X162774473Y-115795000D01*
X162651910Y-115951440D01*
X162639979Y-115964908D01*
X162464908Y-116139979D01*
X162451441Y-116151909D01*
X162312361Y-116260872D01*
X162256555Y-116304593D01*
X162241748Y-116314814D01*
X162029871Y-116442899D01*
X162013939Y-116451261D01*
X161788163Y-116552873D01*
X161771356Y-116559247D01*
X161534973Y-116632908D01*
X161517513Y-116637211D01*
X161434099Y-116652497D01*
X161273986Y-116681838D01*
X161256126Y-116684007D01*
X161037130Y-116697254D01*
X161025875Y-116696612D01*
X161025875Y-116697128D01*
X161012839Y-116697128D01*
X161000000Y-116694864D01*
X160987160Y-116697128D01*
X160986548Y-116697236D01*
X160960674Y-116699500D01*
X153922677Y-116699500D01*
X153848177Y-116679538D01*
X153793639Y-116625000D01*
X153773677Y-116550500D01*
X153780652Y-116505447D01*
X153808538Y-116417539D01*
X153811556Y-116403343D01*
X153827536Y-116260872D01*
X153828000Y-116252584D01*
X153828000Y-116173616D01*
X153823855Y-116158145D01*
X153808384Y-116154000D01*
X151182500Y-116154000D01*
X151108000Y-116134038D01*
X151053462Y-116079500D01*
X151033500Y-116005000D01*
X151033500Y-115795000D01*
X151053462Y-115720500D01*
X151108000Y-115665962D01*
X151182500Y-115646000D01*
X153808384Y-115646000D01*
X153823855Y-115641855D01*
X153828000Y-115626384D01*
X153828000Y-115553897D01*
X153827645Y-115546642D01*
X153814298Y-115410520D01*
X153811479Y-115396281D01*
X153780165Y-115292566D01*
X153777742Y-115215476D01*
X153814188Y-115147503D01*
X153879739Y-115106860D01*
X153922805Y-115100500D01*
X154244646Y-115100500D01*
X154270846Y-115097382D01*
X154373153Y-115051939D01*
X154452241Y-114972713D01*
X154497506Y-114870327D01*
X154499753Y-114851056D01*
X154500001Y-114848930D01*
X154500001Y-114848922D01*
X154500500Y-114844646D01*
X154500500Y-113255354D01*
X154497382Y-113229154D01*
X154451939Y-113126847D01*
X154372713Y-113047759D01*
X154360133Y-113042197D01*
X154360131Y-113042196D01*
X154280574Y-113007024D01*
X154280573Y-113007024D01*
X154270327Y-113002494D01*
X154255145Y-113000724D01*
X154248930Y-112999999D01*
X154248922Y-112999999D01*
X154244646Y-112999500D01*
X153821230Y-112999500D01*
X153746730Y-112979538D01*
X153692192Y-112925000D01*
X153672230Y-112850500D01*
X153690660Y-112778718D01*
X153747463Y-112675393D01*
X153753175Y-112662068D01*
X153808538Y-112487540D01*
X153811556Y-112473343D01*
X153827536Y-112330872D01*
X153828000Y-112322584D01*
X153828000Y-111993616D01*
X153823855Y-111978145D01*
X153808384Y-111974000D01*
X152715000Y-111974000D01*
X152640500Y-111954038D01*
X152585962Y-111899500D01*
X152566000Y-111825000D01*
X152566000Y-111446384D01*
X153074000Y-111446384D01*
X153078145Y-111461855D01*
X153093616Y-111466000D01*
X153808384Y-111466000D01*
X153823855Y-111461855D01*
X153828000Y-111446384D01*
X153828000Y-111123897D01*
X153827645Y-111116642D01*
X153814298Y-110980520D01*
X153811479Y-110966282D01*
X153758559Y-110791005D01*
X153753030Y-110777589D01*
X153667065Y-110615911D01*
X153659043Y-110603837D01*
X153543311Y-110461936D01*
X153533097Y-110451650D01*
X153392010Y-110334933D01*
X153379982Y-110326820D01*
X153218917Y-110239733D01*
X153205544Y-110234111D01*
X153092737Y-110199192D01*
X153076734Y-110198577D01*
X153074334Y-110202389D01*
X153074000Y-110204595D01*
X153074000Y-111446384D01*
X152566000Y-111446384D01*
X152566000Y-110213577D01*
X152561855Y-110198106D01*
X152556979Y-110196800D01*
X152555754Y-110196977D01*
X152447557Y-110228821D01*
X152434113Y-110234253D01*
X152271842Y-110319086D01*
X152259712Y-110327023D01*
X152117007Y-110441760D01*
X152106641Y-110451912D01*
X151988948Y-110592173D01*
X151980749Y-110604148D01*
X151892540Y-110764598D01*
X151886825Y-110777932D01*
X151831462Y-110952460D01*
X151828444Y-110966657D01*
X151812464Y-111109128D01*
X151812000Y-111117416D01*
X151812000Y-111521010D01*
X151792038Y-111595510D01*
X151737500Y-111650048D01*
X151663000Y-111670010D01*
X151622483Y-111662279D01*
X151622092Y-111663803D01*
X151469019Y-111624500D01*
X151350650Y-111624500D01*
X151346006Y-111625087D01*
X151346001Y-111625087D01*
X151298236Y-111631121D01*
X151233208Y-111639336D01*
X151224493Y-111642786D01*
X151224491Y-111642787D01*
X151175261Y-111662279D01*
X151086268Y-111697514D01*
X150958413Y-111790406D01*
X150857676Y-111912177D01*
X150853687Y-111920654D01*
X150853685Y-111920657D01*
X150820830Y-111990477D01*
X150790386Y-112055174D01*
X150788630Y-112064379D01*
X150777459Y-112122942D01*
X150760773Y-112210412D01*
X150770696Y-112368138D01*
X150773594Y-112377056D01*
X150773594Y-112377058D01*
X150809493Y-112487540D01*
X150819533Y-112518441D01*
X150904214Y-112651877D01*
X150995842Y-112737922D01*
X151000061Y-112741884D01*
X151040704Y-112807435D01*
X151043126Y-112884525D01*
X151006679Y-112952498D01*
X150941128Y-112993141D01*
X150898063Y-112999500D01*
X150255354Y-112999500D01*
X150229154Y-113002618D01*
X150228821Y-112999818D01*
X150168908Y-113000202D01*
X150101867Y-112962066D01*
X150062877Y-112895519D01*
X150062383Y-112818393D01*
X150100519Y-112751352D01*
X150115842Y-112737827D01*
X150128282Y-112728282D01*
X150224536Y-112602841D01*
X150285044Y-112456762D01*
X150286616Y-112444826D01*
X150304407Y-112309685D01*
X150305682Y-112300000D01*
X150293888Y-112210412D01*
X150286319Y-112152921D01*
X150286319Y-112152919D01*
X150285044Y-112143238D01*
X150276637Y-112122942D01*
X150228274Y-112006183D01*
X150228274Y-112006182D01*
X150224536Y-111997159D01*
X150128282Y-111871718D01*
X150002841Y-111775464D01*
X149932559Y-111746352D01*
X149907779Y-111736088D01*
X149859440Y-111703789D01*
X149512746Y-111357095D01*
X149501093Y-111343982D01*
X149487804Y-111327125D01*
X149487803Y-111327125D01*
X149480909Y-111318379D01*
X149471747Y-111312047D01*
X149471745Y-111312045D01*
X149432947Y-111285230D01*
X149429139Y-111282509D01*
X149391180Y-111254472D01*
X149391179Y-111254471D01*
X149382221Y-111247855D01*
X149375405Y-111245462D01*
X149369468Y-111241358D01*
X149313869Y-111223774D01*
X149309457Y-111222302D01*
X149254406Y-111202970D01*
X149247192Y-111202687D01*
X149240307Y-111200509D01*
X149233700Y-111199989D01*
X149181466Y-111199989D01*
X149175616Y-111199874D01*
X149130170Y-111198088D01*
X149130168Y-111198088D01*
X149119043Y-111197651D01*
X149111658Y-111199609D01*
X149104755Y-111199989D01*
X148666535Y-111199989D01*
X148649022Y-111198956D01*
X148648819Y-111198932D01*
X148616653Y-111195125D01*
X148605697Y-111197126D01*
X148605694Y-111197126D01*
X148559295Y-111205600D01*
X148554679Y-111206368D01*
X148508020Y-111213383D01*
X148508018Y-111213384D01*
X148497001Y-111215040D01*
X148490488Y-111218168D01*
X148483390Y-111219464D01*
X148431650Y-111246341D01*
X148427498Y-111248415D01*
X148374884Y-111273680D01*
X148369580Y-111278583D01*
X148363175Y-111281910D01*
X148358135Y-111286214D01*
X148321203Y-111323146D01*
X148316985Y-111327201D01*
X148283586Y-111358074D01*
X148283585Y-111358076D01*
X148275407Y-111365635D01*
X148271569Y-111372243D01*
X148266958Y-111377391D01*
X147940560Y-111703789D01*
X147892221Y-111736088D01*
X147797159Y-111775464D01*
X147789411Y-111781409D01*
X147780954Y-111786292D01*
X147780098Y-111784809D01*
X147719455Y-111809931D01*
X147642986Y-111799867D01*
X147619153Y-111786107D01*
X147619046Y-111786292D01*
X147610589Y-111781409D01*
X147602841Y-111775464D01*
X147456762Y-111714956D01*
X147447081Y-111713681D01*
X147447079Y-111713681D01*
X147309685Y-111695593D01*
X147300000Y-111694318D01*
X147290315Y-111695593D01*
X147152921Y-111713681D01*
X147152919Y-111713681D01*
X147143238Y-111714956D01*
X146997159Y-111775464D01*
X146871718Y-111871718D01*
X146775464Y-111997159D01*
X146771726Y-112006182D01*
X146771726Y-112006183D01*
X146723363Y-112122942D01*
X146714956Y-112143238D01*
X146713681Y-112152919D01*
X146713681Y-112152921D01*
X146706112Y-112210412D01*
X146694318Y-112300000D01*
X146695593Y-112309685D01*
X146713385Y-112444826D01*
X146714956Y-112456762D01*
X146775464Y-112602841D01*
X146871718Y-112728282D01*
X146879467Y-112734228D01*
X146884281Y-112737922D01*
X146931232Y-112799113D01*
X146941298Y-112875581D01*
X146911781Y-112946838D01*
X146850590Y-112993789D01*
X146774122Y-113003855D01*
X146772807Y-113003590D01*
X146770327Y-113002494D01*
X146763273Y-113001672D01*
X146763270Y-113001671D01*
X146748930Y-112999999D01*
X146748922Y-112999999D01*
X146744646Y-112999500D01*
X146101141Y-112999500D01*
X146026641Y-112979538D01*
X145972103Y-112925000D01*
X145952141Y-112850500D01*
X145972103Y-112776000D01*
X146013561Y-112729956D01*
X146034005Y-112715103D01*
X146034007Y-112715101D01*
X146041587Y-112709594D01*
X146142324Y-112587823D01*
X146146313Y-112579346D01*
X146146315Y-112579343D01*
X146205624Y-112453305D01*
X146209614Y-112444826D01*
X146211370Y-112435621D01*
X146237471Y-112298795D01*
X146237471Y-112298793D01*
X146239227Y-112289588D01*
X146229304Y-112131862D01*
X146226406Y-112122942D01*
X146183365Y-111990477D01*
X146183364Y-111990475D01*
X146180467Y-111981559D01*
X146095786Y-111848123D01*
X146042015Y-111797628D01*
X145987413Y-111746352D01*
X145987409Y-111746349D01*
X145980582Y-111739938D01*
X145935140Y-111714956D01*
X145850309Y-111668320D01*
X145850307Y-111668319D01*
X145842092Y-111663803D01*
X145689019Y-111624500D01*
X145570650Y-111624500D01*
X145566006Y-111625087D01*
X145566001Y-111625087D01*
X145518236Y-111631121D01*
X145453208Y-111639336D01*
X145444493Y-111642786D01*
X145444491Y-111642787D01*
X145391851Y-111663629D01*
X145315234Y-111672494D01*
X145244449Y-111641862D01*
X145198463Y-111579943D01*
X145188000Y-111525092D01*
X145188000Y-111123897D01*
X145187645Y-111116642D01*
X145174298Y-110980520D01*
X145171479Y-110966282D01*
X145118559Y-110791005D01*
X145113030Y-110777589D01*
X145027065Y-110615911D01*
X145019043Y-110603837D01*
X144903311Y-110461936D01*
X144893097Y-110451650D01*
X144752010Y-110334933D01*
X144739982Y-110326820D01*
X144578917Y-110239733D01*
X144565544Y-110234111D01*
X144452737Y-110199192D01*
X144436734Y-110198577D01*
X144434334Y-110202389D01*
X144434000Y-110204595D01*
X144434000Y-111825000D01*
X144414038Y-111899500D01*
X144359500Y-111954038D01*
X144285000Y-111974000D01*
X143191616Y-111974000D01*
X143176145Y-111978145D01*
X143172000Y-111993616D01*
X143172000Y-112316103D01*
X143172355Y-112323358D01*
X143185702Y-112459480D01*
X143188521Y-112473718D01*
X143241441Y-112648995D01*
X143246972Y-112662416D01*
X143309784Y-112780550D01*
X143327133Y-112855701D01*
X143304583Y-112929459D01*
X143248174Y-112982060D01*
X143178224Y-112999500D01*
X142755354Y-112999500D01*
X142729154Y-113002618D01*
X142626847Y-113048061D01*
X142605420Y-113069526D01*
X142538661Y-113108148D01*
X142461532Y-113108216D01*
X142394701Y-113069709D01*
X142382448Y-113057477D01*
X142372713Y-113047759D01*
X142360133Y-113042197D01*
X142360131Y-113042196D01*
X142280574Y-113007024D01*
X142280573Y-113007024D01*
X142270327Y-113002494D01*
X142255145Y-113000724D01*
X142248930Y-112999999D01*
X142248922Y-112999999D01*
X142244646Y-112999500D01*
X141499500Y-112999500D01*
X141425000Y-112979538D01*
X141370462Y-112925000D01*
X141350500Y-112850500D01*
X141350500Y-111446384D01*
X143172000Y-111446384D01*
X143176145Y-111461855D01*
X143191616Y-111466000D01*
X143906384Y-111466000D01*
X143921855Y-111461855D01*
X143926000Y-111446384D01*
X143926000Y-110213577D01*
X143921855Y-110198106D01*
X143916979Y-110196800D01*
X143915754Y-110196977D01*
X143807557Y-110228821D01*
X143794113Y-110234253D01*
X143631842Y-110319086D01*
X143619712Y-110327023D01*
X143477007Y-110441760D01*
X143466641Y-110451912D01*
X143348948Y-110592173D01*
X143340749Y-110604148D01*
X143252540Y-110764598D01*
X143246825Y-110777932D01*
X143191462Y-110952460D01*
X143188444Y-110966657D01*
X143172464Y-111109128D01*
X143172000Y-111117416D01*
X143172000Y-111446384D01*
X141350500Y-111446384D01*
X141350500Y-109200000D01*
X145144318Y-109200000D01*
X145164956Y-109356762D01*
X145225464Y-109502841D01*
X145321718Y-109628282D01*
X145447159Y-109724536D01*
X145593238Y-109785044D01*
X145602919Y-109786319D01*
X145602921Y-109786319D01*
X145740315Y-109804407D01*
X145750000Y-109805682D01*
X145779678Y-109801775D01*
X145799124Y-109800500D01*
X146300876Y-109800500D01*
X146320322Y-109801775D01*
X146350000Y-109805682D01*
X146379678Y-109801775D01*
X146399124Y-109800500D01*
X150600876Y-109800500D01*
X150620322Y-109801775D01*
X150650000Y-109805682D01*
X150679678Y-109801775D01*
X150699124Y-109800500D01*
X151200876Y-109800500D01*
X151220322Y-109801775D01*
X151250000Y-109805682D01*
X151279677Y-109801775D01*
X151289361Y-109800500D01*
X151397079Y-109786319D01*
X151397081Y-109786319D01*
X151406762Y-109785044D01*
X151552841Y-109724536D01*
X151678282Y-109628282D01*
X151774536Y-109502841D01*
X151835044Y-109356762D01*
X151855682Y-109200000D01*
X151835044Y-109043238D01*
X151774536Y-108897159D01*
X151678282Y-108771718D01*
X151552841Y-108675464D01*
X151406762Y-108614956D01*
X151397081Y-108613681D01*
X151397079Y-108613681D01*
X151289361Y-108599500D01*
X151259685Y-108595593D01*
X151250000Y-108594318D01*
X151220322Y-108598225D01*
X151200876Y-108599500D01*
X150699124Y-108599500D01*
X150679678Y-108598225D01*
X150650000Y-108594318D01*
X150620322Y-108598225D01*
X150600876Y-108599500D01*
X146399124Y-108599500D01*
X146379678Y-108598225D01*
X146350000Y-108594318D01*
X146320322Y-108598225D01*
X146300876Y-108599500D01*
X145799124Y-108599500D01*
X145779678Y-108598225D01*
X145750000Y-108594318D01*
X145740315Y-108595593D01*
X145602921Y-108613681D01*
X145602919Y-108613681D01*
X145593238Y-108614956D01*
X145447159Y-108675464D01*
X145321718Y-108771718D01*
X145225464Y-108897159D01*
X145164956Y-109043238D01*
X145144318Y-109200000D01*
X141350500Y-109200000D01*
X141350500Y-107754060D01*
X145992001Y-107754060D01*
X145992436Y-107762091D01*
X145997740Y-107810923D01*
X146002027Y-107828953D01*
X146046101Y-107946520D01*
X146056196Y-107964959D01*
X146130728Y-108064407D01*
X146145593Y-108079272D01*
X146245041Y-108153804D01*
X146263480Y-108163899D01*
X146381044Y-108207972D01*
X146399079Y-108212261D01*
X146447912Y-108217566D01*
X146455938Y-108218000D01*
X146576384Y-108218000D01*
X146591855Y-108213855D01*
X146596000Y-108198384D01*
X146596000Y-108198383D01*
X147104000Y-108198383D01*
X147108145Y-108213854D01*
X147123616Y-108217999D01*
X147244060Y-108217999D01*
X147252091Y-108217564D01*
X147300923Y-108212260D01*
X147318950Y-108207974D01*
X147347698Y-108197197D01*
X147424465Y-108189738D01*
X147452302Y-108197197D01*
X147481048Y-108207973D01*
X147499079Y-108212261D01*
X147547912Y-108217566D01*
X147555938Y-108218000D01*
X147676384Y-108218000D01*
X147691855Y-108213855D01*
X147696000Y-108198384D01*
X147696000Y-108198383D01*
X148204000Y-108198383D01*
X148208145Y-108213854D01*
X148223616Y-108217999D01*
X148344060Y-108217999D01*
X148352091Y-108217564D01*
X148400923Y-108212260D01*
X148418950Y-108207974D01*
X148447698Y-108197197D01*
X148524465Y-108189738D01*
X148552302Y-108197197D01*
X148581048Y-108207973D01*
X148599079Y-108212261D01*
X148647912Y-108217566D01*
X148655938Y-108218000D01*
X148776384Y-108218000D01*
X148791855Y-108213855D01*
X148796000Y-108198384D01*
X148796000Y-108198383D01*
X149304000Y-108198383D01*
X149308145Y-108213854D01*
X149323616Y-108217999D01*
X149444060Y-108217999D01*
X149452091Y-108217564D01*
X149500923Y-108212260D01*
X149518953Y-108207973D01*
X149636520Y-108163899D01*
X149654959Y-108153804D01*
X149754407Y-108079272D01*
X149769272Y-108064407D01*
X149843804Y-107964959D01*
X149853899Y-107946520D01*
X149897972Y-107828956D01*
X149902261Y-107810921D01*
X149907566Y-107762088D01*
X149908000Y-107754062D01*
X149908000Y-107633616D01*
X149903855Y-107618145D01*
X149888384Y-107614000D01*
X149323616Y-107614000D01*
X149308145Y-107618145D01*
X149304000Y-107633616D01*
X149304000Y-108198383D01*
X148796000Y-108198383D01*
X148796000Y-107633616D01*
X148791855Y-107618145D01*
X148776384Y-107614000D01*
X148223616Y-107614000D01*
X148208145Y-107618145D01*
X148204000Y-107633616D01*
X148204000Y-108198383D01*
X147696000Y-108198383D01*
X147696000Y-107633616D01*
X147691855Y-107618145D01*
X147676384Y-107614000D01*
X147123616Y-107614000D01*
X147108145Y-107618145D01*
X147104000Y-107633616D01*
X147104000Y-108198383D01*
X146596000Y-108198383D01*
X146596000Y-107633616D01*
X146591855Y-107618145D01*
X146576384Y-107614000D01*
X146011617Y-107614000D01*
X145996146Y-107618145D01*
X145992001Y-107633616D01*
X145992001Y-107754060D01*
X141350500Y-107754060D01*
X141350500Y-107086384D01*
X145992000Y-107086384D01*
X145996145Y-107101855D01*
X146011616Y-107106000D01*
X146576384Y-107106000D01*
X146591855Y-107101855D01*
X146596000Y-107086384D01*
X147104000Y-107086384D01*
X147108145Y-107101855D01*
X147123616Y-107106000D01*
X147676384Y-107106000D01*
X147691855Y-107101855D01*
X147696000Y-107086384D01*
X148204000Y-107086384D01*
X148208145Y-107101855D01*
X148223616Y-107106000D01*
X148776384Y-107106000D01*
X148791855Y-107101855D01*
X148796000Y-107086384D01*
X149304000Y-107086384D01*
X149308145Y-107101855D01*
X149323616Y-107106000D01*
X149888383Y-107106000D01*
X149903854Y-107101855D01*
X149907999Y-107086384D01*
X149907999Y-106965940D01*
X149907564Y-106957909D01*
X149902260Y-106909077D01*
X149897974Y-106891050D01*
X149887197Y-106862302D01*
X149879738Y-106785535D01*
X149887197Y-106757698D01*
X149897973Y-106728952D01*
X149902261Y-106710921D01*
X149907566Y-106662088D01*
X149908000Y-106654062D01*
X149908000Y-106533616D01*
X149903855Y-106518145D01*
X149888384Y-106514000D01*
X149323616Y-106514000D01*
X149308145Y-106518145D01*
X149304000Y-106533616D01*
X149304000Y-107086384D01*
X148796000Y-107086384D01*
X148796000Y-106533616D01*
X148791855Y-106518145D01*
X148776384Y-106514000D01*
X148223616Y-106514000D01*
X148208145Y-106518145D01*
X148204000Y-106533616D01*
X148204000Y-107086384D01*
X147696000Y-107086384D01*
X147696000Y-106533616D01*
X147691855Y-106518145D01*
X147676384Y-106514000D01*
X147123616Y-106514000D01*
X147108145Y-106518145D01*
X147104000Y-106533616D01*
X147104000Y-107086384D01*
X146596000Y-107086384D01*
X146596000Y-106533616D01*
X146591855Y-106518145D01*
X146576384Y-106514000D01*
X146011617Y-106514000D01*
X145996146Y-106518145D01*
X145992001Y-106533616D01*
X145992001Y-106654060D01*
X145992436Y-106662091D01*
X145997740Y-106710923D01*
X146002026Y-106728950D01*
X146012803Y-106757698D01*
X146020262Y-106834465D01*
X146012803Y-106862302D01*
X146002027Y-106891048D01*
X145997739Y-106909079D01*
X145992434Y-106957912D01*
X145992000Y-106965938D01*
X145992000Y-107086384D01*
X141350500Y-107086384D01*
X141350500Y-106887196D01*
X141370462Y-106812696D01*
X141425000Y-106758158D01*
X141442481Y-106749538D01*
X141493815Y-106728275D01*
X141493817Y-106728274D01*
X141502841Y-106724536D01*
X141628282Y-106628282D01*
X141724536Y-106502841D01*
X141753177Y-106433697D01*
X141781307Y-106365784D01*
X141785044Y-106356762D01*
X141796959Y-106266262D01*
X141804407Y-106209685D01*
X141805682Y-106200000D01*
X141804407Y-106190315D01*
X141786319Y-106052921D01*
X141786319Y-106052919D01*
X141785044Y-106043238D01*
X141781307Y-106034216D01*
X141761494Y-105986384D01*
X145992000Y-105986384D01*
X145996145Y-106001855D01*
X146011616Y-106006000D01*
X146576384Y-106006000D01*
X146591855Y-106001855D01*
X146596000Y-105986384D01*
X147104000Y-105986384D01*
X147108145Y-106001855D01*
X147123616Y-106006000D01*
X147676384Y-106006000D01*
X147691855Y-106001855D01*
X147696000Y-105986384D01*
X148204000Y-105986384D01*
X148208145Y-106001855D01*
X148223616Y-106006000D01*
X148776384Y-106006000D01*
X148791855Y-106001855D01*
X148796000Y-105986384D01*
X149304000Y-105986384D01*
X149308145Y-106001855D01*
X149323616Y-106006000D01*
X149888383Y-106006000D01*
X149903854Y-106001855D01*
X149907999Y-105986384D01*
X149907999Y-105865940D01*
X149907564Y-105857909D01*
X149902260Y-105809077D01*
X149897974Y-105791050D01*
X149887197Y-105762302D01*
X149879738Y-105685535D01*
X149887197Y-105657698D01*
X149897973Y-105628952D01*
X149902261Y-105610921D01*
X149907566Y-105562088D01*
X149908000Y-105554062D01*
X149908000Y-105433616D01*
X149903855Y-105418145D01*
X149888384Y-105414000D01*
X149323616Y-105414000D01*
X149308145Y-105418145D01*
X149304000Y-105433616D01*
X149304000Y-105986384D01*
X148796000Y-105986384D01*
X148796000Y-105433616D01*
X148791855Y-105418145D01*
X148776384Y-105414000D01*
X148223616Y-105414000D01*
X148208145Y-105418145D01*
X148204000Y-105433616D01*
X148204000Y-105986384D01*
X147696000Y-105986384D01*
X147696000Y-105433616D01*
X147691855Y-105418145D01*
X147676384Y-105414000D01*
X147123616Y-105414000D01*
X147108145Y-105418145D01*
X147104000Y-105433616D01*
X147104000Y-105986384D01*
X146596000Y-105986384D01*
X146596000Y-105433616D01*
X146591855Y-105418145D01*
X146576384Y-105414000D01*
X146011617Y-105414000D01*
X145996146Y-105418145D01*
X145992001Y-105433616D01*
X145992001Y-105554060D01*
X145992436Y-105562091D01*
X145997740Y-105610923D01*
X146002026Y-105628950D01*
X146012803Y-105657698D01*
X146020262Y-105734465D01*
X146012803Y-105762302D01*
X146002027Y-105791048D01*
X145997739Y-105809079D01*
X145992434Y-105857912D01*
X145992000Y-105865938D01*
X145992000Y-105986384D01*
X141761494Y-105986384D01*
X141728274Y-105906183D01*
X141728274Y-105906182D01*
X141724536Y-105897159D01*
X141628282Y-105771718D01*
X141502841Y-105675464D01*
X141390547Y-105628950D01*
X141365784Y-105618693D01*
X141356762Y-105614956D01*
X141347081Y-105613681D01*
X141347079Y-105613681D01*
X141209685Y-105595593D01*
X141200000Y-105594318D01*
X141190315Y-105595593D01*
X141052921Y-105613681D01*
X141052919Y-105613681D01*
X141043238Y-105614956D01*
X141034216Y-105618693D01*
X141009454Y-105628950D01*
X140897159Y-105675464D01*
X140889410Y-105681410D01*
X140880954Y-105686292D01*
X140880262Y-105685094D01*
X140818453Y-105710699D01*
X140741984Y-105700634D01*
X140680793Y-105653683D01*
X140651275Y-105582427D01*
X140650000Y-105562974D01*
X140650000Y-104886384D01*
X145992000Y-104886384D01*
X145996145Y-104901855D01*
X146011616Y-104906000D01*
X146576384Y-104906000D01*
X146591855Y-104901855D01*
X146596000Y-104886384D01*
X147104000Y-104886384D01*
X147108145Y-104901855D01*
X147123616Y-104906000D01*
X147676384Y-104906000D01*
X147691855Y-104901855D01*
X147696000Y-104886384D01*
X148204000Y-104886384D01*
X148208145Y-104901855D01*
X148223616Y-104906000D01*
X148776384Y-104906000D01*
X148791855Y-104901855D01*
X148796000Y-104886384D01*
X149304000Y-104886384D01*
X149308145Y-104901855D01*
X149323616Y-104906000D01*
X149888383Y-104906000D01*
X149903854Y-104901855D01*
X149907999Y-104886384D01*
X149907999Y-104765940D01*
X149907564Y-104757909D01*
X149902260Y-104709077D01*
X149897973Y-104691047D01*
X149853899Y-104573480D01*
X149843804Y-104555041D01*
X149769272Y-104455593D01*
X149754407Y-104440728D01*
X149654959Y-104366196D01*
X149636520Y-104356101D01*
X149518956Y-104312028D01*
X149500921Y-104307739D01*
X149452088Y-104302434D01*
X149444062Y-104302000D01*
X149323616Y-104302000D01*
X149308145Y-104306145D01*
X149304000Y-104321616D01*
X149304000Y-104886384D01*
X148796000Y-104886384D01*
X148796000Y-104321617D01*
X148791855Y-104306146D01*
X148776384Y-104302001D01*
X148655940Y-104302001D01*
X148647909Y-104302436D01*
X148599077Y-104307740D01*
X148581050Y-104312026D01*
X148552302Y-104322803D01*
X148475535Y-104330262D01*
X148447698Y-104322803D01*
X148418952Y-104312027D01*
X148400921Y-104307739D01*
X148352088Y-104302434D01*
X148344062Y-104302000D01*
X148223616Y-104302000D01*
X148208145Y-104306145D01*
X148204000Y-104321616D01*
X148204000Y-104886384D01*
X147696000Y-104886384D01*
X147696000Y-104321617D01*
X147691855Y-104306146D01*
X147676384Y-104302001D01*
X147555940Y-104302001D01*
X147547909Y-104302436D01*
X147499077Y-104307740D01*
X147481050Y-104312026D01*
X147452302Y-104322803D01*
X147375535Y-104330262D01*
X147347698Y-104322803D01*
X147318952Y-104312027D01*
X147300921Y-104307739D01*
X147252088Y-104302434D01*
X147244062Y-104302000D01*
X147123616Y-104302000D01*
X147108145Y-104306145D01*
X147104000Y-104321616D01*
X147104000Y-104886384D01*
X146596000Y-104886384D01*
X146596000Y-104321617D01*
X146591855Y-104306146D01*
X146576384Y-104302001D01*
X146455940Y-104302001D01*
X146447909Y-104302436D01*
X146399077Y-104307740D01*
X146381047Y-104312027D01*
X146263480Y-104356101D01*
X146245041Y-104366196D01*
X146145593Y-104440728D01*
X146130728Y-104455593D01*
X146056196Y-104555041D01*
X146046101Y-104573480D01*
X146002028Y-104691044D01*
X145997739Y-104709079D01*
X145992434Y-104757912D01*
X145992000Y-104765938D01*
X145992000Y-104886384D01*
X140650000Y-104886384D01*
X140650000Y-103750000D01*
X154344318Y-103750000D01*
X154364956Y-103906762D01*
X154425464Y-104052841D01*
X154521718Y-104178282D01*
X154647159Y-104274536D01*
X154656182Y-104278274D01*
X154656183Y-104278274D01*
X154760820Y-104321616D01*
X154793238Y-104335044D01*
X154802919Y-104336319D01*
X154802921Y-104336319D01*
X154940315Y-104354407D01*
X154950000Y-104355682D01*
X154959685Y-104354407D01*
X155097079Y-104336319D01*
X155097081Y-104336319D01*
X155106762Y-104335044D01*
X155115784Y-104331307D01*
X155121938Y-104329658D01*
X155199066Y-104329658D01*
X155265861Y-104368223D01*
X155304424Y-104435018D01*
X155309501Y-104473581D01*
X155309501Y-106173206D01*
X155319997Y-106274372D01*
X155373537Y-106434852D01*
X155462560Y-106578711D01*
X155468683Y-106584824D01*
X155468686Y-106584827D01*
X155575360Y-106691314D01*
X155582289Y-106698231D01*
X155589659Y-106702774D01*
X155718932Y-106782460D01*
X155718936Y-106782462D01*
X155726303Y-106787003D01*
X155734523Y-106789729D01*
X155734524Y-106789730D01*
X155847408Y-106827172D01*
X155911836Y-106869573D01*
X155946431Y-106938507D01*
X155949500Y-106968595D01*
X155949500Y-114500488D01*
X155949103Y-114508602D01*
X155945754Y-114520168D01*
X155946941Y-114533874D01*
X155946941Y-114533875D01*
X155948944Y-114557001D01*
X155949500Y-114569857D01*
X155949500Y-114577948D01*
X155950757Y-114584698D01*
X155950893Y-114586169D01*
X155952481Y-114597841D01*
X155952935Y-114603085D01*
X155955413Y-114631696D01*
X155961255Y-114643647D01*
X155961651Y-114645362D01*
X155962355Y-114646974D01*
X155964791Y-114660053D01*
X155972009Y-114671762D01*
X155982627Y-114688988D01*
X155989651Y-114701739D01*
X156004575Y-114732269D01*
X156014329Y-114741317D01*
X156015317Y-114742776D01*
X156016552Y-114744025D01*
X156023532Y-114755348D01*
X156034481Y-114763674D01*
X156034482Y-114763675D01*
X156050582Y-114775918D01*
X156061723Y-114785283D01*
X156076558Y-114799044D01*
X156076561Y-114799046D01*
X156086646Y-114808401D01*
X156099003Y-114813331D01*
X156100446Y-114814333D01*
X156102051Y-114815055D01*
X156112641Y-114823108D01*
X156145285Y-114832561D01*
X156159048Y-114837286D01*
X156163788Y-114839177D01*
X156190622Y-114849883D01*
X156196915Y-114850500D01*
X156200550Y-114850500D01*
X156204193Y-114850678D01*
X156204193Y-114850681D01*
X156208602Y-114850897D01*
X156220168Y-114854246D01*
X156233874Y-114853059D01*
X156233875Y-114853059D01*
X156257001Y-114851056D01*
X156269857Y-114850500D01*
X161700488Y-114850500D01*
X161708602Y-114850897D01*
X161720168Y-114854246D01*
X161733874Y-114853059D01*
X161733875Y-114853059D01*
X161757001Y-114851056D01*
X161769857Y-114850500D01*
X161777948Y-114850500D01*
X161784698Y-114849243D01*
X161786169Y-114849107D01*
X161797841Y-114847519D01*
X161817991Y-114845774D01*
X161817992Y-114845774D01*
X161831696Y-114844587D01*
X161843647Y-114838745D01*
X161845362Y-114838349D01*
X161846974Y-114837645D01*
X161860053Y-114835209D01*
X161888991Y-114817371D01*
X161901739Y-114810349D01*
X161919907Y-114801468D01*
X161919908Y-114801467D01*
X161932269Y-114795425D01*
X161941317Y-114785671D01*
X161942776Y-114784683D01*
X161944025Y-114783448D01*
X161955348Y-114776468D01*
X161963675Y-114765518D01*
X161975918Y-114749418D01*
X161985283Y-114738277D01*
X161999044Y-114723442D01*
X161999046Y-114723439D01*
X162008401Y-114713354D01*
X162013331Y-114700997D01*
X162014333Y-114699554D01*
X162015055Y-114697949D01*
X162023108Y-114687359D01*
X162032561Y-114654715D01*
X162037286Y-114640952D01*
X162045986Y-114619145D01*
X162049883Y-114609378D01*
X162050500Y-114603085D01*
X162050500Y-114599450D01*
X162050678Y-114595807D01*
X162050681Y-114595807D01*
X162050897Y-114591398D01*
X162054246Y-114579832D01*
X162051056Y-114542999D01*
X162050500Y-114530143D01*
X162050500Y-106968675D01*
X162070462Y-106894175D01*
X162125000Y-106839637D01*
X162152334Y-106827338D01*
X162274852Y-106786463D01*
X162418711Y-106697440D01*
X162424824Y-106691317D01*
X162424827Y-106691314D01*
X162532115Y-106583838D01*
X162532116Y-106583837D01*
X162538231Y-106577711D01*
X162574948Y-106518145D01*
X162622460Y-106441068D01*
X162622462Y-106441064D01*
X162627003Y-106433697D01*
X162649529Y-106365784D01*
X162677702Y-106280847D01*
X162677703Y-106280842D01*
X162680263Y-106273124D01*
X162688747Y-106190315D01*
X162690112Y-106176996D01*
X162690112Y-106176992D01*
X162690500Y-106173207D01*
X162690499Y-100826794D01*
X162680003Y-100725628D01*
X162626463Y-100565148D01*
X162597197Y-100517854D01*
X162556861Y-100452673D01*
X162537440Y-100421289D01*
X162531317Y-100415176D01*
X162531314Y-100415173D01*
X162423838Y-100307885D01*
X162423837Y-100307884D01*
X162417711Y-100301769D01*
X162410341Y-100297226D01*
X162281068Y-100217540D01*
X162281064Y-100217538D01*
X162273697Y-100212997D01*
X162265477Y-100210271D01*
X162265476Y-100210270D01*
X162120846Y-100162298D01*
X162120844Y-100162297D01*
X162113124Y-100159737D01*
X162107381Y-100159149D01*
X162039605Y-100124465D01*
X161997712Y-100059706D01*
X161990500Y-100013912D01*
X161990500Y-99575571D01*
X161991533Y-99558058D01*
X161994055Y-99536749D01*
X161995364Y-99525689D01*
X161984891Y-99468347D01*
X161984122Y-99463728D01*
X161983756Y-99461297D01*
X161975449Y-99406038D01*
X161972321Y-99399525D01*
X161971025Y-99392427D01*
X161944146Y-99340681D01*
X161942069Y-99336525D01*
X161921629Y-99293959D01*
X161916809Y-99283921D01*
X161911907Y-99278618D01*
X161908579Y-99272211D01*
X161904275Y-99267172D01*
X161867343Y-99230240D01*
X161863288Y-99226022D01*
X161832415Y-99192623D01*
X161832413Y-99192622D01*
X161824854Y-99184444D01*
X161818246Y-99180606D01*
X161813098Y-99175995D01*
X160893709Y-98256606D01*
X160882056Y-98243493D01*
X160868767Y-98226636D01*
X160868766Y-98226636D01*
X160861872Y-98217890D01*
X160852710Y-98211558D01*
X160852708Y-98211556D01*
X160813910Y-98184741D01*
X160810102Y-98182020D01*
X160772143Y-98153983D01*
X160772142Y-98153982D01*
X160763184Y-98147366D01*
X160756368Y-98144973D01*
X160750431Y-98140869D01*
X160694832Y-98123285D01*
X160690420Y-98121813D01*
X160635369Y-98102481D01*
X160628155Y-98102198D01*
X160621270Y-98100020D01*
X160614663Y-98099500D01*
X160562429Y-98099500D01*
X160556579Y-98099385D01*
X160511133Y-98097599D01*
X160511131Y-98097599D01*
X160500006Y-98097162D01*
X160492621Y-98099120D01*
X160485718Y-98099500D01*
X159449906Y-98099500D01*
X159375406Y-98079538D01*
X159359201Y-98068710D01*
X159310590Y-98031410D01*
X159302841Y-98025464D01*
X159156762Y-97964956D01*
X159147081Y-97963681D01*
X159147079Y-97963681D01*
X159009685Y-97945593D01*
X159000000Y-97944318D01*
X158990315Y-97945593D01*
X158852921Y-97963681D01*
X158852919Y-97963681D01*
X158843238Y-97964956D01*
X158697159Y-98025464D01*
X158571718Y-98121718D01*
X158475464Y-98247159D01*
X158471726Y-98256182D01*
X158471726Y-98256183D01*
X158451897Y-98304054D01*
X158414956Y-98393238D01*
X158413681Y-98402919D01*
X158413681Y-98402921D01*
X158413318Y-98405682D01*
X158394318Y-98550000D01*
X158414956Y-98706762D01*
X158475464Y-98852841D01*
X158571718Y-98978282D01*
X158697159Y-99074536D01*
X158706182Y-99078274D01*
X158706183Y-99078274D01*
X158834216Y-99131307D01*
X158843238Y-99135044D01*
X158852919Y-99136319D01*
X158852921Y-99136319D01*
X158990315Y-99154407D01*
X159000000Y-99155682D01*
X159009685Y-99154407D01*
X159147079Y-99136319D01*
X159147081Y-99136319D01*
X159156762Y-99135044D01*
X159165784Y-99131307D01*
X159293817Y-99078274D01*
X159293818Y-99078274D01*
X159302841Y-99074536D01*
X159359200Y-99031290D01*
X159430459Y-99001775D01*
X159449906Y-99000500D01*
X160301679Y-99000500D01*
X160376179Y-99020462D01*
X160407038Y-99044141D01*
X161045859Y-99682962D01*
X161084423Y-99749757D01*
X161089500Y-99788321D01*
X161089500Y-100013899D01*
X161069538Y-100088399D01*
X161015000Y-100142937D01*
X160972663Y-100159267D01*
X160965628Y-100159997D01*
X160957896Y-100162577D01*
X160957894Y-100162577D01*
X160813366Y-100210795D01*
X160813364Y-100210796D01*
X160805148Y-100213537D01*
X160661289Y-100302560D01*
X160655176Y-100308683D01*
X160655173Y-100308686D01*
X160547885Y-100416162D01*
X160541769Y-100422289D01*
X160516541Y-100463215D01*
X160460459Y-100516158D01*
X160385415Y-100533967D01*
X160311520Y-100511869D01*
X160256944Y-100452673D01*
X160215335Y-100371011D01*
X160206875Y-100357984D01*
X160093281Y-100217708D01*
X160082292Y-100206719D01*
X159942016Y-100093125D01*
X159928989Y-100084665D01*
X159768158Y-100002718D01*
X159753656Y-99997151D01*
X159578358Y-99950180D01*
X159564946Y-99947875D01*
X159493201Y-99942229D01*
X159487380Y-99942000D01*
X159273616Y-99942000D01*
X159258145Y-99946145D01*
X159254000Y-99961616D01*
X159254000Y-103605000D01*
X159234038Y-103679500D01*
X159179500Y-103734038D01*
X159105000Y-103754000D01*
X158895000Y-103754000D01*
X158820500Y-103734038D01*
X158765962Y-103679500D01*
X158746000Y-103605000D01*
X158746000Y-99961617D01*
X158741855Y-99946146D01*
X158726384Y-99942001D01*
X158512623Y-99942001D01*
X158506796Y-99942230D01*
X158435052Y-99947875D01*
X158421645Y-99950179D01*
X158246344Y-99997151D01*
X158231842Y-100002718D01*
X158071011Y-100084665D01*
X158057984Y-100093125D01*
X157917708Y-100206719D01*
X157906719Y-100217708D01*
X157793125Y-100357984D01*
X157784665Y-100371011D01*
X157743023Y-100452738D01*
X157691415Y-100510056D01*
X157618061Y-100533890D01*
X157542619Y-100517854D01*
X157483561Y-100463500D01*
X157476861Y-100452673D01*
X157457440Y-100421289D01*
X157451317Y-100415176D01*
X157451314Y-100415173D01*
X157343838Y-100307885D01*
X157343837Y-100307884D01*
X157337711Y-100301769D01*
X157330341Y-100297226D01*
X157201068Y-100217540D01*
X157201064Y-100217538D01*
X157193697Y-100212997D01*
X157185477Y-100210271D01*
X157185476Y-100210270D01*
X157040847Y-100162298D01*
X157040842Y-100162297D01*
X157033124Y-100159737D01*
X157003322Y-100156684D01*
X156936996Y-100149888D01*
X156936992Y-100149888D01*
X156933207Y-100149500D01*
X156463210Y-100149500D01*
X155986794Y-100149501D01*
X155885628Y-100159997D01*
X155877896Y-100162577D01*
X155877894Y-100162577D01*
X155733366Y-100210795D01*
X155733364Y-100210796D01*
X155725148Y-100213537D01*
X155581289Y-100302560D01*
X155575176Y-100308683D01*
X155575173Y-100308686D01*
X155467885Y-100416162D01*
X155461769Y-100422289D01*
X155457228Y-100429656D01*
X155457226Y-100429659D01*
X155377540Y-100558932D01*
X155377538Y-100558936D01*
X155372997Y-100566303D01*
X155370271Y-100574523D01*
X155370270Y-100574524D01*
X155322298Y-100719153D01*
X155322297Y-100719158D01*
X155319737Y-100726876D01*
X155318908Y-100734968D01*
X155309894Y-100822951D01*
X155309500Y-100826793D01*
X155309500Y-103026419D01*
X155289538Y-103100919D01*
X155235000Y-103155457D01*
X155160500Y-103175419D01*
X155121936Y-103170342D01*
X155115788Y-103168695D01*
X155106762Y-103164956D01*
X154950000Y-103144318D01*
X154940315Y-103145593D01*
X154802921Y-103163681D01*
X154802919Y-103163681D01*
X154793238Y-103164956D01*
X154647159Y-103225464D01*
X154521718Y-103321718D01*
X154425464Y-103447159D01*
X154364956Y-103593238D01*
X154363681Y-103602919D01*
X154363681Y-103602921D01*
X154353599Y-103679500D01*
X154344318Y-103750000D01*
X140650000Y-103750000D01*
X140650000Y-97344646D01*
X140999500Y-97344646D01*
X141002618Y-97370846D01*
X141048061Y-97473153D01*
X141057796Y-97482871D01*
X141065589Y-97494210D01*
X141062912Y-97496050D01*
X141090480Y-97543699D01*
X141095593Y-97582396D01*
X141095593Y-97590315D01*
X141094318Y-97600000D01*
X141095593Y-97609685D01*
X141112802Y-97740398D01*
X141114956Y-97756762D01*
X141118693Y-97765784D01*
X141159378Y-97864005D01*
X141175464Y-97902841D01*
X141271718Y-98028282D01*
X141397159Y-98124536D01*
X141406182Y-98128274D01*
X141406183Y-98128274D01*
X141519668Y-98175281D01*
X141543238Y-98185044D01*
X141552919Y-98186319D01*
X141552921Y-98186319D01*
X141690315Y-98204407D01*
X141700000Y-98205682D01*
X141709685Y-98204407D01*
X141847079Y-98186319D01*
X141847081Y-98186319D01*
X141856762Y-98185044D01*
X141880332Y-98175281D01*
X141993817Y-98128274D01*
X141993818Y-98128274D01*
X142002841Y-98124536D01*
X142128282Y-98028282D01*
X142224536Y-97902841D01*
X142240623Y-97864005D01*
X142281307Y-97765784D01*
X142285044Y-97756762D01*
X142287199Y-97740398D01*
X142297710Y-97660554D01*
X142327225Y-97589297D01*
X142360819Y-97557418D01*
X142373153Y-97551939D01*
X142394580Y-97530474D01*
X142461339Y-97491852D01*
X142538468Y-97491784D01*
X142605298Y-97530291D01*
X142627287Y-97552241D01*
X142639867Y-97557803D01*
X142639869Y-97557804D01*
X142719425Y-97592976D01*
X142719429Y-97592977D01*
X142729673Y-97597506D01*
X142739873Y-97598695D01*
X142806031Y-97637279D01*
X142832437Y-97673489D01*
X142845842Y-97699294D01*
X142847926Y-97703465D01*
X142873191Y-97756079D01*
X142878094Y-97761383D01*
X142881421Y-97767788D01*
X142885725Y-97772828D01*
X142922657Y-97809760D01*
X142926712Y-97813978D01*
X142934260Y-97822143D01*
X142965146Y-97855556D01*
X142971754Y-97859394D01*
X142976902Y-97864005D01*
X143206291Y-98093394D01*
X143217944Y-98106507D01*
X143229936Y-98121718D01*
X143238128Y-98132110D01*
X143247290Y-98138442D01*
X143247292Y-98138444D01*
X143286090Y-98165259D01*
X143289898Y-98167980D01*
X143312591Y-98184741D01*
X143336816Y-98202634D01*
X143343632Y-98205027D01*
X143349569Y-98209131D01*
X143401522Y-98225562D01*
X143405165Y-98226714D01*
X143409580Y-98228187D01*
X143464631Y-98247519D01*
X143471845Y-98247802D01*
X143478730Y-98249980D01*
X143485337Y-98250500D01*
X143537571Y-98250500D01*
X143543421Y-98250615D01*
X143588867Y-98252401D01*
X143588869Y-98252401D01*
X143599994Y-98252838D01*
X143607379Y-98250880D01*
X143614282Y-98250500D01*
X143800094Y-98250500D01*
X143874594Y-98270462D01*
X143890799Y-98281290D01*
X143917181Y-98301533D01*
X143947159Y-98324536D01*
X143956182Y-98328274D01*
X143956183Y-98328274D01*
X144003644Y-98347933D01*
X144093238Y-98385044D01*
X144102919Y-98386319D01*
X144102921Y-98386319D01*
X144240315Y-98404407D01*
X144250000Y-98405682D01*
X144259685Y-98404407D01*
X144397079Y-98386319D01*
X144397081Y-98386319D01*
X144406762Y-98385044D01*
X144496356Y-98347933D01*
X144543817Y-98328274D01*
X144543818Y-98328274D01*
X144552841Y-98324536D01*
X144678282Y-98228282D01*
X144774536Y-98102841D01*
X144778351Y-98093632D01*
X144831307Y-97965784D01*
X144835044Y-97956762D01*
X144836515Y-97945593D01*
X144854407Y-97809685D01*
X144855682Y-97800000D01*
X144854407Y-97790315D01*
X144851594Y-97768948D01*
X144861661Y-97692480D01*
X144908614Y-97631290D01*
X144979871Y-97601775D01*
X144999319Y-97600500D01*
X145244646Y-97600500D01*
X145270846Y-97597382D01*
X145373153Y-97551939D01*
X145394580Y-97530474D01*
X145461339Y-97491852D01*
X145538468Y-97491784D01*
X145605298Y-97530291D01*
X145627287Y-97552241D01*
X145639867Y-97557803D01*
X145639869Y-97557804D01*
X145719426Y-97592976D01*
X145729673Y-97597506D01*
X145744318Y-97599213D01*
X145751070Y-97600001D01*
X145751078Y-97600001D01*
X145755354Y-97600500D01*
X146744646Y-97600500D01*
X146770846Y-97597382D01*
X146873153Y-97551939D01*
X146894580Y-97530474D01*
X146961339Y-97491852D01*
X147038468Y-97491784D01*
X147105298Y-97530291D01*
X147127287Y-97552241D01*
X147139867Y-97557803D01*
X147139869Y-97557804D01*
X147219426Y-97592976D01*
X147229673Y-97597506D01*
X147244318Y-97599213D01*
X147251070Y-97600001D01*
X147251078Y-97600001D01*
X147255354Y-97600500D01*
X148244646Y-97600500D01*
X148270846Y-97597382D01*
X148373153Y-97551939D01*
X148394580Y-97530474D01*
X148461339Y-97491852D01*
X148538468Y-97491784D01*
X148605298Y-97530291D01*
X148627287Y-97552241D01*
X148639867Y-97557803D01*
X148639869Y-97557804D01*
X148719426Y-97592976D01*
X148729673Y-97597506D01*
X148744318Y-97599213D01*
X148751070Y-97600001D01*
X148751078Y-97600001D01*
X148755354Y-97600500D01*
X148952679Y-97600500D01*
X149027179Y-97620462D01*
X149081717Y-97675000D01*
X149101679Y-97749500D01*
X149081717Y-97824000D01*
X149058038Y-97854859D01*
X148956606Y-97956291D01*
X148943493Y-97967944D01*
X148917890Y-97988128D01*
X148911558Y-97997290D01*
X148911556Y-97997292D01*
X148884741Y-98036090D01*
X148882020Y-98039898D01*
X148847366Y-98086816D01*
X148844973Y-98093632D01*
X148840869Y-98099569D01*
X148832973Y-98124536D01*
X148823286Y-98155165D01*
X148821813Y-98159580D01*
X148802481Y-98214631D01*
X148802198Y-98221845D01*
X148800020Y-98228730D01*
X148799500Y-98235337D01*
X148799500Y-98287571D01*
X148799385Y-98293420D01*
X148797162Y-98349994D01*
X148799120Y-98357379D01*
X148799500Y-98364282D01*
X148799500Y-99050094D01*
X148779538Y-99124594D01*
X148768710Y-99140799D01*
X148733321Y-99186920D01*
X148725464Y-99197159D01*
X148721726Y-99206182D01*
X148721726Y-99206183D01*
X148689526Y-99283921D01*
X148664956Y-99343238D01*
X148663681Y-99352919D01*
X148663681Y-99352921D01*
X148648485Y-99468347D01*
X148644318Y-99500000D01*
X148664956Y-99656762D01*
X148668693Y-99665784D01*
X148719450Y-99788321D01*
X148725464Y-99802841D01*
X148821718Y-99928282D01*
X148947159Y-100024536D01*
X149093238Y-100085044D01*
X149102919Y-100086319D01*
X149102921Y-100086319D01*
X149240315Y-100104407D01*
X149250000Y-100105682D01*
X149259685Y-100104407D01*
X149397079Y-100086319D01*
X149397081Y-100086319D01*
X149406762Y-100085044D01*
X149552841Y-100024536D01*
X149678282Y-99928282D01*
X149774536Y-99802841D01*
X149780551Y-99788321D01*
X149831307Y-99665784D01*
X149835044Y-99656762D01*
X149855682Y-99500000D01*
X149851515Y-99468347D01*
X149836319Y-99352921D01*
X149836319Y-99352919D01*
X149835044Y-99343238D01*
X149810474Y-99283921D01*
X149778274Y-99206183D01*
X149778274Y-99206182D01*
X149774536Y-99197159D01*
X149766679Y-99186920D01*
X149731290Y-99140799D01*
X149701775Y-99069541D01*
X149700500Y-99050094D01*
X149700500Y-98548321D01*
X149720462Y-98473821D01*
X149744141Y-98442962D01*
X149842962Y-98344141D01*
X149909757Y-98305577D01*
X149948321Y-98300500D01*
X150464428Y-98300500D01*
X150481941Y-98301533D01*
X150514310Y-98305364D01*
X150525266Y-98303363D01*
X150525269Y-98303363D01*
X150571668Y-98294889D01*
X150576284Y-98294121D01*
X150622943Y-98287106D01*
X150622945Y-98287105D01*
X150633962Y-98285449D01*
X150640475Y-98282321D01*
X150647573Y-98281025D01*
X150699313Y-98254148D01*
X150703465Y-98252074D01*
X150756079Y-98226809D01*
X150761383Y-98221906D01*
X150767788Y-98218579D01*
X150772828Y-98214275D01*
X150809760Y-98177343D01*
X150813978Y-98173288D01*
X150847377Y-98142415D01*
X150847378Y-98142413D01*
X150855556Y-98134854D01*
X150859394Y-98128246D01*
X150864005Y-98123098D01*
X151043394Y-97943709D01*
X151056507Y-97932056D01*
X151073364Y-97918767D01*
X151073364Y-97918766D01*
X151082110Y-97911872D01*
X151088444Y-97902708D01*
X151115259Y-97863910D01*
X151117980Y-97860102D01*
X151146017Y-97822143D01*
X151146018Y-97822142D01*
X151152634Y-97813184D01*
X151155027Y-97806368D01*
X151159131Y-97800431D01*
X151176715Y-97744832D01*
X151178194Y-97740398D01*
X151197519Y-97685370D01*
X151200297Y-97686346D01*
X151226186Y-97632794D01*
X151278490Y-97593987D01*
X151324025Y-97573761D01*
X151360582Y-97557523D01*
X151360583Y-97557522D01*
X151373153Y-97551939D01*
X151394580Y-97530474D01*
X151461339Y-97491852D01*
X151538468Y-97491784D01*
X151605298Y-97530291D01*
X151627287Y-97552241D01*
X151639867Y-97557803D01*
X151639869Y-97557804D01*
X151719426Y-97592976D01*
X151729673Y-97597506D01*
X151744318Y-97599213D01*
X151751070Y-97600001D01*
X151751078Y-97600001D01*
X151755354Y-97600500D01*
X152744646Y-97600500D01*
X152770846Y-97597382D01*
X152773698Y-97596115D01*
X152846180Y-97595651D01*
X152913220Y-97633786D01*
X152927771Y-97650461D01*
X152930729Y-97654408D01*
X152945593Y-97669272D01*
X153045041Y-97743804D01*
X153063480Y-97753899D01*
X153181044Y-97797972D01*
X153199079Y-97802261D01*
X153247912Y-97807566D01*
X153255938Y-97808000D01*
X153476384Y-97808000D01*
X153491855Y-97803855D01*
X153496000Y-97788384D01*
X153496000Y-97788383D01*
X154004000Y-97788383D01*
X154008145Y-97803854D01*
X154023616Y-97807999D01*
X154244060Y-97807999D01*
X154252091Y-97807564D01*
X154300923Y-97802260D01*
X154318953Y-97797973D01*
X154436520Y-97753899D01*
X154454959Y-97743804D01*
X154554407Y-97669272D01*
X154569272Y-97654407D01*
X154643804Y-97554959D01*
X154653899Y-97536520D01*
X154697972Y-97418956D01*
X154702261Y-97400921D01*
X154707566Y-97352088D01*
X154708000Y-97344062D01*
X154708000Y-96823616D01*
X154703855Y-96808145D01*
X154688384Y-96804000D01*
X154023616Y-96804000D01*
X154008145Y-96808145D01*
X154004000Y-96823616D01*
X154004000Y-97788383D01*
X153496000Y-97788383D01*
X153496000Y-96276384D01*
X154004000Y-96276384D01*
X154008145Y-96291855D01*
X154023616Y-96296000D01*
X154688383Y-96296000D01*
X154703854Y-96291855D01*
X154707999Y-96276384D01*
X154707999Y-95755940D01*
X154707564Y-95747909D01*
X154702260Y-95699077D01*
X154697973Y-95681047D01*
X154653899Y-95563480D01*
X154643804Y-95545041D01*
X154569272Y-95445593D01*
X154554407Y-95430728D01*
X154454959Y-95356196D01*
X154436520Y-95346101D01*
X154318956Y-95302028D01*
X154300921Y-95297739D01*
X154252088Y-95292434D01*
X154244062Y-95292000D01*
X154023616Y-95292000D01*
X154008145Y-95296145D01*
X154004000Y-95311616D01*
X154004000Y-96276384D01*
X153496000Y-96276384D01*
X153496000Y-95311617D01*
X153491855Y-95296146D01*
X153476384Y-95292001D01*
X153255940Y-95292001D01*
X153247909Y-95292436D01*
X153199077Y-95297740D01*
X153181047Y-95302027D01*
X153053538Y-95349828D01*
X153052808Y-95347881D01*
X152991248Y-95362884D01*
X152917221Y-95341234D01*
X152863937Y-95285470D01*
X152846910Y-95233371D01*
X152845942Y-95226014D01*
X152835044Y-95143238D01*
X152774536Y-94997159D01*
X152678282Y-94871718D01*
X152552841Y-94775464D01*
X152406762Y-94714956D01*
X152397081Y-94713681D01*
X152397079Y-94713681D01*
X152259685Y-94695593D01*
X152250000Y-94694318D01*
X152240315Y-94695593D01*
X152102921Y-94713681D01*
X152102919Y-94713681D01*
X152093238Y-94714956D01*
X151947159Y-94775464D01*
X151821718Y-94871718D01*
X151725464Y-94997159D01*
X151664956Y-95143238D01*
X151644318Y-95300000D01*
X151651717Y-95356196D01*
X151661555Y-95430925D01*
X151651488Y-95507394D01*
X151619282Y-95555640D01*
X151605418Y-95569528D01*
X151538658Y-95608149D01*
X151461529Y-95608215D01*
X151394701Y-95569709D01*
X151382448Y-95557477D01*
X151372713Y-95547759D01*
X151360133Y-95542197D01*
X151360131Y-95542196D01*
X151280574Y-95507024D01*
X151280573Y-95507024D01*
X151270327Y-95502494D01*
X151255682Y-95500787D01*
X151248930Y-95499999D01*
X151248922Y-95499999D01*
X151244646Y-95499500D01*
X150255354Y-95499500D01*
X150229154Y-95502618D01*
X150126847Y-95548061D01*
X150105420Y-95569526D01*
X150038661Y-95608148D01*
X149961532Y-95608216D01*
X149894698Y-95569706D01*
X149880887Y-95555918D01*
X149842267Y-95489155D01*
X149838433Y-95431023D01*
X149854407Y-95309685D01*
X149854407Y-95309683D01*
X149855682Y-95300000D01*
X149835044Y-95143238D01*
X149774536Y-94997159D01*
X149678282Y-94871718D01*
X149552841Y-94775464D01*
X149406762Y-94714956D01*
X149397081Y-94713681D01*
X149397079Y-94713681D01*
X149259685Y-94695593D01*
X149250000Y-94694318D01*
X149240315Y-94695593D01*
X149102921Y-94713681D01*
X149102919Y-94713681D01*
X149093238Y-94714956D01*
X148947159Y-94775464D01*
X148821718Y-94871718D01*
X148725464Y-94997159D01*
X148664956Y-95143238D01*
X148663681Y-95152919D01*
X148663681Y-95152921D01*
X148647725Y-95274121D01*
X148639304Y-95294451D01*
X148647725Y-95325877D01*
X148651717Y-95356196D01*
X148661555Y-95430925D01*
X148651488Y-95507393D01*
X148619282Y-95555640D01*
X148605418Y-95569528D01*
X148538658Y-95608149D01*
X148461529Y-95608215D01*
X148394698Y-95569706D01*
X148380887Y-95555918D01*
X148342267Y-95489155D01*
X148338433Y-95431023D01*
X148352275Y-95325879D01*
X148360696Y-95305549D01*
X148352275Y-95274121D01*
X148336319Y-95152921D01*
X148336319Y-95152919D01*
X148335044Y-95143238D01*
X148274536Y-94997159D01*
X148178282Y-94871718D01*
X148052841Y-94775464D01*
X147906762Y-94714956D01*
X147897081Y-94713681D01*
X147897079Y-94713681D01*
X147759685Y-94695593D01*
X147750000Y-94694318D01*
X147740315Y-94695593D01*
X147602921Y-94713681D01*
X147602919Y-94713681D01*
X147593238Y-94714956D01*
X147447159Y-94775464D01*
X147321718Y-94871718D01*
X147225464Y-94997159D01*
X147164956Y-95143238D01*
X147144318Y-95300000D01*
X147151717Y-95356196D01*
X147161555Y-95430925D01*
X147151488Y-95507394D01*
X147119282Y-95555640D01*
X147105418Y-95569528D01*
X147038658Y-95608149D01*
X146961529Y-95608215D01*
X146894701Y-95569709D01*
X146882448Y-95557477D01*
X146872713Y-95547759D01*
X146860133Y-95542197D01*
X146860131Y-95542196D01*
X146780574Y-95507024D01*
X146780573Y-95507024D01*
X146770327Y-95502494D01*
X146755682Y-95500787D01*
X146748930Y-95499999D01*
X146748922Y-95499999D01*
X146744646Y-95499500D01*
X145755354Y-95499500D01*
X145729154Y-95502618D01*
X145626847Y-95548061D01*
X145605420Y-95569526D01*
X145538661Y-95608148D01*
X145461532Y-95608216D01*
X145394701Y-95569709D01*
X145382448Y-95557477D01*
X145372713Y-95547759D01*
X145360133Y-95542197D01*
X145360131Y-95542196D01*
X145280574Y-95507024D01*
X145280573Y-95507024D01*
X145270327Y-95502494D01*
X145255682Y-95500787D01*
X145248930Y-95499999D01*
X145248922Y-95499999D01*
X145244646Y-95499500D01*
X144255354Y-95499500D01*
X144229154Y-95502618D01*
X144126847Y-95548061D01*
X144105420Y-95569526D01*
X144038661Y-95608148D01*
X143961532Y-95608216D01*
X143894698Y-95569706D01*
X143880887Y-95555918D01*
X143842267Y-95489155D01*
X143838433Y-95431023D01*
X143854407Y-95309685D01*
X143854407Y-95309683D01*
X143855682Y-95300000D01*
X143835044Y-95143238D01*
X143774536Y-94997159D01*
X143678282Y-94871718D01*
X143552841Y-94775464D01*
X143406762Y-94714956D01*
X143397081Y-94713681D01*
X143397079Y-94713681D01*
X143259685Y-94695593D01*
X143250000Y-94694318D01*
X143240315Y-94695593D01*
X143102921Y-94713681D01*
X143102919Y-94713681D01*
X143093238Y-94714956D01*
X142947159Y-94775464D01*
X142821718Y-94871718D01*
X142725464Y-94997159D01*
X142664956Y-95143238D01*
X142644318Y-95300000D01*
X142651717Y-95356196D01*
X142661555Y-95430925D01*
X142651488Y-95507394D01*
X142619282Y-95555640D01*
X142605418Y-95569528D01*
X142538658Y-95608149D01*
X142461529Y-95608215D01*
X142394701Y-95569709D01*
X142382448Y-95557477D01*
X142372713Y-95547759D01*
X142360133Y-95542197D01*
X142360131Y-95542196D01*
X142280574Y-95507024D01*
X142280573Y-95507024D01*
X142270327Y-95502494D01*
X142255682Y-95500787D01*
X142248930Y-95499999D01*
X142248922Y-95499999D01*
X142244646Y-95499500D01*
X141255354Y-95499500D01*
X141229154Y-95502618D01*
X141126847Y-95548061D01*
X141047759Y-95627287D01*
X141042197Y-95639867D01*
X141042196Y-95639869D01*
X141007024Y-95719426D01*
X141002494Y-95729673D01*
X140999500Y-95755354D01*
X140999500Y-97344646D01*
X140650000Y-97344646D01*
X140650000Y-93449500D01*
X140669962Y-93375000D01*
X140724500Y-93320462D01*
X140799000Y-93300500D01*
X160960674Y-93300500D01*
X160986548Y-93302764D01*
G37*
G04 #@! TD.AperFunction*
M02*
