G04 #@! TF.GenerationSoftware,KiCad,Pcbnew,(6.0.4)*
G04 #@! TF.CreationDate,2023-03-05T19:47:51+01:00*
G04 #@! TF.ProjectId,hair-02,68616972-2d30-4322-9e6b-696361645f70,rev?*
G04 #@! TF.SameCoordinates,Original*
G04 #@! TF.FileFunction,Legend,Bot*
G04 #@! TF.FilePolarity,Positive*
%FSLAX46Y46*%
G04 Gerber Fmt 4.6, Leading zero omitted, Abs format (unit mm)*
G04 Created by KiCad (PCBNEW (6.0.4)) date 2023-03-05 19:47:51*
%MOMM*%
%LPD*%
G01*
G04 APERTURE LIST*
G04 Aperture macros list*
%AMRoundRect*
0 Rectangle with rounded corners*
0 $1 Rounding radius*
0 $2 $3 $4 $5 $6 $7 $8 $9 X,Y pos of 4 corners*
0 Add a 4 corners polygon primitive as box body*
4,1,4,$2,$3,$4,$5,$6,$7,$8,$9,$2,$3,0*
0 Add four circle primitives for the rounded corners*
1,1,$1+$1,$2,$3*
1,1,$1+$1,$4,$5*
1,1,$1+$1,$6,$7*
1,1,$1+$1,$8,$9*
0 Add four rect primitives between the rounded corners*
20,1,$1+$1,$2,$3,$4,$5,0*
20,1,$1+$1,$4,$5,$6,$7,0*
20,1,$1+$1,$6,$7,$8,$9,0*
20,1,$1+$1,$8,$9,$2,$3,0*%
G04 Aperture macros list end*
%ADD10C,0.120000*%
%ADD11C,0.650000*%
%ADD12O,1.000000X2.100000*%
%ADD13O,1.000000X1.600000*%
%ADD14RoundRect,0.218750X-0.218750X-0.256250X0.218750X-0.256250X0.218750X0.256250X-0.218750X0.256250X0*%
%ADD15R,0.900000X1.500000*%
%ADD16R,0.700000X0.700000*%
%ADD17RoundRect,0.218750X0.218750X0.256250X-0.218750X0.256250X-0.218750X-0.256250X0.218750X-0.256250X0*%
%ADD18RoundRect,0.425000X-0.425000X-2.625000X0.425000X-2.625000X0.425000X2.625000X-0.425000X2.625000X0*%
G04 APERTURE END LIST*
D10*
X150262742Y-116410000D02*
X150737258Y-116410000D01*
X150262742Y-115390000D02*
X150737258Y-115390000D01*
X134530000Y-96180000D02*
X140530000Y-96180000D01*
X140530000Y-96180000D02*
X140530000Y-95180000D01*
X154460000Y-114420000D02*
X154770000Y-114420000D01*
X154770000Y-96180000D02*
X154770000Y-97180000D01*
X154460000Y-96180000D02*
X154770000Y-96180000D01*
X134530000Y-96180000D02*
X134530000Y-114420000D01*
X134530000Y-114420000D02*
X140530000Y-114420000D01*
X154770000Y-113420000D02*
X154770000Y-114420000D01*
X146737258Y-116410000D02*
X146262742Y-116410000D01*
X146737258Y-115390000D02*
X146276274Y-115390000D01*
X162000000Y-114550000D02*
X162000000Y-106850000D01*
X156000000Y-114550000D02*
X156000000Y-106850000D01*
X156000000Y-106850000D02*
X155310000Y-106850000D01*
X155310000Y-106850000D02*
X155310000Y-103500000D01*
%LPC*%
D11*
X145610000Y-112250000D03*
X151390000Y-112250000D03*
D12*
X144180000Y-111720000D03*
D13*
X144180000Y-115900000D03*
D12*
X152820000Y-111720000D03*
D13*
X152820000Y-115900000D03*
D14*
X149712500Y-115900000D03*
X151287500Y-115900000D03*
D15*
X141750000Y-96550000D03*
X143250000Y-96550000D03*
X144750000Y-96550000D03*
X146250000Y-96550000D03*
X147750000Y-96550000D03*
X149250000Y-96550000D03*
X150750000Y-96550000D03*
X152250000Y-96550000D03*
X153750000Y-96550000D03*
X153750000Y-114050000D03*
X152250000Y-114050000D03*
X150750000Y-114050000D03*
X149250000Y-114050000D03*
X147750000Y-114050000D03*
X146250000Y-114050000D03*
X144750000Y-114050000D03*
X143250000Y-114050000D03*
X141750000Y-114050000D03*
D16*
X147950000Y-105160000D03*
X146850000Y-107360000D03*
X149050000Y-107360000D03*
X146850000Y-105160000D03*
X149050000Y-106260000D03*
X146850000Y-106260000D03*
X147950000Y-106260000D03*
X149050000Y-105160000D03*
X147950000Y-107360000D03*
D17*
X147287500Y-115900000D03*
X145712500Y-115900000D03*
D18*
X161540000Y-103500000D03*
X159000000Y-103500000D03*
X156460000Y-103500000D03*
M02*
