%FSLAX45Y45*%
G04 Gerber Fmt 4.5, Leading zero omitted, Abs format (unit mm)*
G04 Created by KiCad (PCBNEW (6.0.4)) date 2023-03-05 19:49:56*
%MOMM*%
%LPD*%
G01*
G04 APERTURE LIST*
%TA.AperFunction,Profile*%
%ADD10C,0.100000*%
%TD*%
%ADD11C,0.200000*%
%ADD12C,0.030000*%
%ADD13C,0.060000*%
G04 APERTURE END LIST*
D10*
X16350000Y-9550000D02*
X16350000Y-11450000D01*
X16100000Y-11700000D02*
G75*
G03*
X16350000Y-11450000I0J250000D01*
G01*
X13350000Y-11450000D02*
G75*
G03*
X13600000Y-11700000I250000J0D01*
G01*
X16350000Y-9550000D02*
G75*
G03*
X16100000Y-9300000I-250000J0D01*
G01*
X16100000Y-11700000D02*
X13600000Y-11700000D01*
X13600000Y-9300000D02*
G75*
G03*
X13350000Y-9550000I0J-250000D01*
G01*
X13600000Y-9300000D02*
X16100000Y-9300000D01*
X13350000Y-11450000D02*
X13350000Y-9550000D01*
D11*
D12*
X14090000Y-11545000D02*
X14120000Y-11575000D01*
X14120000Y-11545000D02*
X14090000Y-11575000D01*
X14105000Y-10605000D02*
X14135000Y-10635000D01*
X14135000Y-10605000D02*
X14105000Y-10635000D01*
X14155000Y-9745000D02*
X14185000Y-9775000D01*
X14185000Y-9745000D02*
X14155000Y-9775000D01*
X14230000Y-10810000D02*
X14260000Y-10840000D01*
X14260000Y-10810000D02*
X14230000Y-10840000D01*
X14310000Y-9515000D02*
X14340000Y-9545000D01*
X14340000Y-9515000D02*
X14310000Y-9545000D01*
X14310000Y-9905000D02*
X14340000Y-9935000D01*
X14340000Y-9905000D02*
X14310000Y-9935000D01*
X14410000Y-9765000D02*
X14440000Y-9795000D01*
X14440000Y-9765000D02*
X14410000Y-9795000D01*
X14435000Y-9895000D02*
X14465000Y-9925000D01*
X14465000Y-9895000D02*
X14435000Y-9925000D01*
X14435000Y-10395000D02*
X14465000Y-10425000D01*
X14465000Y-10395000D02*
X14435000Y-10425000D01*
X14480000Y-11280000D02*
X14510000Y-11310000D01*
X14510000Y-11280000D02*
X14480000Y-11310000D01*
X14560000Y-9485000D02*
X14590000Y-9515000D01*
X14590000Y-9485000D02*
X14560000Y-9515000D01*
X14560000Y-10905000D02*
X14590000Y-10935000D01*
X14590000Y-10905000D02*
X14560000Y-10935000D01*
X14620000Y-10905000D02*
X14650000Y-10935000D01*
X14650000Y-10905000D02*
X14620000Y-10935000D01*
X14715000Y-11215000D02*
X14745000Y-11245000D01*
X14745000Y-11215000D02*
X14715000Y-11245000D01*
X14720000Y-9850000D02*
X14750000Y-9880000D01*
X14750000Y-9850000D02*
X14720000Y-9880000D01*
X14760000Y-9515000D02*
X14790000Y-9545000D01*
X14790000Y-9515000D02*
X14760000Y-9545000D01*
X14795000Y-11215000D02*
X14825000Y-11245000D01*
X14825000Y-11215000D02*
X14795000Y-11245000D01*
X14795000Y-11575000D02*
X14825000Y-11605000D01*
X14825000Y-11575000D02*
X14795000Y-11605000D01*
X14875000Y-11215000D02*
X14905000Y-11245000D01*
X14905000Y-11215000D02*
X14875000Y-11245000D01*
X14875000Y-11575000D02*
X14905000Y-11605000D01*
X14905000Y-11575000D02*
X14875000Y-11605000D01*
X14910000Y-9515000D02*
X14940000Y-9545000D01*
X14940000Y-9515000D02*
X14910000Y-9545000D01*
X14910000Y-9935000D02*
X14940000Y-9965000D01*
X14940000Y-9935000D02*
X14910000Y-9965000D01*
X14955000Y-11215000D02*
X14985000Y-11245000D01*
X14985000Y-11215000D02*
X14955000Y-11245000D01*
X15000000Y-10720000D02*
X15030000Y-10750000D01*
X15030000Y-10720000D02*
X15000000Y-10750000D01*
X15050000Y-10905000D02*
X15080000Y-10935000D01*
X15080000Y-10905000D02*
X15050000Y-10935000D01*
X15110000Y-9485000D02*
X15140000Y-9515000D01*
X15140000Y-9485000D02*
X15110000Y-9515000D01*
X15110000Y-10905000D02*
X15140000Y-10935000D01*
X15140000Y-10905000D02*
X15110000Y-10935000D01*
X15210000Y-9515000D02*
X15240000Y-9545000D01*
X15240000Y-9515000D02*
X15210000Y-9545000D01*
X15215000Y-10595000D02*
X15245000Y-10625000D01*
X15245000Y-10595000D02*
X15215000Y-10625000D01*
X15240000Y-10710000D02*
X15270000Y-10740000D01*
X15270000Y-10710000D02*
X15240000Y-10740000D01*
X15405000Y-10145000D02*
X15435000Y-10175000D01*
X15435000Y-10145000D02*
X15405000Y-10175000D01*
X15480000Y-10360000D02*
X15510000Y-10390000D01*
X15510000Y-10360000D02*
X15480000Y-10390000D01*
X15885000Y-9840000D02*
X15915000Y-9870000D01*
X15915000Y-9840000D02*
X15885000Y-9870000D01*
D13*
X14448000Y-11172000D02*
G75*
G03*
X14448000Y-11172000I-30000J0D01*
G01*
D11*
X14398000Y-11117000D02*
X14398000Y-11227000D01*
X14438000Y-11117000D02*
X14438000Y-11227000D01*
X14398000Y-11227000D02*
G75*
G03*
X14438000Y-11227000I20000J0D01*
G01*
X14438000Y-11117000D02*
G75*
G03*
X14398000Y-11117000I-20000J0D01*
G01*
D13*
X14448000Y-11590000D02*
G75*
G03*
X14448000Y-11590000I-30000J0D01*
G01*
D11*
X14398000Y-11560000D02*
X14398000Y-11620000D01*
X14438000Y-11560000D02*
X14438000Y-11620000D01*
X14398000Y-11620000D02*
G75*
G03*
X14438000Y-11620000I20000J0D01*
G01*
X14438000Y-11560000D02*
G75*
G03*
X14398000Y-11560000I-20000J0D01*
G01*
D13*
X15312000Y-11172000D02*
G75*
G03*
X15312000Y-11172000I-30000J0D01*
G01*
D11*
X15262000Y-11117000D02*
X15262000Y-11227000D01*
X15302000Y-11117000D02*
X15302000Y-11227000D01*
X15262000Y-11227000D02*
G75*
G03*
X15302000Y-11227000I20000J0D01*
G01*
X15302000Y-11117000D02*
G75*
G03*
X15262000Y-11117000I-20000J0D01*
G01*
D13*
X15312000Y-11590000D02*
G75*
G03*
X15312000Y-11590000I-30000J0D01*
G01*
D11*
X15262000Y-11560000D02*
X15262000Y-11620000D01*
X15302000Y-11560000D02*
X15302000Y-11620000D01*
X15262000Y-11620000D02*
G75*
G03*
X15302000Y-11620000I20000J0D01*
G01*
X15302000Y-11560000D02*
G75*
G03*
X15262000Y-11560000I-20000J0D01*
G01*
X13602619Y-12015476D02*
X13602619Y-11815476D01*
X13650238Y-11815476D01*
X13678809Y-11825000D01*
X13697857Y-11844048D01*
X13707381Y-11863095D01*
X13716905Y-11901190D01*
X13716905Y-11929762D01*
X13707381Y-11967857D01*
X13697857Y-11986905D01*
X13678809Y-12005952D01*
X13650238Y-12015476D01*
X13602619Y-12015476D01*
X13802619Y-12015476D02*
X13802619Y-11882143D01*
X13802619Y-11920238D02*
X13812143Y-11901190D01*
X13821667Y-11891667D01*
X13840714Y-11882143D01*
X13859762Y-11882143D01*
X13926428Y-12015476D02*
X13926428Y-11882143D01*
X13926428Y-11815476D02*
X13916905Y-11825000D01*
X13926428Y-11834524D01*
X13935952Y-11825000D01*
X13926428Y-11815476D01*
X13926428Y-11834524D01*
X14050238Y-12015476D02*
X14031190Y-12005952D01*
X14021667Y-11986905D01*
X14021667Y-11815476D01*
X14155000Y-12015476D02*
X14135952Y-12005952D01*
X14126428Y-11986905D01*
X14126428Y-11815476D01*
X14383571Y-12015476D02*
X14383571Y-11815476D01*
X14450238Y-11958333D01*
X14516905Y-11815476D01*
X14516905Y-12015476D01*
X14697857Y-12015476D02*
X14697857Y-11910714D01*
X14688333Y-11891667D01*
X14669286Y-11882143D01*
X14631190Y-11882143D01*
X14612143Y-11891667D01*
X14697857Y-12005952D02*
X14678809Y-12015476D01*
X14631190Y-12015476D01*
X14612143Y-12005952D01*
X14602619Y-11986905D01*
X14602619Y-11967857D01*
X14612143Y-11948809D01*
X14631190Y-11939286D01*
X14678809Y-11939286D01*
X14697857Y-11929762D01*
X14793095Y-11882143D02*
X14793095Y-12082143D01*
X14793095Y-11891667D02*
X14812143Y-11882143D01*
X14850238Y-11882143D01*
X14869286Y-11891667D01*
X14878809Y-11901190D01*
X14888333Y-11920238D01*
X14888333Y-11977381D01*
X14878809Y-11996428D01*
X14869286Y-12005952D01*
X14850238Y-12015476D01*
X14812143Y-12015476D01*
X14793095Y-12005952D01*
X14974048Y-11996428D02*
X14983571Y-12005952D01*
X14974048Y-12015476D01*
X14964524Y-12005952D01*
X14974048Y-11996428D01*
X14974048Y-12015476D01*
X14974048Y-11891667D02*
X14983571Y-11901190D01*
X14974048Y-11910714D01*
X14964524Y-11901190D01*
X14974048Y-11891667D01*
X14974048Y-11910714D01*
D12*
X13315000Y-12330000D02*
X13345000Y-12360000D01*
X13345000Y-12330000D02*
X13315000Y-12360000D01*
D11*
X13640714Y-12235476D02*
X13659762Y-12235476D01*
X13678809Y-12245000D01*
X13688333Y-12254524D01*
X13697857Y-12273571D01*
X13707381Y-12311667D01*
X13707381Y-12359286D01*
X13697857Y-12397381D01*
X13688333Y-12416428D01*
X13678809Y-12425952D01*
X13659762Y-12435476D01*
X13640714Y-12435476D01*
X13621667Y-12425952D01*
X13612143Y-12416428D01*
X13602619Y-12397381D01*
X13593095Y-12359286D01*
X13593095Y-12311667D01*
X13602619Y-12273571D01*
X13612143Y-12254524D01*
X13621667Y-12245000D01*
X13640714Y-12235476D01*
X13793095Y-12416428D02*
X13802619Y-12425952D01*
X13793095Y-12435476D01*
X13783571Y-12425952D01*
X13793095Y-12416428D01*
X13793095Y-12435476D01*
X13869286Y-12235476D02*
X13993095Y-12235476D01*
X13926428Y-12311667D01*
X13955000Y-12311667D01*
X13974048Y-12321190D01*
X13983571Y-12330714D01*
X13993095Y-12349762D01*
X13993095Y-12397381D01*
X13983571Y-12416428D01*
X13974048Y-12425952D01*
X13955000Y-12435476D01*
X13897857Y-12435476D01*
X13878809Y-12425952D01*
X13869286Y-12416428D01*
X14116905Y-12235476D02*
X14135952Y-12235476D01*
X14155000Y-12245000D01*
X14164524Y-12254524D01*
X14174048Y-12273571D01*
X14183571Y-12311667D01*
X14183571Y-12359286D01*
X14174048Y-12397381D01*
X14164524Y-12416428D01*
X14155000Y-12425952D01*
X14135952Y-12435476D01*
X14116905Y-12435476D01*
X14097857Y-12425952D01*
X14088333Y-12416428D01*
X14078809Y-12397381D01*
X14069286Y-12359286D01*
X14069286Y-12311667D01*
X14078809Y-12273571D01*
X14088333Y-12254524D01*
X14097857Y-12245000D01*
X14116905Y-12235476D01*
X14307381Y-12235476D02*
X14326428Y-12235476D01*
X14345476Y-12245000D01*
X14355000Y-12254524D01*
X14364524Y-12273571D01*
X14374048Y-12311667D01*
X14374048Y-12359286D01*
X14364524Y-12397381D01*
X14355000Y-12416428D01*
X14345476Y-12425952D01*
X14326428Y-12435476D01*
X14307381Y-12435476D01*
X14288333Y-12425952D01*
X14278809Y-12416428D01*
X14269286Y-12397381D01*
X14259762Y-12359286D01*
X14259762Y-12311667D01*
X14269286Y-12273571D01*
X14278809Y-12254524D01*
X14288333Y-12245000D01*
X14307381Y-12235476D01*
X14459762Y-12435476D02*
X14459762Y-12302143D01*
X14459762Y-12321190D02*
X14469286Y-12311667D01*
X14488333Y-12302143D01*
X14516905Y-12302143D01*
X14535952Y-12311667D01*
X14545476Y-12330714D01*
X14545476Y-12435476D01*
X14545476Y-12330714D02*
X14555000Y-12311667D01*
X14574048Y-12302143D01*
X14602619Y-12302143D01*
X14621667Y-12311667D01*
X14631190Y-12330714D01*
X14631190Y-12435476D01*
X14726428Y-12435476D02*
X14726428Y-12302143D01*
X14726428Y-12321190D02*
X14735952Y-12311667D01*
X14755000Y-12302143D01*
X14783571Y-12302143D01*
X14802619Y-12311667D01*
X14812143Y-12330714D01*
X14812143Y-12435476D01*
X14812143Y-12330714D02*
X14821667Y-12311667D01*
X14840714Y-12302143D01*
X14869286Y-12302143D01*
X14888333Y-12311667D01*
X14897857Y-12330714D01*
X14897857Y-12435476D01*
X15288333Y-12225952D02*
X15116905Y-12483095D01*
X15545476Y-12235476D02*
X15564524Y-12235476D01*
X15583571Y-12245000D01*
X15593095Y-12254524D01*
X15602619Y-12273571D01*
X15612143Y-12311667D01*
X15612143Y-12359286D01*
X15602619Y-12397381D01*
X15593095Y-12416428D01*
X15583571Y-12425952D01*
X15564524Y-12435476D01*
X15545476Y-12435476D01*
X15526428Y-12425952D01*
X15516905Y-12416428D01*
X15507381Y-12397381D01*
X15497857Y-12359286D01*
X15497857Y-12311667D01*
X15507381Y-12273571D01*
X15516905Y-12254524D01*
X15526428Y-12245000D01*
X15545476Y-12235476D01*
X15697857Y-12416428D02*
X15707381Y-12425952D01*
X15697857Y-12435476D01*
X15688333Y-12425952D01*
X15697857Y-12416428D01*
X15697857Y-12435476D01*
X15831190Y-12235476D02*
X15850238Y-12235476D01*
X15869286Y-12245000D01*
X15878809Y-12254524D01*
X15888333Y-12273571D01*
X15897857Y-12311667D01*
X15897857Y-12359286D01*
X15888333Y-12397381D01*
X15878809Y-12416428D01*
X15869286Y-12425952D01*
X15850238Y-12435476D01*
X15831190Y-12435476D01*
X15812143Y-12425952D01*
X15802619Y-12416428D01*
X15793095Y-12397381D01*
X15783571Y-12359286D01*
X15783571Y-12311667D01*
X15793095Y-12273571D01*
X15802619Y-12254524D01*
X15812143Y-12245000D01*
X15831190Y-12235476D01*
X16088333Y-12435476D02*
X15974048Y-12435476D01*
X16031190Y-12435476D02*
X16031190Y-12235476D01*
X16012143Y-12264048D01*
X15993095Y-12283095D01*
X15974048Y-12292619D01*
X16278809Y-12435476D02*
X16164524Y-12435476D01*
X16221667Y-12435476D02*
X16221667Y-12235476D01*
X16202619Y-12264048D01*
X16183571Y-12283095D01*
X16164524Y-12292619D01*
X16393095Y-12321190D02*
X16374048Y-12311667D01*
X16364524Y-12302143D01*
X16355000Y-12283095D01*
X16355000Y-12273571D01*
X16364524Y-12254524D01*
X16374048Y-12245000D01*
X16393095Y-12235476D01*
X16431190Y-12235476D01*
X16450238Y-12245000D01*
X16459762Y-12254524D01*
X16469286Y-12273571D01*
X16469286Y-12283095D01*
X16459762Y-12302143D01*
X16450238Y-12311667D01*
X16431190Y-12321190D01*
X16393095Y-12321190D01*
X16374048Y-12330714D01*
X16364524Y-12340238D01*
X16355000Y-12359286D01*
X16355000Y-12397381D01*
X16364524Y-12416428D01*
X16374048Y-12425952D01*
X16393095Y-12435476D01*
X16431190Y-12435476D01*
X16450238Y-12425952D01*
X16459762Y-12416428D01*
X16469286Y-12397381D01*
X16469286Y-12359286D01*
X16459762Y-12340238D01*
X16450238Y-12330714D01*
X16431190Y-12321190D01*
X16545476Y-12235476D02*
X16545476Y-12273571D01*
X16621667Y-12235476D02*
X16621667Y-12273571D01*
X16916905Y-12511667D02*
X16907381Y-12502143D01*
X16888333Y-12473571D01*
X16878810Y-12454524D01*
X16869286Y-12425952D01*
X16859762Y-12378333D01*
X16859762Y-12340238D01*
X16869286Y-12292619D01*
X16878810Y-12264048D01*
X16888333Y-12245000D01*
X16907381Y-12216428D01*
X16916905Y-12206905D01*
X16974048Y-12235476D02*
X17097857Y-12235476D01*
X17031190Y-12311667D01*
X17059762Y-12311667D01*
X17078810Y-12321190D01*
X17088333Y-12330714D01*
X17097857Y-12349762D01*
X17097857Y-12397381D01*
X17088333Y-12416428D01*
X17078810Y-12425952D01*
X17059762Y-12435476D01*
X17002619Y-12435476D01*
X16983571Y-12425952D01*
X16974048Y-12416428D01*
X17164524Y-12235476D02*
X17288333Y-12235476D01*
X17221667Y-12311667D01*
X17250238Y-12311667D01*
X17269286Y-12321190D01*
X17278810Y-12330714D01*
X17288333Y-12349762D01*
X17288333Y-12397381D01*
X17278810Y-12416428D01*
X17269286Y-12425952D01*
X17250238Y-12435476D01*
X17193095Y-12435476D01*
X17174048Y-12425952D01*
X17164524Y-12416428D01*
X17526429Y-12435476D02*
X17526429Y-12235476D01*
X17612143Y-12435476D02*
X17612143Y-12330714D01*
X17602619Y-12311667D01*
X17583571Y-12302143D01*
X17555000Y-12302143D01*
X17535952Y-12311667D01*
X17526429Y-12321190D01*
X17735952Y-12435476D02*
X17716905Y-12425952D01*
X17707381Y-12416428D01*
X17697857Y-12397381D01*
X17697857Y-12340238D01*
X17707381Y-12321190D01*
X17716905Y-12311667D01*
X17735952Y-12302143D01*
X17764524Y-12302143D01*
X17783571Y-12311667D01*
X17793095Y-12321190D01*
X17802619Y-12340238D01*
X17802619Y-12397381D01*
X17793095Y-12416428D01*
X17783571Y-12425952D01*
X17764524Y-12435476D01*
X17735952Y-12435476D01*
X17916905Y-12435476D02*
X17897857Y-12425952D01*
X17888333Y-12406905D01*
X17888333Y-12235476D01*
X18069286Y-12425952D02*
X18050238Y-12435476D01*
X18012143Y-12435476D01*
X17993095Y-12425952D01*
X17983571Y-12406905D01*
X17983571Y-12330714D01*
X17993095Y-12311667D01*
X18012143Y-12302143D01*
X18050238Y-12302143D01*
X18069286Y-12311667D01*
X18078810Y-12330714D01*
X18078810Y-12349762D01*
X17983571Y-12368809D01*
X18155000Y-12425952D02*
X18174048Y-12435476D01*
X18212143Y-12435476D01*
X18231190Y-12425952D01*
X18240714Y-12406905D01*
X18240714Y-12397381D01*
X18231190Y-12378333D01*
X18212143Y-12368809D01*
X18183571Y-12368809D01*
X18164524Y-12359286D01*
X18155000Y-12340238D01*
X18155000Y-12330714D01*
X18164524Y-12311667D01*
X18183571Y-12302143D01*
X18212143Y-12302143D01*
X18231190Y-12311667D01*
X18307381Y-12511667D02*
X18316905Y-12502143D01*
X18335952Y-12473571D01*
X18345476Y-12454524D01*
X18355000Y-12425952D01*
X18364524Y-12378333D01*
X18364524Y-12340238D01*
X18355000Y-12292619D01*
X18345476Y-12264048D01*
X18335952Y-12245000D01*
X18316905Y-12216428D01*
X18307381Y-12206905D01*
D13*
X13345000Y-12609000D02*
G75*
G03*
X13345000Y-12609000I-30000J0D01*
G01*
D11*
X13640714Y-12499476D02*
X13659762Y-12499476D01*
X13678809Y-12509000D01*
X13688333Y-12518524D01*
X13697857Y-12537571D01*
X13707381Y-12575667D01*
X13707381Y-12623286D01*
X13697857Y-12661381D01*
X13688333Y-12680428D01*
X13678809Y-12689952D01*
X13659762Y-12699476D01*
X13640714Y-12699476D01*
X13621667Y-12689952D01*
X13612143Y-12680428D01*
X13602619Y-12661381D01*
X13593095Y-12623286D01*
X13593095Y-12575667D01*
X13602619Y-12537571D01*
X13612143Y-12518524D01*
X13621667Y-12509000D01*
X13640714Y-12499476D01*
X13793095Y-12680428D02*
X13802619Y-12689952D01*
X13793095Y-12699476D01*
X13783571Y-12689952D01*
X13793095Y-12680428D01*
X13793095Y-12699476D01*
X13974048Y-12499476D02*
X13935952Y-12499476D01*
X13916905Y-12509000D01*
X13907381Y-12518524D01*
X13888333Y-12547095D01*
X13878809Y-12585190D01*
X13878809Y-12661381D01*
X13888333Y-12680428D01*
X13897857Y-12689952D01*
X13916905Y-12699476D01*
X13955000Y-12699476D01*
X13974048Y-12689952D01*
X13983571Y-12680428D01*
X13993095Y-12661381D01*
X13993095Y-12613762D01*
X13983571Y-12594714D01*
X13974048Y-12585190D01*
X13955000Y-12575667D01*
X13916905Y-12575667D01*
X13897857Y-12585190D01*
X13888333Y-12594714D01*
X13878809Y-12613762D01*
X14116905Y-12499476D02*
X14135952Y-12499476D01*
X14155000Y-12509000D01*
X14164524Y-12518524D01*
X14174048Y-12537571D01*
X14183571Y-12575667D01*
X14183571Y-12623286D01*
X14174048Y-12661381D01*
X14164524Y-12680428D01*
X14155000Y-12689952D01*
X14135952Y-12699476D01*
X14116905Y-12699476D01*
X14097857Y-12689952D01*
X14088333Y-12680428D01*
X14078809Y-12661381D01*
X14069286Y-12623286D01*
X14069286Y-12575667D01*
X14078809Y-12537571D01*
X14088333Y-12518524D01*
X14097857Y-12509000D01*
X14116905Y-12499476D01*
X14307381Y-12499476D02*
X14326428Y-12499476D01*
X14345476Y-12509000D01*
X14355000Y-12518524D01*
X14364524Y-12537571D01*
X14374048Y-12575667D01*
X14374048Y-12623286D01*
X14364524Y-12661381D01*
X14355000Y-12680428D01*
X14345476Y-12689952D01*
X14326428Y-12699476D01*
X14307381Y-12699476D01*
X14288333Y-12689952D01*
X14278809Y-12680428D01*
X14269286Y-12661381D01*
X14259762Y-12623286D01*
X14259762Y-12575667D01*
X14269286Y-12537571D01*
X14278809Y-12518524D01*
X14288333Y-12509000D01*
X14307381Y-12499476D01*
X14459762Y-12699476D02*
X14459762Y-12566143D01*
X14459762Y-12585190D02*
X14469286Y-12575667D01*
X14488333Y-12566143D01*
X14516905Y-12566143D01*
X14535952Y-12575667D01*
X14545476Y-12594714D01*
X14545476Y-12699476D01*
X14545476Y-12594714D02*
X14555000Y-12575667D01*
X14574048Y-12566143D01*
X14602619Y-12566143D01*
X14621667Y-12575667D01*
X14631190Y-12594714D01*
X14631190Y-12699476D01*
X14726428Y-12699476D02*
X14726428Y-12566143D01*
X14726428Y-12585190D02*
X14735952Y-12575667D01*
X14755000Y-12566143D01*
X14783571Y-12566143D01*
X14802619Y-12575667D01*
X14812143Y-12594714D01*
X14812143Y-12699476D01*
X14812143Y-12594714D02*
X14821667Y-12575667D01*
X14840714Y-12566143D01*
X14869286Y-12566143D01*
X14888333Y-12575667D01*
X14897857Y-12594714D01*
X14897857Y-12699476D01*
X15288333Y-12489952D02*
X15116905Y-12747095D01*
X15545476Y-12499476D02*
X15564524Y-12499476D01*
X15583571Y-12509000D01*
X15593095Y-12518524D01*
X15602619Y-12537571D01*
X15612143Y-12575667D01*
X15612143Y-12623286D01*
X15602619Y-12661381D01*
X15593095Y-12680428D01*
X15583571Y-12689952D01*
X15564524Y-12699476D01*
X15545476Y-12699476D01*
X15526428Y-12689952D01*
X15516905Y-12680428D01*
X15507381Y-12661381D01*
X15497857Y-12623286D01*
X15497857Y-12575667D01*
X15507381Y-12537571D01*
X15516905Y-12518524D01*
X15526428Y-12509000D01*
X15545476Y-12499476D01*
X15697857Y-12680428D02*
X15707381Y-12689952D01*
X15697857Y-12699476D01*
X15688333Y-12689952D01*
X15697857Y-12680428D01*
X15697857Y-12699476D01*
X15831190Y-12499476D02*
X15850238Y-12499476D01*
X15869286Y-12509000D01*
X15878809Y-12518524D01*
X15888333Y-12537571D01*
X15897857Y-12575667D01*
X15897857Y-12623286D01*
X15888333Y-12661381D01*
X15878809Y-12680428D01*
X15869286Y-12689952D01*
X15850238Y-12699476D01*
X15831190Y-12699476D01*
X15812143Y-12689952D01*
X15802619Y-12680428D01*
X15793095Y-12661381D01*
X15783571Y-12623286D01*
X15783571Y-12575667D01*
X15793095Y-12537571D01*
X15802619Y-12518524D01*
X15812143Y-12509000D01*
X15831190Y-12499476D01*
X15974048Y-12518524D02*
X15983571Y-12509000D01*
X16002619Y-12499476D01*
X16050238Y-12499476D01*
X16069286Y-12509000D01*
X16078809Y-12518524D01*
X16088333Y-12537571D01*
X16088333Y-12556619D01*
X16078809Y-12585190D01*
X15964524Y-12699476D01*
X16088333Y-12699476D01*
X16155000Y-12499476D02*
X16278809Y-12499476D01*
X16212143Y-12575667D01*
X16240714Y-12575667D01*
X16259762Y-12585190D01*
X16269286Y-12594714D01*
X16278809Y-12613762D01*
X16278809Y-12661381D01*
X16269286Y-12680428D01*
X16259762Y-12689952D01*
X16240714Y-12699476D01*
X16183571Y-12699476D01*
X16164524Y-12689952D01*
X16155000Y-12680428D01*
X16450238Y-12499476D02*
X16412143Y-12499476D01*
X16393095Y-12509000D01*
X16383571Y-12518524D01*
X16364524Y-12547095D01*
X16355000Y-12585190D01*
X16355000Y-12661381D01*
X16364524Y-12680428D01*
X16374048Y-12689952D01*
X16393095Y-12699476D01*
X16431190Y-12699476D01*
X16450238Y-12689952D01*
X16459762Y-12680428D01*
X16469286Y-12661381D01*
X16469286Y-12613762D01*
X16459762Y-12594714D01*
X16450238Y-12585190D01*
X16431190Y-12575667D01*
X16393095Y-12575667D01*
X16374048Y-12585190D01*
X16364524Y-12594714D01*
X16355000Y-12613762D01*
X16545476Y-12499476D02*
X16545476Y-12537571D01*
X16621667Y-12499476D02*
X16621667Y-12537571D01*
X16916905Y-12775667D02*
X16907381Y-12766143D01*
X16888333Y-12737571D01*
X16878810Y-12718524D01*
X16869286Y-12689952D01*
X16859762Y-12642333D01*
X16859762Y-12604238D01*
X16869286Y-12556619D01*
X16878810Y-12528048D01*
X16888333Y-12509000D01*
X16907381Y-12480428D01*
X16916905Y-12470905D01*
X17031190Y-12499476D02*
X17050238Y-12499476D01*
X17069286Y-12509000D01*
X17078810Y-12518524D01*
X17088333Y-12537571D01*
X17097857Y-12575667D01*
X17097857Y-12623286D01*
X17088333Y-12661381D01*
X17078810Y-12680428D01*
X17069286Y-12689952D01*
X17050238Y-12699476D01*
X17031190Y-12699476D01*
X17012143Y-12689952D01*
X17002619Y-12680428D01*
X16993095Y-12661381D01*
X16983571Y-12623286D01*
X16983571Y-12575667D01*
X16993095Y-12537571D01*
X17002619Y-12518524D01*
X17012143Y-12509000D01*
X17031190Y-12499476D01*
X17335952Y-12699476D02*
X17335952Y-12499476D01*
X17421667Y-12699476D02*
X17421667Y-12594714D01*
X17412143Y-12575667D01*
X17393095Y-12566143D01*
X17364524Y-12566143D01*
X17345476Y-12575667D01*
X17335952Y-12585190D01*
X17545476Y-12699476D02*
X17526429Y-12689952D01*
X17516905Y-12680428D01*
X17507381Y-12661381D01*
X17507381Y-12604238D01*
X17516905Y-12585190D01*
X17526429Y-12575667D01*
X17545476Y-12566143D01*
X17574048Y-12566143D01*
X17593095Y-12575667D01*
X17602619Y-12585190D01*
X17612143Y-12604238D01*
X17612143Y-12661381D01*
X17602619Y-12680428D01*
X17593095Y-12689952D01*
X17574048Y-12699476D01*
X17545476Y-12699476D01*
X17726429Y-12699476D02*
X17707381Y-12689952D01*
X17697857Y-12670905D01*
X17697857Y-12499476D01*
X17878810Y-12689952D02*
X17859762Y-12699476D01*
X17821667Y-12699476D01*
X17802619Y-12689952D01*
X17793095Y-12670905D01*
X17793095Y-12594714D01*
X17802619Y-12575667D01*
X17821667Y-12566143D01*
X17859762Y-12566143D01*
X17878810Y-12575667D01*
X17888333Y-12594714D01*
X17888333Y-12613762D01*
X17793095Y-12632809D01*
X17964524Y-12689952D02*
X17983571Y-12699476D01*
X18021667Y-12699476D01*
X18040714Y-12689952D01*
X18050238Y-12670905D01*
X18050238Y-12661381D01*
X18040714Y-12642333D01*
X18021667Y-12632809D01*
X17993095Y-12632809D01*
X17974048Y-12623286D01*
X17964524Y-12604238D01*
X17964524Y-12594714D01*
X17974048Y-12575667D01*
X17993095Y-12566143D01*
X18021667Y-12566143D01*
X18040714Y-12575667D01*
X18288333Y-12623286D02*
X18440714Y-12623286D01*
X18364524Y-12699476D02*
X18364524Y-12547095D01*
X18774048Y-12566143D02*
X18774048Y-12699476D01*
X18726429Y-12489952D02*
X18678810Y-12632809D01*
X18802619Y-12632809D01*
X19021667Y-12689952D02*
X19040714Y-12699476D01*
X19078810Y-12699476D01*
X19097857Y-12689952D01*
X19107381Y-12670905D01*
X19107381Y-12661381D01*
X19097857Y-12642333D01*
X19078810Y-12632809D01*
X19050238Y-12632809D01*
X19031190Y-12623286D01*
X19021667Y-12604238D01*
X19021667Y-12594714D01*
X19031190Y-12575667D01*
X19050238Y-12566143D01*
X19078810Y-12566143D01*
X19097857Y-12575667D01*
X19221667Y-12699476D02*
X19202619Y-12689952D01*
X19193095Y-12670905D01*
X19193095Y-12499476D01*
X19326429Y-12699476D02*
X19307381Y-12689952D01*
X19297857Y-12680428D01*
X19288333Y-12661381D01*
X19288333Y-12604238D01*
X19297857Y-12585190D01*
X19307381Y-12575667D01*
X19326429Y-12566143D01*
X19355000Y-12566143D01*
X19374048Y-12575667D01*
X19383571Y-12585190D01*
X19393095Y-12604238D01*
X19393095Y-12661381D01*
X19383571Y-12680428D01*
X19374048Y-12689952D01*
X19355000Y-12699476D01*
X19326429Y-12699476D01*
X19450238Y-12566143D02*
X19526429Y-12566143D01*
X19478810Y-12499476D02*
X19478810Y-12670905D01*
X19488333Y-12689952D01*
X19507381Y-12699476D01*
X19526429Y-12699476D01*
X19583571Y-12689952D02*
X19602619Y-12699476D01*
X19640714Y-12699476D01*
X19659762Y-12689952D01*
X19669286Y-12670905D01*
X19669286Y-12661381D01*
X19659762Y-12642333D01*
X19640714Y-12632809D01*
X19612143Y-12632809D01*
X19593095Y-12623286D01*
X19583571Y-12604238D01*
X19583571Y-12594714D01*
X19593095Y-12575667D01*
X19612143Y-12566143D01*
X19640714Y-12566143D01*
X19659762Y-12575667D01*
X19735952Y-12775667D02*
X19745476Y-12766143D01*
X19764524Y-12737571D01*
X19774048Y-12718524D01*
X19783571Y-12689952D01*
X19793095Y-12642333D01*
X19793095Y-12604238D01*
X19783571Y-12556619D01*
X19774048Y-12528048D01*
X19764524Y-12509000D01*
X19745476Y-12480428D01*
X19735952Y-12470905D01*
M02*
