M48
; DRILL file {KiCad (6.0.4)} date Sun Mar  5 19:49:53 2023
; FORMAT={-:-/ absolute / metric / decimal}
; #@! TF.CreationDate,2023-03-05T19:49:53+01:00
; #@! TF.GenerationSoftware,Kicad,Pcbnew,(6.0.4)
; #@! TF.FileFunction,Plated,1,2,PTH
FMAT,2
METRIC
; #@! TA.AperFunction,Plated,PTH,ViaDrill
T1C0.300
; #@! TA.AperFunction,Plated,PTH,ComponentDrill
T2C0.600
%
G90
G05
T1
X141.05Y-115.6
X141.2Y-106.2
X141.7Y-97.6
X142.45Y-108.25
X143.25Y-95.3
X143.25Y-99.2
X144.25Y-97.8
X144.5Y-99.1
X144.5Y-104.1
X144.95Y-112.95
X145.75Y-95.0
X145.75Y-109.2
X146.35Y-109.2
X147.3Y-112.3
X147.35Y-98.65
X147.75Y-95.3
X148.1Y-112.3
X148.1Y-115.9
X148.9Y-112.3
X148.9Y-115.9
X149.25Y-95.3
X149.25Y-99.5
X149.7Y-112.3
X150.15Y-107.35
X150.65Y-109.2
X151.25Y-95.0
X151.25Y-109.2
X152.25Y-95.3
X152.3Y-106.1
X152.55Y-107.25
X154.2Y-101.6
X154.95Y-103.75
X159.0Y-98.55
T2
X144.18Y-111.17G85X144.18Y-112.27
G05
X144.18Y-115.6G85X144.18Y-116.2
G05
X152.82Y-111.17G85X152.82Y-112.27
G05
X152.82Y-115.6G85X152.82Y-116.2
G05
T0
M30
