%FSLAX45Y45*%
G04 Gerber Fmt 4.5, Leading zero omitted, Abs format (unit mm)*
G04 Created by KiCad (PCBNEW (6.0.4)) date 2023-03-05 19:49:56*
%MOMM*%
%LPD*%
G01*
G04 APERTURE LIST*
%TA.AperFunction,Profile*%
%ADD10C,0.100000*%
%TD*%
%ADD11C,0.200000*%
%ADD12C,0.065000*%
G04 APERTURE END LIST*
D10*
X16350000Y-9550000D02*
X16350000Y-11450000D01*
X16100000Y-11700000D02*
G75*
G03*
X16350000Y-11450000I0J250000D01*
G01*
X13350000Y-11450000D02*
G75*
G03*
X13600000Y-11700000I250000J0D01*
G01*
X16350000Y-9550000D02*
G75*
G03*
X16100000Y-9300000I-250000J0D01*
G01*
X16100000Y-11700000D02*
X13600000Y-11700000D01*
X13600000Y-9300000D02*
G75*
G03*
X13350000Y-9550000I0J-250000D01*
G01*
X13600000Y-9300000D02*
X16100000Y-9300000D01*
X13350000Y-11450000D02*
X13350000Y-9550000D01*
D11*
D12*
X14528500Y-11192500D02*
X14593500Y-11257500D01*
X14593500Y-11192500D02*
X14528500Y-11257500D01*
X15106500Y-11192500D02*
X15171500Y-11257500D01*
X15171500Y-11192500D02*
X15106500Y-11257500D01*
D11*
X13602619Y-12015476D02*
X13602619Y-11815476D01*
X13650238Y-11815476D01*
X13678809Y-11825000D01*
X13697857Y-11844048D01*
X13707381Y-11863095D01*
X13716905Y-11901190D01*
X13716905Y-11929762D01*
X13707381Y-11967857D01*
X13697857Y-11986905D01*
X13678809Y-12005952D01*
X13650238Y-12015476D01*
X13602619Y-12015476D01*
X13802619Y-12015476D02*
X13802619Y-11882143D01*
X13802619Y-11920238D02*
X13812143Y-11901190D01*
X13821667Y-11891667D01*
X13840714Y-11882143D01*
X13859762Y-11882143D01*
X13926428Y-12015476D02*
X13926428Y-11882143D01*
X13926428Y-11815476D02*
X13916905Y-11825000D01*
X13926428Y-11834524D01*
X13935952Y-11825000D01*
X13926428Y-11815476D01*
X13926428Y-11834524D01*
X14050238Y-12015476D02*
X14031190Y-12005952D01*
X14021667Y-11986905D01*
X14021667Y-11815476D01*
X14155000Y-12015476D02*
X14135952Y-12005952D01*
X14126428Y-11986905D01*
X14126428Y-11815476D01*
X14383571Y-12015476D02*
X14383571Y-11815476D01*
X14450238Y-11958333D01*
X14516905Y-11815476D01*
X14516905Y-12015476D01*
X14697857Y-12015476D02*
X14697857Y-11910714D01*
X14688333Y-11891667D01*
X14669286Y-11882143D01*
X14631190Y-11882143D01*
X14612143Y-11891667D01*
X14697857Y-12005952D02*
X14678809Y-12015476D01*
X14631190Y-12015476D01*
X14612143Y-12005952D01*
X14602619Y-11986905D01*
X14602619Y-11967857D01*
X14612143Y-11948809D01*
X14631190Y-11939286D01*
X14678809Y-11939286D01*
X14697857Y-11929762D01*
X14793095Y-11882143D02*
X14793095Y-12082143D01*
X14793095Y-11891667D02*
X14812143Y-11882143D01*
X14850238Y-11882143D01*
X14869286Y-11891667D01*
X14878809Y-11901190D01*
X14888333Y-11920238D01*
X14888333Y-11977381D01*
X14878809Y-11996428D01*
X14869286Y-12005952D01*
X14850238Y-12015476D01*
X14812143Y-12015476D01*
X14793095Y-12005952D01*
X14974048Y-11996428D02*
X14983571Y-12005952D01*
X14974048Y-12015476D01*
X14964524Y-12005952D01*
X14974048Y-11996428D01*
X14974048Y-12015476D01*
X14974048Y-11891667D02*
X14983571Y-11901190D01*
X14974048Y-11910714D01*
X14964524Y-11901190D01*
X14974048Y-11891667D01*
X14974048Y-11910714D01*
D12*
X13280000Y-12312500D02*
X13345000Y-12377500D01*
X13345000Y-12312500D02*
X13280000Y-12377500D01*
D11*
X13640714Y-12235476D02*
X13659762Y-12235476D01*
X13678809Y-12245000D01*
X13688333Y-12254524D01*
X13697857Y-12273571D01*
X13707381Y-12311667D01*
X13707381Y-12359286D01*
X13697857Y-12397381D01*
X13688333Y-12416428D01*
X13678809Y-12425952D01*
X13659762Y-12435476D01*
X13640714Y-12435476D01*
X13621667Y-12425952D01*
X13612143Y-12416428D01*
X13602619Y-12397381D01*
X13593095Y-12359286D01*
X13593095Y-12311667D01*
X13602619Y-12273571D01*
X13612143Y-12254524D01*
X13621667Y-12245000D01*
X13640714Y-12235476D01*
X13793095Y-12416428D02*
X13802619Y-12425952D01*
X13793095Y-12435476D01*
X13783571Y-12425952D01*
X13793095Y-12416428D01*
X13793095Y-12435476D01*
X13974048Y-12235476D02*
X13935952Y-12235476D01*
X13916905Y-12245000D01*
X13907381Y-12254524D01*
X13888333Y-12283095D01*
X13878809Y-12321190D01*
X13878809Y-12397381D01*
X13888333Y-12416428D01*
X13897857Y-12425952D01*
X13916905Y-12435476D01*
X13955000Y-12435476D01*
X13974048Y-12425952D01*
X13983571Y-12416428D01*
X13993095Y-12397381D01*
X13993095Y-12349762D01*
X13983571Y-12330714D01*
X13974048Y-12321190D01*
X13955000Y-12311667D01*
X13916905Y-12311667D01*
X13897857Y-12321190D01*
X13888333Y-12330714D01*
X13878809Y-12349762D01*
X14174048Y-12235476D02*
X14078809Y-12235476D01*
X14069286Y-12330714D01*
X14078809Y-12321190D01*
X14097857Y-12311667D01*
X14145476Y-12311667D01*
X14164524Y-12321190D01*
X14174048Y-12330714D01*
X14183571Y-12349762D01*
X14183571Y-12397381D01*
X14174048Y-12416428D01*
X14164524Y-12425952D01*
X14145476Y-12435476D01*
X14097857Y-12435476D01*
X14078809Y-12425952D01*
X14069286Y-12416428D01*
X14307381Y-12235476D02*
X14326428Y-12235476D01*
X14345476Y-12245000D01*
X14355000Y-12254524D01*
X14364524Y-12273571D01*
X14374048Y-12311667D01*
X14374048Y-12359286D01*
X14364524Y-12397381D01*
X14355000Y-12416428D01*
X14345476Y-12425952D01*
X14326428Y-12435476D01*
X14307381Y-12435476D01*
X14288333Y-12425952D01*
X14278809Y-12416428D01*
X14269286Y-12397381D01*
X14259762Y-12359286D01*
X14259762Y-12311667D01*
X14269286Y-12273571D01*
X14278809Y-12254524D01*
X14288333Y-12245000D01*
X14307381Y-12235476D01*
X14459762Y-12435476D02*
X14459762Y-12302143D01*
X14459762Y-12321190D02*
X14469286Y-12311667D01*
X14488333Y-12302143D01*
X14516905Y-12302143D01*
X14535952Y-12311667D01*
X14545476Y-12330714D01*
X14545476Y-12435476D01*
X14545476Y-12330714D02*
X14555000Y-12311667D01*
X14574048Y-12302143D01*
X14602619Y-12302143D01*
X14621667Y-12311667D01*
X14631190Y-12330714D01*
X14631190Y-12435476D01*
X14726428Y-12435476D02*
X14726428Y-12302143D01*
X14726428Y-12321190D02*
X14735952Y-12311667D01*
X14755000Y-12302143D01*
X14783571Y-12302143D01*
X14802619Y-12311667D01*
X14812143Y-12330714D01*
X14812143Y-12435476D01*
X14812143Y-12330714D02*
X14821667Y-12311667D01*
X14840714Y-12302143D01*
X14869286Y-12302143D01*
X14888333Y-12311667D01*
X14897857Y-12330714D01*
X14897857Y-12435476D01*
X15288333Y-12225952D02*
X15116905Y-12483095D01*
X15545476Y-12235476D02*
X15564524Y-12235476D01*
X15583571Y-12245000D01*
X15593095Y-12254524D01*
X15602619Y-12273571D01*
X15612143Y-12311667D01*
X15612143Y-12359286D01*
X15602619Y-12397381D01*
X15593095Y-12416428D01*
X15583571Y-12425952D01*
X15564524Y-12435476D01*
X15545476Y-12435476D01*
X15526428Y-12425952D01*
X15516905Y-12416428D01*
X15507381Y-12397381D01*
X15497857Y-12359286D01*
X15497857Y-12311667D01*
X15507381Y-12273571D01*
X15516905Y-12254524D01*
X15526428Y-12245000D01*
X15545476Y-12235476D01*
X15697857Y-12416428D02*
X15707381Y-12425952D01*
X15697857Y-12435476D01*
X15688333Y-12425952D01*
X15697857Y-12416428D01*
X15697857Y-12435476D01*
X15831190Y-12235476D02*
X15850238Y-12235476D01*
X15869286Y-12245000D01*
X15878809Y-12254524D01*
X15888333Y-12273571D01*
X15897857Y-12311667D01*
X15897857Y-12359286D01*
X15888333Y-12397381D01*
X15878809Y-12416428D01*
X15869286Y-12425952D01*
X15850238Y-12435476D01*
X15831190Y-12435476D01*
X15812143Y-12425952D01*
X15802619Y-12416428D01*
X15793095Y-12397381D01*
X15783571Y-12359286D01*
X15783571Y-12311667D01*
X15793095Y-12273571D01*
X15802619Y-12254524D01*
X15812143Y-12245000D01*
X15831190Y-12235476D01*
X15974048Y-12254524D02*
X15983571Y-12245000D01*
X16002619Y-12235476D01*
X16050238Y-12235476D01*
X16069286Y-12245000D01*
X16078809Y-12254524D01*
X16088333Y-12273571D01*
X16088333Y-12292619D01*
X16078809Y-12321190D01*
X15964524Y-12435476D01*
X16088333Y-12435476D01*
X16269286Y-12235476D02*
X16174048Y-12235476D01*
X16164524Y-12330714D01*
X16174048Y-12321190D01*
X16193095Y-12311667D01*
X16240714Y-12311667D01*
X16259762Y-12321190D01*
X16269286Y-12330714D01*
X16278809Y-12349762D01*
X16278809Y-12397381D01*
X16269286Y-12416428D01*
X16259762Y-12425952D01*
X16240714Y-12435476D01*
X16193095Y-12435476D01*
X16174048Y-12425952D01*
X16164524Y-12416428D01*
X16450238Y-12235476D02*
X16412143Y-12235476D01*
X16393095Y-12245000D01*
X16383571Y-12254524D01*
X16364524Y-12283095D01*
X16355000Y-12321190D01*
X16355000Y-12397381D01*
X16364524Y-12416428D01*
X16374048Y-12425952D01*
X16393095Y-12435476D01*
X16431190Y-12435476D01*
X16450238Y-12425952D01*
X16459762Y-12416428D01*
X16469286Y-12397381D01*
X16469286Y-12349762D01*
X16459762Y-12330714D01*
X16450238Y-12321190D01*
X16431190Y-12311667D01*
X16393095Y-12311667D01*
X16374048Y-12321190D01*
X16364524Y-12330714D01*
X16355000Y-12349762D01*
X16545476Y-12235476D02*
X16545476Y-12273571D01*
X16621667Y-12235476D02*
X16621667Y-12273571D01*
X16916905Y-12511667D02*
X16907381Y-12502143D01*
X16888333Y-12473571D01*
X16878810Y-12454524D01*
X16869286Y-12425952D01*
X16859762Y-12378333D01*
X16859762Y-12340238D01*
X16869286Y-12292619D01*
X16878810Y-12264048D01*
X16888333Y-12245000D01*
X16907381Y-12216428D01*
X16916905Y-12206905D01*
X16983571Y-12254524D02*
X16993095Y-12245000D01*
X17012143Y-12235476D01*
X17059762Y-12235476D01*
X17078810Y-12245000D01*
X17088333Y-12254524D01*
X17097857Y-12273571D01*
X17097857Y-12292619D01*
X17088333Y-12321190D01*
X16974048Y-12435476D01*
X17097857Y-12435476D01*
X17335952Y-12435476D02*
X17335952Y-12235476D01*
X17421667Y-12435476D02*
X17421667Y-12330714D01*
X17412143Y-12311667D01*
X17393095Y-12302143D01*
X17364524Y-12302143D01*
X17345476Y-12311667D01*
X17335952Y-12321190D01*
X17545476Y-12435476D02*
X17526429Y-12425952D01*
X17516905Y-12416428D01*
X17507381Y-12397381D01*
X17507381Y-12340238D01*
X17516905Y-12321190D01*
X17526429Y-12311667D01*
X17545476Y-12302143D01*
X17574048Y-12302143D01*
X17593095Y-12311667D01*
X17602619Y-12321190D01*
X17612143Y-12340238D01*
X17612143Y-12397381D01*
X17602619Y-12416428D01*
X17593095Y-12425952D01*
X17574048Y-12435476D01*
X17545476Y-12435476D01*
X17726429Y-12435476D02*
X17707381Y-12425952D01*
X17697857Y-12406905D01*
X17697857Y-12235476D01*
X17878810Y-12425952D02*
X17859762Y-12435476D01*
X17821667Y-12435476D01*
X17802619Y-12425952D01*
X17793095Y-12406905D01*
X17793095Y-12330714D01*
X17802619Y-12311667D01*
X17821667Y-12302143D01*
X17859762Y-12302143D01*
X17878810Y-12311667D01*
X17888333Y-12330714D01*
X17888333Y-12349762D01*
X17793095Y-12368809D01*
X17964524Y-12425952D02*
X17983571Y-12435476D01*
X18021667Y-12435476D01*
X18040714Y-12425952D01*
X18050238Y-12406905D01*
X18050238Y-12397381D01*
X18040714Y-12378333D01*
X18021667Y-12368809D01*
X17993095Y-12368809D01*
X17974048Y-12359286D01*
X17964524Y-12340238D01*
X17964524Y-12330714D01*
X17974048Y-12311667D01*
X17993095Y-12302143D01*
X18021667Y-12302143D01*
X18040714Y-12311667D01*
X18116905Y-12511667D02*
X18126429Y-12502143D01*
X18145476Y-12473571D01*
X18155000Y-12454524D01*
X18164524Y-12425952D01*
X18174048Y-12378333D01*
X18174048Y-12340238D01*
X18164524Y-12292619D01*
X18155000Y-12264048D01*
X18145476Y-12245000D01*
X18126429Y-12216428D01*
X18116905Y-12206905D01*
X18478810Y-12511667D02*
X18469286Y-12502143D01*
X18450238Y-12473571D01*
X18440714Y-12454524D01*
X18431190Y-12425952D01*
X18421667Y-12378333D01*
X18421667Y-12340238D01*
X18431190Y-12292619D01*
X18440714Y-12264048D01*
X18450238Y-12245000D01*
X18469286Y-12216428D01*
X18478810Y-12206905D01*
X18555000Y-12302143D02*
X18555000Y-12435476D01*
X18555000Y-12321190D02*
X18564524Y-12311667D01*
X18583571Y-12302143D01*
X18612143Y-12302143D01*
X18631190Y-12311667D01*
X18640714Y-12330714D01*
X18640714Y-12435476D01*
X18764524Y-12435476D02*
X18745476Y-12425952D01*
X18735952Y-12416428D01*
X18726429Y-12397381D01*
X18726429Y-12340238D01*
X18735952Y-12321190D01*
X18745476Y-12311667D01*
X18764524Y-12302143D01*
X18793095Y-12302143D01*
X18812143Y-12311667D01*
X18821667Y-12321190D01*
X18831190Y-12340238D01*
X18831190Y-12397381D01*
X18821667Y-12416428D01*
X18812143Y-12425952D01*
X18793095Y-12435476D01*
X18764524Y-12435476D01*
X18888333Y-12302143D02*
X18964524Y-12302143D01*
X18916905Y-12235476D02*
X18916905Y-12406905D01*
X18926429Y-12425952D01*
X18945476Y-12435476D01*
X18964524Y-12435476D01*
X19183571Y-12302143D02*
X19183571Y-12502143D01*
X19183571Y-12311667D02*
X19202619Y-12302143D01*
X19240714Y-12302143D01*
X19259762Y-12311667D01*
X19269286Y-12321190D01*
X19278810Y-12340238D01*
X19278810Y-12397381D01*
X19269286Y-12416428D01*
X19259762Y-12425952D01*
X19240714Y-12435476D01*
X19202619Y-12435476D01*
X19183571Y-12425952D01*
X19393095Y-12435476D02*
X19374048Y-12425952D01*
X19364524Y-12406905D01*
X19364524Y-12235476D01*
X19555000Y-12435476D02*
X19555000Y-12330714D01*
X19545476Y-12311667D01*
X19526429Y-12302143D01*
X19488333Y-12302143D01*
X19469286Y-12311667D01*
X19555000Y-12425952D02*
X19535952Y-12435476D01*
X19488333Y-12435476D01*
X19469286Y-12425952D01*
X19459762Y-12406905D01*
X19459762Y-12387857D01*
X19469286Y-12368809D01*
X19488333Y-12359286D01*
X19535952Y-12359286D01*
X19555000Y-12349762D01*
X19621667Y-12302143D02*
X19697857Y-12302143D01*
X19650238Y-12235476D02*
X19650238Y-12406905D01*
X19659762Y-12425952D01*
X19678810Y-12435476D01*
X19697857Y-12435476D01*
X19840714Y-12425952D02*
X19821667Y-12435476D01*
X19783571Y-12435476D01*
X19764524Y-12425952D01*
X19755000Y-12406905D01*
X19755000Y-12330714D01*
X19764524Y-12311667D01*
X19783571Y-12302143D01*
X19821667Y-12302143D01*
X19840714Y-12311667D01*
X19850238Y-12330714D01*
X19850238Y-12349762D01*
X19755000Y-12368809D01*
X20021667Y-12435476D02*
X20021667Y-12235476D01*
X20021667Y-12425952D02*
X20002619Y-12435476D01*
X19964524Y-12435476D01*
X19945476Y-12425952D01*
X19935952Y-12416428D01*
X19926429Y-12397381D01*
X19926429Y-12340238D01*
X19935952Y-12321190D01*
X19945476Y-12311667D01*
X19964524Y-12302143D01*
X20002619Y-12302143D01*
X20021667Y-12311667D01*
X20097857Y-12511667D02*
X20107381Y-12502143D01*
X20126429Y-12473571D01*
X20135952Y-12454524D01*
X20145476Y-12425952D01*
X20155000Y-12378333D01*
X20155000Y-12340238D01*
X20145476Y-12292619D01*
X20135952Y-12264048D01*
X20126429Y-12245000D01*
X20107381Y-12216428D01*
X20097857Y-12206905D01*
M02*
