G04 #@! TF.GenerationSoftware,KiCad,Pcbnew,(6.0.4)*
G04 #@! TF.CreationDate,2023-03-05T19:47:51+01:00*
G04 #@! TF.ProjectId,hair-02,68616972-2d30-4322-9e6b-696361645f70,rev?*
G04 #@! TF.SameCoordinates,Original*
G04 #@! TF.FileFunction,Copper,L1,Top*
G04 #@! TF.FilePolarity,Positive*
%FSLAX46Y46*%
G04 Gerber Fmt 4.6, Leading zero omitted, Abs format (unit mm)*
G04 Created by KiCad (PCBNEW (6.0.4)) date 2023-03-05 19:47:51*
%MOMM*%
%LPD*%
G01*
G04 APERTURE LIST*
G04 Aperture macros list*
%AMRoundRect*
0 Rectangle with rounded corners*
0 $1 Rounding radius*
0 $2 $3 $4 $5 $6 $7 $8 $9 X,Y pos of 4 corners*
0 Add a 4 corners polygon primitive as box body*
4,1,4,$2,$3,$4,$5,$6,$7,$8,$9,$2,$3,0*
0 Add four circle primitives for the rounded corners*
1,1,$1+$1,$2,$3*
1,1,$1+$1,$4,$5*
1,1,$1+$1,$6,$7*
1,1,$1+$1,$8,$9*
0 Add four rect primitives between the rounded corners*
20,1,$1+$1,$2,$3,$4,$5,0*
20,1,$1+$1,$4,$5,$6,$7,0*
20,1,$1+$1,$6,$7,$8,$9,0*
20,1,$1+$1,$8,$9,$2,$3,0*%
G04 Aperture macros list end*
G04 #@! TA.AperFunction,SMDPad,CuDef*
%ADD10RoundRect,0.250000X-0.325000X-0.650000X0.325000X-0.650000X0.325000X0.650000X-0.325000X0.650000X0*%
G04 #@! TD*
G04 #@! TA.AperFunction,SMDPad,CuDef*
%ADD11RoundRect,0.200000X-0.200000X-0.275000X0.200000X-0.275000X0.200000X0.275000X-0.200000X0.275000X0*%
G04 #@! TD*
G04 #@! TA.AperFunction,SMDPad,CuDef*
%ADD12RoundRect,0.200000X0.275000X-0.200000X0.275000X0.200000X-0.275000X0.200000X-0.275000X-0.200000X0*%
G04 #@! TD*
G04 #@! TA.AperFunction,SMDPad,CuDef*
%ADD13RoundRect,0.200000X-0.275000X0.200000X-0.275000X-0.200000X0.275000X-0.200000X0.275000X0.200000X0*%
G04 #@! TD*
G04 #@! TA.AperFunction,SMDPad,CuDef*
%ADD14RoundRect,0.225000X-0.225000X-0.250000X0.225000X-0.250000X0.225000X0.250000X-0.225000X0.250000X0*%
G04 #@! TD*
G04 #@! TA.AperFunction,SMDPad,CuDef*
%ADD15RoundRect,0.150000X0.150000X-0.587500X0.150000X0.587500X-0.150000X0.587500X-0.150000X-0.587500X0*%
G04 #@! TD*
G04 #@! TA.AperFunction,SMDPad,CuDef*
%ADD16RoundRect,0.200000X-0.200000X-0.800000X0.200000X-0.800000X0.200000X0.800000X-0.200000X0.800000X0*%
G04 #@! TD*
G04 #@! TA.AperFunction,SMDPad,CuDef*
%ADD17RoundRect,0.150000X0.150000X-0.512500X0.150000X0.512500X-0.150000X0.512500X-0.150000X-0.512500X0*%
G04 #@! TD*
G04 #@! TA.AperFunction,SMDPad,CuDef*
%ADD18RoundRect,0.375000X-0.375000X-0.925000X0.375000X-0.925000X0.375000X0.925000X-0.375000X0.925000X0*%
G04 #@! TD*
G04 #@! TA.AperFunction,SMDPad,CuDef*
%ADD19RoundRect,0.250000X-0.650000X0.325000X-0.650000X-0.325000X0.650000X-0.325000X0.650000X0.325000X0*%
G04 #@! TD*
G04 #@! TA.AperFunction,SMDPad,CuDef*
%ADD20RoundRect,0.250000X-0.312500X-0.625000X0.312500X-0.625000X0.312500X0.625000X-0.312500X0.625000X0*%
G04 #@! TD*
G04 #@! TA.AperFunction,SMDPad,CuDef*
%ADD21RoundRect,0.375000X0.375000X0.925000X-0.375000X0.925000X-0.375000X-0.925000X0.375000X-0.925000X0*%
G04 #@! TD*
G04 #@! TA.AperFunction,SMDPad,CuDef*
%ADD22RoundRect,0.250000X-0.250000X-0.475000X0.250000X-0.475000X0.250000X0.475000X-0.250000X0.475000X0*%
G04 #@! TD*
G04 #@! TA.AperFunction,SMDPad,CuDef*
%ADD23RoundRect,0.218750X-0.218750X-0.256250X0.218750X-0.256250X0.218750X0.256250X-0.218750X0.256250X0*%
G04 #@! TD*
G04 #@! TA.AperFunction,SMDPad,CuDef*
%ADD24R,0.600000X1.450000*%
G04 #@! TD*
G04 #@! TA.AperFunction,SMDPad,CuDef*
%ADD25R,0.300000X1.450000*%
G04 #@! TD*
G04 #@! TA.AperFunction,ComponentPad*
%ADD26O,1.000000X2.100000*%
G04 #@! TD*
G04 #@! TA.AperFunction,ComponentPad*
%ADD27O,1.000000X1.600000*%
G04 #@! TD*
G04 #@! TA.AperFunction,SMDPad,CuDef*
%ADD28RoundRect,0.250000X-0.475000X0.250000X-0.475000X-0.250000X0.475000X-0.250000X0.475000X0.250000X0*%
G04 #@! TD*
G04 #@! TA.AperFunction,SMDPad,CuDef*
%ADD29RoundRect,0.200000X0.200000X0.800000X-0.200000X0.800000X-0.200000X-0.800000X0.200000X-0.800000X0*%
G04 #@! TD*
G04 #@! TA.AperFunction,ViaPad*
%ADD30C,0.600000*%
G04 #@! TD*
G04 #@! TA.AperFunction,Conductor*
%ADD31C,0.300000*%
G04 #@! TD*
G04 #@! TA.AperFunction,Conductor*
%ADD32C,0.600000*%
G04 #@! TD*
G04 APERTURE END LIST*
D10*
X141575000Y-100350000D03*
X144525000Y-100350000D03*
D11*
X152575000Y-102500000D03*
X154225000Y-102500000D03*
D12*
X146200000Y-102075000D03*
X146200000Y-100425000D03*
D10*
X141575000Y-102850000D03*
X144525000Y-102850000D03*
D13*
X149400000Y-102325000D03*
X149400000Y-103975000D03*
D14*
X141675000Y-98400000D03*
X143225000Y-98400000D03*
D12*
X147800000Y-102075000D03*
X147800000Y-100425000D03*
X147700000Y-108875000D03*
X147700000Y-107225000D03*
D15*
X152300000Y-100437500D03*
X154200000Y-100437500D03*
X153250000Y-98562500D03*
D16*
X150400000Y-95450000D03*
X154600000Y-95450000D03*
D17*
X141500000Y-107387500D03*
X142450000Y-107387500D03*
X143400000Y-107387500D03*
X143400000Y-105112500D03*
X141500000Y-105112500D03*
D18*
X157500000Y-97500000D03*
X160500000Y-97500000D03*
D19*
X141900000Y-109325000D03*
X141900000Y-112275000D03*
D20*
X157537500Y-105000000D03*
X160462500Y-105000000D03*
D21*
X160500000Y-102000000D03*
X157500000Y-102000000D03*
D22*
X146300000Y-98650000D03*
X148200000Y-98650000D03*
D12*
X151000000Y-103975000D03*
X151000000Y-102325000D03*
D23*
X150962500Y-108050000D03*
X152537500Y-108050000D03*
D12*
X149300000Y-108875000D03*
X149300000Y-107225000D03*
D24*
X145250000Y-110805000D03*
X146050000Y-110805000D03*
D25*
X147250000Y-110805000D03*
X148250000Y-110805000D03*
X148750000Y-110805000D03*
X149750000Y-110805000D03*
D24*
X150950000Y-110805000D03*
X151750000Y-110805000D03*
X151750000Y-110805000D03*
X150950000Y-110805000D03*
D25*
X150250000Y-110805000D03*
X149250000Y-110805000D03*
X147750000Y-110805000D03*
X146750000Y-110805000D03*
D24*
X146050000Y-110805000D03*
X145250000Y-110805000D03*
D26*
X144180000Y-111720000D03*
D27*
X144180000Y-115900000D03*
D26*
X152820000Y-111720000D03*
D27*
X152820000Y-115900000D03*
D28*
X153400000Y-104200000D03*
X153400000Y-106100000D03*
D12*
X141900000Y-115625000D03*
X141900000Y-113975000D03*
D29*
X146600000Y-95450000D03*
X142400000Y-95450000D03*
D12*
X145100000Y-108025000D03*
X145100000Y-106375000D03*
D30*
X141700000Y-97600000D03*
X141050000Y-115600000D03*
X141200000Y-106200000D03*
X151250000Y-95000000D03*
X154200000Y-101600000D03*
X144500000Y-99100000D03*
X147350000Y-98650000D03*
X152550000Y-107250000D03*
X143250000Y-99200000D03*
X152300000Y-106100000D03*
X145750000Y-95000000D03*
X144500000Y-104100000D03*
X150150000Y-107350000D03*
X142450000Y-108250000D03*
X144250000Y-97800000D03*
X143250000Y-95300000D03*
X151250000Y-109200000D03*
X145750000Y-109200000D03*
X150650000Y-109200000D03*
X146350000Y-109200000D03*
X154950000Y-103750000D03*
X147300000Y-112300000D03*
X148900000Y-115900000D03*
X148900000Y-112300000D03*
X149700000Y-112300000D03*
X148100000Y-112300000D03*
X148100000Y-115900000D03*
X147750000Y-95300000D03*
X144950000Y-112950000D03*
X149250000Y-99500000D03*
X159000000Y-98550000D03*
X149250000Y-95300000D03*
X152250000Y-95300000D03*
D31*
X148475000Y-102075000D02*
X148725000Y-102325000D01*
X141075000Y-115625000D02*
X141050000Y-115600000D01*
X142500000Y-102850000D02*
X141575000Y-102850000D01*
D32*
X141500000Y-102925000D02*
X141575000Y-102850000D01*
D31*
X141900000Y-115625000D02*
X141075000Y-115625000D01*
D32*
X141700000Y-97600000D02*
X141700000Y-98375000D01*
D31*
X145650000Y-101600000D02*
X143750000Y-101600000D01*
X146200000Y-102075000D02*
X147800000Y-102075000D01*
X148725000Y-102325000D02*
X149400000Y-102325000D01*
D32*
X141700000Y-98375000D02*
X141675000Y-98400000D01*
D31*
X146200000Y-102075000D02*
X146125000Y-102075000D01*
X146125000Y-102075000D02*
X145650000Y-101600000D01*
X147800000Y-102075000D02*
X148475000Y-102075000D01*
X149400000Y-102325000D02*
X151000000Y-102325000D01*
D32*
X141500000Y-105112500D02*
X141500000Y-102925000D01*
D31*
X143750000Y-101600000D02*
X142500000Y-102850000D01*
D32*
X141575000Y-100350000D02*
X141575000Y-102850000D01*
D31*
X141500000Y-105900000D02*
X141500000Y-105112500D01*
D32*
X141675000Y-100250000D02*
X141575000Y-100350000D01*
D31*
X141200000Y-106200000D02*
X141500000Y-105900000D01*
D32*
X141675000Y-98400000D02*
X141675000Y-100250000D01*
D31*
X147350000Y-98650000D02*
X148200000Y-98650000D01*
D32*
X144700000Y-110650000D02*
X145095000Y-110650000D01*
X152550000Y-107250000D02*
X152550000Y-108037500D01*
X152550000Y-108037500D02*
X152537500Y-108050000D01*
X154200000Y-100437500D02*
X154200000Y-101600000D01*
X152820000Y-111170000D02*
X152300000Y-110650000D01*
X141900000Y-112275000D02*
X142225000Y-112275000D01*
X152300000Y-110650000D02*
X151905000Y-110650000D01*
X145095000Y-110650000D02*
X145250000Y-110805000D01*
X144180000Y-111170000D02*
X144700000Y-110650000D01*
D31*
X150650000Y-95000000D02*
X151250000Y-95000000D01*
X147700000Y-107225000D02*
X149300000Y-107225000D01*
D32*
X151905000Y-110650000D02*
X151750000Y-110805000D01*
X144500000Y-102875000D02*
X144525000Y-102850000D01*
X143250000Y-99200000D02*
X143250000Y-98425000D01*
X143850000Y-112050000D02*
X144180000Y-111720000D01*
D31*
X150400000Y-95450000D02*
X150400000Y-95250000D01*
D32*
X142450000Y-112050000D02*
X143850000Y-112050000D01*
D31*
X150150000Y-107350000D02*
X149425000Y-107350000D01*
D32*
X142225000Y-112275000D02*
X142450000Y-112050000D01*
D31*
X149425000Y-107350000D02*
X149300000Y-107225000D01*
X152300000Y-106100000D02*
X153400000Y-106100000D01*
X154225000Y-101625000D02*
X154200000Y-101600000D01*
D32*
X144500000Y-104100000D02*
X144500000Y-102875000D01*
X144500000Y-100325000D02*
X144525000Y-100350000D01*
D31*
X150400000Y-95250000D02*
X150650000Y-95000000D01*
D32*
X144180000Y-111720000D02*
X144180000Y-111170000D01*
X152820000Y-111720000D02*
X152820000Y-111170000D01*
D31*
X154225000Y-102500000D02*
X154225000Y-101625000D01*
D32*
X143250000Y-98425000D02*
X143225000Y-98400000D01*
D31*
X146600000Y-95250000D02*
X146350000Y-95000000D01*
X146600000Y-95450000D02*
X146600000Y-95250000D01*
X146350000Y-95000000D02*
X145750000Y-95000000D01*
D32*
X142450000Y-108250000D02*
X142450000Y-107387500D01*
X144500000Y-99100000D02*
X144500000Y-100325000D01*
D31*
X142400000Y-95450000D02*
X142550000Y-95300000D01*
X145550000Y-98650000D02*
X146300000Y-98650000D01*
X144250000Y-97800000D02*
X144700000Y-97800000D01*
X142550000Y-95300000D02*
X143250000Y-95300000D01*
X146300000Y-100325000D02*
X146200000Y-100425000D01*
X146300000Y-98650000D02*
X146300000Y-100325000D01*
X144700000Y-97800000D02*
X145550000Y-98650000D01*
D32*
X151250000Y-109200000D02*
X153475708Y-109200000D01*
X146050000Y-109500000D02*
X146050000Y-110805000D01*
X150962500Y-108912500D02*
X151250000Y-109200000D01*
X150650000Y-109200000D02*
X150950000Y-109500000D01*
X142025000Y-109200000D02*
X141900000Y-109325000D01*
X151250000Y-109200000D02*
X150950000Y-109500000D01*
X141500000Y-108925000D02*
X141900000Y-109325000D01*
X145750000Y-109200000D02*
X146050000Y-109500000D01*
X156250000Y-105000000D02*
X157537500Y-105000000D01*
X150950000Y-109500000D02*
X150950000Y-110805000D01*
X155100000Y-107575708D02*
X155100000Y-106150000D01*
X150962500Y-108887500D02*
X150650000Y-109200000D01*
X153475708Y-109200000D02*
X155100000Y-107575708D01*
X146350000Y-109200000D02*
X146050000Y-109500000D01*
X141500000Y-107387500D02*
X141500000Y-108925000D01*
X145750000Y-109200000D02*
X146350000Y-109200000D01*
D31*
X145100000Y-108025000D02*
X145100000Y-109200000D01*
D32*
X150962500Y-108050000D02*
X150962500Y-108912500D01*
X155100000Y-106150000D02*
X156250000Y-105000000D01*
X145750000Y-109200000D02*
X142025000Y-109200000D01*
X150962500Y-108050000D02*
X150962500Y-108887500D01*
X150650000Y-109200000D02*
X151250000Y-109200000D01*
D31*
X151975000Y-103975000D02*
X151000000Y-103975000D01*
X153400000Y-104200000D02*
X152200000Y-104200000D01*
X153400000Y-104200000D02*
X154500000Y-104200000D01*
X152200000Y-104200000D02*
X151975000Y-103975000D01*
X154500000Y-104200000D02*
X154950000Y-103750000D01*
D32*
X160500000Y-97500000D02*
X160500000Y-102000000D01*
X157500000Y-102000000D02*
X158750000Y-102000000D01*
X159000000Y-102250000D02*
X159000000Y-104750000D01*
X158750000Y-102000000D02*
X159000000Y-102250000D01*
X159250000Y-105000000D02*
X160462500Y-105000000D01*
X159000000Y-104750000D02*
X159250000Y-105000000D01*
D31*
X147750000Y-111731452D02*
X147300000Y-112181452D01*
X148900000Y-115900000D02*
X148750009Y-115900000D01*
X147300000Y-112181452D02*
X147300000Y-112300000D01*
X148750000Y-115899991D02*
X148750000Y-110805000D01*
X148750009Y-115900000D02*
X148750000Y-115899991D01*
X147750000Y-110805000D02*
X147750000Y-111731452D01*
X148250000Y-115899511D02*
X148250000Y-110805000D01*
X149250000Y-110805000D02*
X149250000Y-111731452D01*
X148250489Y-115900000D02*
X148250000Y-115899511D01*
X149700000Y-112181452D02*
X149700000Y-112300000D01*
X148100000Y-115900000D02*
X148250489Y-115900000D01*
X149250000Y-111731452D02*
X149700000Y-112181452D01*
X147250000Y-109250000D02*
X147250000Y-110805000D01*
X147700000Y-108875000D02*
X147625000Y-108875000D01*
X147625000Y-108875000D02*
X147250000Y-109250000D01*
X149300000Y-108875000D02*
X149375000Y-108875000D01*
X149375000Y-108875000D02*
X150250000Y-109750000D01*
X150250000Y-109750000D02*
X150250000Y-110805000D01*
X152575000Y-101825000D02*
X152575000Y-102500000D01*
X149950000Y-98500000D02*
X147750000Y-96300000D01*
X152300000Y-100437500D02*
X152300000Y-99250000D01*
X151550000Y-98500000D02*
X149950000Y-98500000D01*
X152300000Y-99250000D02*
X151550000Y-98500000D01*
X147750000Y-96300000D02*
X147750000Y-95300000D01*
X152300000Y-100437500D02*
X152300000Y-101550000D01*
X152300000Y-101550000D02*
X152575000Y-101825000D01*
D32*
X155750000Y-97500000D02*
X157500000Y-97500000D01*
X154687500Y-98562500D02*
X155750000Y-97500000D01*
X153250000Y-98562500D02*
X154687500Y-98562500D01*
D31*
X141900000Y-113975000D02*
X143925000Y-113975000D01*
X143925000Y-113975000D02*
X144950000Y-112950000D01*
X149250000Y-99500000D02*
X149250000Y-99900000D01*
X148725000Y-100425000D02*
X147800000Y-100425000D01*
X149250000Y-99900000D02*
X148725000Y-100425000D01*
X144012500Y-107387500D02*
X145025000Y-106375000D01*
X143400000Y-107387500D02*
X144012500Y-107387500D01*
X145025000Y-106375000D02*
X145100000Y-106375000D01*
X155750000Y-100950000D02*
X155750000Y-100500000D01*
X158500000Y-99500000D02*
X159000000Y-99000000D01*
X149475000Y-103975000D02*
X149850000Y-104350000D01*
X150650000Y-105150000D02*
X153500000Y-105150000D01*
X150000000Y-97250000D02*
X154800000Y-97250000D01*
X149250000Y-95300000D02*
X149250000Y-96500000D01*
X149250000Y-96500000D02*
X150000000Y-97250000D01*
X159000000Y-99000000D02*
X159000000Y-98550000D01*
X153500000Y-105150000D02*
X154600000Y-105150000D01*
X154800000Y-97250000D02*
X156500000Y-95550000D01*
X155750000Y-104000000D02*
X155750000Y-100950000D01*
X158250000Y-95550000D02*
X159000000Y-96300000D01*
X154600000Y-105150000D02*
X155750000Y-104000000D01*
X156500000Y-95550000D02*
X158250000Y-95550000D01*
X149400000Y-103975000D02*
X149475000Y-103975000D01*
X149850000Y-104350000D02*
X150650000Y-105150000D01*
X156750000Y-99500000D02*
X158500000Y-99500000D01*
X159000000Y-96300000D02*
X159000000Y-98550000D01*
X155750000Y-100500000D02*
X156750000Y-99500000D01*
X154450000Y-95300000D02*
X152250000Y-95300000D01*
X154600000Y-95450000D02*
X154450000Y-95300000D01*
M02*
